<svg width="242" height="242" viewBox="0 0 242 242" fill="none" xmlns="http://www.w3.org/2000/svg">
<g clip-path="url(#clip0_138_666)">
<path d="M152.263 13.1588C148.192 8.99245 143.329 5.68189 137.96 3.42165C132.592 1.1614 126.825 -0.00292969 121 -0.00292969C115.175 -0.00292969 109.408 1.1614 104.04 3.42165C98.6708 5.68189 93.8079 8.99245 89.7367 13.1588L80.3289 22.8085L66.8677 22.6421C61.0408 22.5732 55.2589 23.67 49.862 25.8681C44.4652 28.0662 39.5624 31.3213 35.4418 35.4418C31.3213 39.5624 28.0663 44.4652 25.8681 49.862C23.67 55.2589 22.5732 61.0407 22.6422 66.8677L22.7934 80.3289L13.1739 89.7367C9.00758 93.8079 5.69703 98.6707 3.43678 104.04C1.17654 109.408 0.012207 115.175 0.012207 121C0.012207 126.825 1.17654 132.592 3.43678 137.96C5.69703 143.329 9.00758 148.192 13.1739 152.263L22.8085 161.671L22.6422 175.132C22.5732 180.959 23.67 186.741 25.8681 192.138C28.0663 197.535 31.3213 202.438 35.4418 206.558C39.5624 210.679 44.4652 213.934 49.862 216.132C55.2589 218.33 61.0408 219.427 66.8677 219.358L80.3289 219.207L89.7367 228.826C93.8079 232.992 98.6708 236.303 104.04 238.563C109.408 240.824 115.175 241.988 121 241.988C126.825 241.988 132.592 240.824 137.96 238.563C143.329 236.303 148.192 232.992 152.263 228.826L161.671 219.192L175.132 219.358C180.959 219.427 186.741 218.33 192.138 216.132C197.535 213.934 202.438 210.679 206.558 206.558C210.679 202.438 213.934 197.535 216.132 192.138C218.33 186.741 219.427 180.959 219.358 175.132L219.207 161.671L228.826 152.263C232.992 148.192 236.303 143.329 238.563 137.96C240.824 132.592 241.988 126.825 241.988 121C241.988 115.175 240.824 109.408 238.563 104.04C236.303 98.6707 232.992 93.8079 228.826 89.7367L219.192 80.3289L219.358 66.8677C219.427 61.0407 218.33 55.2589 216.132 49.862C213.934 44.4652 210.679 39.5624 206.558 35.4418C202.438 31.3213 197.535 28.0662 192.138 25.8681C186.741 23.67 180.959 22.5732 175.132 22.6421L161.671 22.7934L152.263 13.1739V13.1588ZM156.604 103.667L111.229 149.042C110.527 149.746 109.692 150.305 108.773 150.686C107.855 151.067 106.87 151.264 105.875 151.264C104.88 151.264 103.895 151.067 102.977 150.686C102.058 150.305 101.223 149.746 100.521 149.042L77.8333 126.354C77.1301 125.651 76.5724 124.816 76.1919 123.898C75.8113 122.979 75.6155 121.994 75.6155 121C75.6155 120.006 75.8113 119.021 76.1919 118.102C76.5724 117.184 77.1301 116.349 77.8333 115.646C78.5364 114.943 79.3711 114.385 80.2898 114.004C81.2085 113.624 82.1932 113.428 83.1875 113.428C84.1819 113.428 85.1665 113.624 86.0852 114.004C87.0039 114.385 87.8387 114.943 88.5418 115.646L105.875 132.994L145.896 92.9583C147.316 91.5382 149.242 90.7405 151.25 90.7405C153.258 90.7405 155.184 91.5382 156.604 92.9583C158.024 94.3783 158.822 96.3043 158.822 98.3125C158.822 100.321 158.024 102.247 156.604 103.667Z" fill="#E9D9FF"/>
<path d="M156.604 103.667L111.229 149.042C110.527 149.746 109.692 150.305 108.773 150.686C107.855 151.067 106.87 151.264 105.875 151.264C104.88 151.264 103.895 151.067 102.977 150.686C102.058 150.305 101.223 149.746 100.521 149.042L77.8333 126.354C77.1301 125.651 76.5724 124.816 76.1919 123.898C75.8113 122.979 75.6155 121.994 75.6155 121C75.6155 120.006 75.8113 119.021 76.1919 118.102C76.5724 117.184 77.1301 116.349 77.8333 115.646C78.5364 114.943 79.3711 114.385 80.2898 114.004C81.2085 113.624 82.1932 113.428 83.1875 113.428C84.1819 113.428 85.1665 113.624 86.0852 114.004C87.0039 114.385 87.8387 114.943 88.5418 115.646L105.875 132.994L145.896 92.9583C147.316 91.5382 149.242 90.7405 151.25 90.7405C153.258 90.7405 155.184 91.5382 156.604 92.9583C158.024 94.3783 158.822 96.3043 158.822 98.3125C158.822 100.321 158.024 102.247 156.604 103.667Z" fill="#8C3EF2"/>
</g>
<defs>
<clipPath id="clip0_138_666">
<rect width="242" height="242" fill="white"/>
</clipPath>
</defs>
</svg>
