<svg width="46" height="50" viewBox="0 0 46 50" fill="none" xmlns="http://www.w3.org/2000/svg">
<path d="M44.7725 27.8541C44.0566 25.9436 42.18 24.7355 40.7174 23.2295C39.8854 22.3728 39.1249 21.5862 38.4081 20.8604C38.4129 20.8423 38.4194 20.8262 38.4232 20.8071C39.5818 15.0572 40.6904 9.20327 39.6813 3.34397L39.6808 3.34121C39.6676 3.1995 39.6462 2.97162 39.6329 2.82991C39.6346 2.69752 39.6068 2.56642 39.5514 2.44611C39.5014 2.1396 39.4289 1.83718 39.3344 1.54131C39.2795 1.35936 39.1638 1.20173 39.0065 1.09478C38.9338 0.9986 38.8416 0.918804 38.736 0.860593C38.6303 0.802382 38.5135 0.767064 38.3933 0.756939C38.2731 0.746814 38.1521 0.762109 38.0381 0.801828C37.9242 0.841548 37.8199 0.904799 37.7321 0.987462C36.5982 1.92814 35.6801 3.10728 34.736 4.23053C33.7373 5.41865 32.7725 6.63651 31.8898 7.91372C31.0837 9.08268 30.3961 10.3289 29.8373 11.634C29.5204 12.372 29.1478 13.2212 29.0634 14.0546C25.4412 12.6917 21.45 12.6707 17.8138 13.9954C17.5416 14.0928 17.2766 14.1979 17.0161 14.3078C16.9535 13.4522 16.5736 12.5748 16.2466 11.8132C15.6822 10.4934 14.9872 9.23311 14.172 8.05125C13.2924 6.77997 12.3315 5.56738 11.337 4.38429C10.3929 3.26105 9.47487 2.0819 8.3409 1.14123C8.25309 1.05856 8.14882 0.995301 8.0349 0.955579C7.92098 0.915857 7.79995 0.900561 7.67972 0.910686C7.55948 0.920812 7.44273 0.956132 7.33707 1.01435C7.23141 1.07256 7.13922 1.15236 7.0665 1.24855C6.90925 1.35549 6.79351 1.51312 6.73864 1.69508C6.64415 1.99094 6.57161 2.29336 6.52162 2.59988C6.46626 2.72018 6.43843 2.85128 6.44012 2.98368C6.42684 3.12538 6.40546 3.35327 6.39216 3.49497L6.3917 3.49771C5.38267 9.35703 6.49121 15.211 7.6498 20.9609C7.67078 21.0698 7.71446 21.173 7.77801 21.264C4.96079 24.2775 1.24342 26.4069 0.804927 30.1889C0.234517 35.1084 4.55032 40.3951 8.86089 42.5024C13.1477 44.5981 16.5207 48.2073 21.2635 49.1035C26.4285 50.0794 29.8501 46.3821 34.2835 43.906C37.705 41.9951 41.633 40.061 43.6054 36.4896C45.0754 33.8279 45.7315 30.4136 44.7725 27.8541Z" fill="#8C3EF2"/>
<path d="M45.5011 27.6524C44.916 26.1286 43.7667 25.0162 42.5785 23.9435C41.3076 22.7961 40.1444 21.5435 38.9424 20.3255L39.1368 21.06C39.3191 20.4173 39.408 19.7316 39.5355 19.0756C39.6608 18.4305 39.7817 17.7845 39.898 17.1376C40.1403 15.7785 40.3528 14.4139 40.5177 13.0432C40.8659 10.413 40.9201 7.75236 40.6792 5.11026C40.6418 4.748 40.5962 4.38675 40.5464 4.02598C40.526 3.87853 40.5046 3.73125 40.482 3.58412C40.4694 3.50223 40.4564 3.4204 40.443 3.33863C40.435 3.2895 40.4267 3.2404 40.4183 3.19133C40.4027 3.09816 40.4067 3.12593 40.4303 3.27465C40.3838 3.2211 40.4014 2.97618 40.3947 2.89437C40.39 2.72268 40.3686 2.55184 40.3308 2.38429C40.2448 2.08344 40.1933 1.77308 40.1038 1.47143C40.0246 1.1596 39.8659 0.873575 39.6431 0.641235C39.5972 0.595785 39.3666 0.370444 39.4966 0.504925C39.4643 0.471507 39.4337 0.440317 39.3987 0.409174C39.236 0.263383 39.0455 0.151971 38.8385 0.0816387C38.1692 -0.148431 37.5626 0.137446 37.0599 0.568953C36.122 1.37407 35.3352 2.33386 34.5476 3.28106C33.7126 4.28546 32.8808 5.29033 32.098 6.33649C31.2372 7.46195 30.4733 8.65816 29.8144 9.91233C29.4788 10.5675 29.1828 11.2412 28.9005 11.9208C28.6025 12.5999 28.4028 13.3181 28.3076 14.0535L29.2642 13.3255C26.15 12.1749 22.767 11.9589 19.5316 12.7043C18.6028 12.9178 17.694 13.2104 16.8151 13.5788L17.7717 14.3067C17.6572 12.9715 17.0581 11.7073 16.4809 10.5147C15.9297 9.38515 15.2847 8.30374 14.5527 7.28181C13.7844 6.20131 12.9621 5.1588 12.1141 4.13976C11.3037 3.16578 10.5134 2.16268 9.60897 1.27259C9.18015 0.850559 8.69933 0.327483 8.08971 0.195072C7.74102 0.118337 7.37669 0.15928 7.05378 0.31149C6.91544 0.375974 6.78749 0.460716 6.67417 0.562917C6.6492 0.585124 6.5356 0.745923 6.6325 0.633878C6.56373 0.713397 6.45701 0.765063 6.38289 0.842973C6.15769 1.10534 6.00232 1.42018 5.93114 1.7584C5.89063 1.90847 5.8557 2.05991 5.82634 2.2127C5.78672 2.41724 5.72005 2.60579 5.69812 2.81526C5.68612 2.92999 5.67849 3.04495 5.66769 3.15995C5.6616 3.22497 5.65329 3.2902 5.64936 3.35537C5.63441 3.60341 5.6888 3.15542 5.65453 3.34506C5.58662 3.72081 5.53647 4.10018 5.48625 4.47859C5.16098 7.17974 5.16158 9.91013 5.48802 12.6111C5.65498 14.1463 5.88808 15.674 6.15759 17.1943C6.28951 17.9384 6.42868 18.6813 6.57509 19.4228C6.65063 19.8094 6.72718 20.1958 6.80473 20.582C6.84353 20.953 6.95234 21.3133 7.12538 21.6439L7.24355 20.7291C5.52333 22.5621 3.4324 24.0494 1.87216 26.0317C1.09773 26.9641 0.532309 28.0514 0.213969 29.2205C-0.0729362 30.4913 -0.071294 31.8103 0.218776 33.0804C0.762624 35.6593 2.27257 38.0091 4.08486 39.8861C4.98908 40.824 5.99758 41.6557 7.09077 42.3649C8.16656 43.0607 9.34842 43.572 10.4434 44.2381C12.6785 45.5976 14.7499 47.2283 17.089 48.4153C19.5011 49.6393 22.1776 50.3605 24.8774 49.8157C27.3315 49.3204 29.4674 47.8894 31.5188 46.5293C32.6131 45.8038 33.7109 45.087 34.8591 44.4486C35.943 43.8459 37.0352 43.2574 38.0982 42.6181C40.3284 41.2766 42.4771 39.6753 43.9046 37.4606C44.6441 36.2906 45.1982 35.0136 45.5473 33.6747C45.9281 32.3316 46.0556 30.9295 45.9233 29.5399C45.8587 28.8961 45.717 28.2624 45.5011 27.6524C45.4433 27.4622 45.3147 27.3015 45.1417 27.2033C44.9687 27.1052 44.7645 27.0772 44.5715 27.1251C44.3791 27.1797 44.2159 27.3077 44.1172 27.4814C44.0184 27.6552 43.992 27.8607 44.0437 28.0538C44.479 29.2371 44.5452 30.3113 44.4114 31.6041C44.3836 31.8729 44.3463 32.1188 44.2786 32.4612C44.2139 32.7887 44.1363 33.1132 44.0456 33.4348C43.9549 33.7581 43.8519 34.0775 43.7368 34.3933C43.6148 34.7284 43.5329 34.9296 43.4 35.2199C43.1378 35.8007 42.828 36.3589 42.4739 36.8889C42.389 37.0144 42.3015 37.138 42.2113 37.2599C42.2115 37.2597 42.0614 37.4569 42.1465 37.3475C42.1002 37.407 42.0528 37.4658 42.0051 37.5242C41.8146 37.7577 41.6153 37.9838 41.4074 38.2023C40.9897 38.6399 40.5452 39.051 40.0764 39.4334C39.8016 39.659 39.7195 39.7219 39.4474 39.922C39.2009 40.1033 38.9507 40.2794 38.6967 40.4502C36.6524 41.8298 34.4112 42.8751 32.3316 44.1956C31.283 44.8613 30.2622 45.5697 29.212 46.2329C28.706 46.5525 28.1929 46.8615 27.6663 47.1463C27.4084 47.2859 27.1473 47.4196 26.8825 47.5455C26.7512 47.608 26.619 47.6684 26.4859 47.7269C26.4778 47.7304 26.2579 47.8224 26.4 47.7641C26.3332 47.7915 26.2662 47.8184 26.1991 47.8449C25.6631 48.0572 25.1103 48.2246 24.5465 48.3452C24.4045 48.375 24.2618 48.4014 24.1185 48.4245C24.1059 48.4265 23.8679 48.46 24.0303 48.439C23.9574 48.4484 23.8844 48.4566 23.8113 48.464C23.5138 48.4941 23.2149 48.5087 22.9159 48.5078C22.6052 48.5067 22.2948 48.4892 21.986 48.4554C21.9885 48.4556 21.7295 48.4222 21.8685 48.4419C21.7878 48.4305 21.7072 48.4175 21.6269 48.4037C21.4661 48.3762 21.306 48.3446 21.1466 48.31C20.5249 48.1737 19.9141 47.9921 19.3189 47.7666C17.1156 46.9369 14.9392 45.3753 12.8887 44.0125C11.8308 43.2907 10.7334 42.6287 9.60139 42.0296C9.07325 41.7582 8.54586 41.496 8.04165 41.1808C7.78739 41.0219 7.53816 40.8553 7.29395 40.681C7.16978 40.5925 7.0474 40.5018 6.92547 40.4103C6.89321 40.39 6.863 40.3666 6.83526 40.3405C6.7749 40.2923 6.71432 40.2445 6.65436 40.1959C5.67214 39.402 4.78444 38.4981 4.00872 37.5019C4.08607 37.6017 3.92857 37.3952 3.93414 37.4026C3.88663 37.3392 3.8396 37.2755 3.79304 37.2113C3.70012 37.0833 3.60916 36.9539 3.52017 36.8231C3.34318 36.5629 3.17456 36.2972 3.01428 36.0261C2.85585 35.7577 2.7066 35.4841 2.56653 35.2054C2.49731 35.0673 2.43057 34.928 2.36633 34.7875C2.33439 34.7175 2.30333 34.6472 2.27247 34.5768C2.25537 34.5441 2.24122 34.51 2.23019 34.4748C2.00582 33.9154 1.82581 33.3392 1.69184 32.7516C1.66018 32.607 1.63189 32.4616 1.60697 32.3156C1.59461 32.243 1.58312 32.1702 1.57251 32.0973C1.59615 32.2577 1.56335 32.0184 1.56203 32.0065C1.52937 31.7161 1.51194 31.4242 1.50981 31.1319C1.5077 30.8408 1.52197 30.5498 1.55256 30.2603C1.55415 30.2453 1.58817 30.0089 1.5621 30.1749C1.57313 30.1047 1.5845 30.0346 1.59751 29.9647C1.62316 29.827 1.65347 29.6902 1.68842 29.5543C1.75898 29.2884 1.84489 29.0267 1.94573 28.7706C2.02608 28.5619 1.8809 28.9019 1.97621 28.6998C2.00529 28.6381 2.03291 28.5759 2.06262 28.5145C2.12207 28.3917 2.18494 28.2706 2.25124 28.1512C2.38452 27.9108 2.53074 27.6776 2.68681 27.4514C2.76581 27.3368 2.84829 27.225 2.93102 27.1131C3.06756 26.9285 2.83936 27.2232 2.98451 27.0441C3.02892 26.9893 3.07278 26.934 3.11761 26.8796C3.48817 26.4351 3.88136 26.0099 4.29564 25.6058C5.16412 24.7482 6.09022 23.9517 6.98088 23.1177C7.43739 22.6902 7.88434 22.2528 8.31234 21.7967C8.42821 21.6774 8.50233 21.5238 8.52363 21.3589C8.54492 21.1941 8.51226 21.0267 8.43051 20.8819C8.4254 20.874 8.35361 20.7106 8.38147 20.8019C8.41818 20.9222 8.35084 20.6234 8.35907 20.6628C8.32886 20.5184 8.30087 20.3735 8.27189 20.2288C8.2074 19.907 8.14343 19.5852 8.07998 19.2632C7.95633 18.6345 7.83636 18.0052 7.72006 17.3751C7.49927 16.1693 7.28999 14.9303 7.13395 13.7335C6.77836 11.2214 6.67594 8.67994 6.82822 6.14737C6.87022 5.55803 6.92899 4.95633 7.01159 4.38472C7.05453 4.0876 7.11317 3.7921 7.14784 3.49391C7.16223 3.3701 7.17117 3.24526 7.18281 3.12116C7.18714 3.07498 7.19147 3.0288 7.1958 2.98262C7.21127 2.81529 7.1656 2.99714 7.2223 2.86734C7.30677 2.59131 7.37498 2.31056 7.42658 2.02655C7.43559 1.99621 7.46742 1.81514 7.45028 1.93229L7.46831 1.90061C7.49703 1.85446 7.49148 1.85779 7.45168 1.91059L7.49852 1.8626C7.42219 1.91874 7.4308 1.91131 7.52435 1.84032C7.57498 1.79364 7.62289 1.74411 7.66785 1.69197C7.59589 1.75534 7.75199 1.64335 7.75679 1.64117C7.58744 1.71799 7.76225 1.648 7.76088 1.6543L7.68962 1.66449C7.76674 1.668 7.77747 1.66563 7.7218 1.65739C7.6092 1.62159 7.82507 1.68763 7.82105 1.68615C7.76764 1.66656 7.7499 1.63021 7.8355 1.70291C7.74215 1.62364 7.88881 1.74306 7.90998 1.76109C8.03576 1.86823 8.15909 1.97816 8.27997 2.09086C9.1071 2.90288 9.88219 3.76617 10.6006 4.67558C11.3571 5.58296 12.1055 6.4887 12.8031 7.43123C13.6015 8.49018 14.313 9.61188 14.9304 10.7854C15.0842 11.0838 15.2311 11.3856 15.371 11.6909C15.4917 11.9539 15.6359 12.2849 15.7243 12.4992C15.9862 13.0739 16.1666 13.6822 16.2603 14.3067C16.297 14.734 16.7238 15.2412 17.2169 15.0347C20.0803 13.8145 23.2421 13.4721 26.3007 14.051C27.1728 14.2257 28.0294 14.4699 28.8624 14.7814C29.3699 14.9702 29.769 14.494 29.819 14.0535C29.9129 13.5157 30.0706 12.991 30.2887 12.4905C30.4739 12.0332 30.7147 11.4917 30.9536 11.0051C31.4821 9.93722 32.0954 8.91335 32.7875 7.9433C33.468 6.98281 34.1838 6.07149 34.9354 5.16454C35.6791 4.26712 36.4099 3.35042 37.2163 2.50772C37.4032 2.31231 37.595 2.12137 37.793 1.9371C37.8919 1.84501 37.9925 1.75467 38.0946 1.66609C38.1483 1.61343 38.2057 1.56468 38.2664 1.52021C38.1624 1.58624 38.406 1.47598 38.2519 1.53241C38.2952 1.51695 38.3397 1.50519 38.385 1.49723C38.1916 1.53196 38.3875 1.50343 38.3833 1.51075L38.3121 1.50056C38.3842 1.52351 38.3954 1.52398 38.3457 1.50199C38.2654 1.43023 38.4294 1.5539 38.4297 1.55416C38.2705 1.4312 38.7367 1.82472 38.5997 1.72721C38.5022 1.65779 38.7096 1.8396 38.5866 1.71518L38.6227 1.77853C38.5945 1.71245 38.5981 1.72914 38.6333 1.82861C38.7036 2.09776 38.7473 2.37928 38.8226 2.64574C38.836 2.69298 38.8602 2.73776 38.8734 2.78565C38.8436 2.6778 38.8773 2.82278 38.8802 2.8616C38.8906 2.99922 38.9045 3.13737 38.919 3.27463C38.981 3.86397 39.0952 4.42864 39.1575 5.01208C39.3959 7.48971 39.3677 9.98573 39.0734 12.4574C38.9249 13.8255 38.7157 15.1766 38.475 16.542C38.3552 17.2217 38.2292 17.9002 38.0968 18.5775C37.9635 19.2656 37.8706 19.9845 37.6794 20.6587C37.6445 20.7874 37.6441 20.923 37.6782 21.0519C37.7123 21.1808 37.7797 21.2985 37.8737 21.3932C39.0379 22.5728 40.1611 23.7933 41.3919 24.9047C41.9346 25.3948 42.482 25.8826 42.9746 26.4241C43.1927 26.6527 43.3898 26.9003 43.5637 27.164C43.6613 27.31 43.7528 27.4601 43.8364 27.6145C43.8844 27.7031 43.9271 27.7939 43.9724 27.8838C44.0088 27.9665 44.014 27.9758 43.9879 27.9117C44.0072 27.9588 44.0258 28.0061 44.0437 28.0537C44.1018 28.2437 44.2305 28.4042 44.4034 28.5023C44.5763 28.6003 44.7803 28.6285 44.9733 28.581C45.3376 28.481 45.6481 28.0351 45.5011 27.6524Z" fill="#302813"/>
<path d="M6.39172 3.49728C6.39816 3.46104 6.40729 3.42533 6.41903 3.39045C6.42645 3.23717 6.43387 3.08387 6.4413 2.93057C6.44629 2.81603 6.47358 2.70356 6.52165 2.59945C6.57164 2.29293 6.64417 1.99051 6.73867 1.69465C6.79354 1.51269 6.90927 1.35506 7.06652 1.24812C7.13925 1.15193 7.23144 1.07213 7.3371 1.01392C7.44276 0.955705 7.55951 0.920384 7.67974 0.910259C7.79998 0.900134 7.921 0.91543 8.03493 0.955152C8.14885 0.994874 8.25312 1.05813 8.34093 1.1408C9.47492 2.08147 10.3929 3.26062 11.337 4.38386C12.283 5.5093 13.1987 6.66143 14.0429 7.8654C14.8914 9.06454 15.6132 10.3483 16.1966 11.6962C16.7163 12.9109 17.4307 14.4491 16.7452 15.7228C16.6945 15.8276 16.6199 15.9192 16.5275 15.9902C16.435 16.0612 16.3273 16.1097 16.2128 16.1317C16.1423 16.2171 16.0559 16.2881 15.9585 16.3407C13.5246 17.6896 10.9038 18.8756 9.19714 21.1625C8.80377 21.6896 7.81018 21.7562 7.64983 20.9605C6.49124 15.2105 5.3827 9.35661 6.39172 3.49728Z" fill="#8C3EF2"/>
<path d="M8.78872 8.39634C8.79268 8.37403 8.7983 8.35205 8.80553 8.33057L8.81925 8.04743C8.82232 7.97691 8.83912 7.90767 8.86871 7.84358C8.8995 7.65487 8.94415 7.46869 9.00232 7.28655C9.03611 7.17452 9.10736 7.07748 9.20416 7.01161C9.24894 6.9524 9.3057 6.90327 9.37075 6.86743C9.4358 6.8316 9.50768 6.80986 9.5817 6.80362C9.65573 6.79739 9.73024 6.80681 9.80038 6.83127C9.87051 6.85572 9.9347 6.89467 9.98877 6.94556C10.6869 7.52468 11.2521 8.25063 11.8333 8.94216C12.4157 9.63504 12.9795 10.3444 13.4992 11.0856C14.0216 11.8238 14.466 12.6142 14.8251 13.444C15.1451 14.1919 15.5849 15.1388 15.1629 15.923C15.1316 15.9875 15.0857 16.0439 15.0288 16.0876C14.9719 16.1313 14.9056 16.1612 14.8351 16.1748C14.7917 16.2273 14.7385 16.271 14.6785 16.3034C13.1801 17.1339 11.5666 17.864 10.5159 19.272C10.2737 19.5965 9.662 19.6375 9.56327 19.1476C8.84998 15.6076 8.16753 12.0036 8.78872 8.39634Z" fill="#FFFBF0"/>
<path d="M39.6813 3.34397C39.6748 3.30773 39.6657 3.27201 39.654 3.23713C39.6465 3.08383 39.6391 2.93053 39.6317 2.77723C39.6267 2.66269 39.5994 2.55022 39.5513 2.44611C39.5013 2.1396 39.4288 1.83718 39.3343 1.54131C39.2794 1.35936 39.1637 1.20173 39.0065 1.09478C38.9337 0.9986 38.8415 0.918804 38.7359 0.860593C38.6302 0.802382 38.5135 0.767064 38.3932 0.756939C38.273 0.746814 38.152 0.762109 38.0381 0.801828C37.9241 0.841548 37.8199 0.904799 37.7321 0.987463C36.5981 1.92814 35.6801 3.10728 34.7359 4.23053C33.79 5.35596 32.8743 6.5081 32.0301 7.71207C31.1815 8.9112 30.4598 10.195 29.8764 11.5429C29.3567 12.7576 28.6423 14.2958 29.3277 15.5694C29.3785 15.6743 29.4531 15.7659 29.5455 15.8369C29.638 15.9079 29.7457 15.9563 29.8602 15.9784C29.9307 16.0638 30.017 16.1347 30.1145 16.1874C32.5484 17.5363 35.1692 18.7223 36.8758 21.0091C37.2692 21.5363 38.2628 21.6029 38.4232 20.8071C39.5817 15.0572 40.6903 9.20327 39.6813 3.34397Z" fill="#8C3EF2"/>
<path d="M36.9367 8.39634C36.9327 8.37403 36.9271 8.35205 36.9199 8.33057L36.9062 8.04743C36.9031 7.97691 36.8863 7.90767 36.8567 7.84358C36.8259 7.65487 36.7813 7.46869 36.7231 7.28655C36.6893 7.17452 36.6181 7.07747 36.5213 7.01161C36.4765 6.9524 36.4197 6.90327 36.3547 6.86743C36.2896 6.8316 36.2177 6.80986 36.1437 6.80362C36.0697 6.79739 35.9952 6.80681 35.925 6.83127C35.8549 6.85572 35.7907 6.89467 35.7366 6.94556C35.0385 7.52468 34.4733 8.25063 33.8921 8.94216C33.3097 9.63504 32.746 10.3444 32.2262 11.0856C31.7038 11.8238 31.2595 12.6142 30.9003 13.444C30.5804 14.1919 30.1405 15.1388 30.5625 15.923C30.5938 15.9875 30.6397 16.0439 30.6966 16.0876C30.7535 16.1313 30.8199 16.1612 30.8903 16.1748C30.9337 16.2273 30.9869 16.271 31.0469 16.3034C32.5453 17.1339 34.1588 17.864 35.2095 19.272C35.4517 19.5965 36.0634 19.6375 36.1621 19.1476C36.8754 15.6076 37.5579 12.0036 36.9367 8.39634Z" fill="#FFFBF0"/>
<path opacity="0.84" d="M8.78872 8.39634C8.79268 8.37403 8.7983 8.35205 8.80553 8.33057L8.81925 8.04743C8.82232 7.97691 8.83912 7.90767 8.86871 7.84358C8.8995 7.65487 8.94415 7.46869 9.00232 7.28655C9.03611 7.17452 9.10736 7.07748 9.20416 7.01161C9.24894 6.9524 9.3057 6.90327 9.37075 6.86743C9.4358 6.8316 9.50768 6.80986 9.5817 6.80362C9.65573 6.79739 9.73024 6.80681 9.80038 6.83127C9.87051 6.85572 9.9347 6.89467 9.98877 6.94556C10.6869 7.52468 11.2521 8.25063 11.8333 8.94216C12.4157 9.63504 12.9795 10.3444 13.4992 11.0856C14.0216 11.8238 14.466 12.6142 14.8251 13.444C15.1451 14.1919 15.5849 15.1388 15.1629 15.923C15.1316 15.9875 15.0857 16.0439 15.0288 16.0876C14.9719 16.1313 14.9056 16.1612 14.8351 16.1748C14.7917 16.2273 14.7385 16.271 14.6785 16.3034C13.1801 17.1339 11.5666 17.864 10.5159 19.272C10.2737 19.5965 9.662 19.6375 9.56327 19.1476C8.84998 15.6076 8.16753 12.0036 8.78872 8.39634Z" fill="url(#paint0_radial_204_710)"/>
<path opacity="0.84" d="M36.9367 8.39634C36.9327 8.37403 36.9271 8.35205 36.9199 8.33057L36.9062 8.04743C36.9031 7.97691 36.8863 7.90767 36.8567 7.84358C36.8259 7.65487 36.7813 7.46869 36.7231 7.28655C36.6893 7.17452 36.6181 7.07747 36.5213 7.01161C36.4765 6.9524 36.4197 6.90327 36.3547 6.86743C36.2896 6.8316 36.2177 6.80986 36.1437 6.80362C36.0697 6.79739 35.9952 6.80681 35.925 6.83127C35.8549 6.85572 35.7907 6.89467 35.7366 6.94556C35.0385 7.52468 34.4733 8.25063 33.8921 8.94216C33.3097 9.63504 32.746 10.3444 32.2262 11.0856C31.7038 11.8238 31.2595 12.6142 30.9003 13.444C30.5804 14.1919 30.1405 15.1388 30.5625 15.923C30.5938 15.9875 30.6397 16.0439 30.6966 16.0876C30.7535 16.1313 30.8199 16.1612 30.8903 16.1748C30.9337 16.2273 30.9869 16.271 31.0469 16.3034C32.5453 17.1339 34.1588 17.864 35.2095 19.272C35.4517 19.5965 36.0634 19.6375 36.1621 19.1476C36.8754 15.6076 37.5579 12.0036 36.9367 8.39634Z" fill="url(#paint1_radial_204_710)"/>
<path d="M44.7724 27.8531C44.0565 25.9426 42.18 24.7345 40.7173 23.2285C36.9047 19.3029 34.5929 16.847 31.1193 14.9852C29.0986 13.8871 26.8672 13.2308 24.5732 13.06C22.2792 12.8891 19.975 13.2077 17.8137 13.9944C13.828 15.4195 10.9049 17.9858 8.03415 21.0324C4.85811 24.403 1.23784 26.479 0.785866 30.3771C0.215477 35.2965 4.55027 40.2916 8.86083 42.5014C13.1069 44.6782 16.5206 48.2063 21.2634 49.1025C26.4284 50.0784 29.85 46.3811 34.2835 43.905C37.7049 41.9941 41.6329 40.06 43.6053 36.4886C45.0753 33.8269 45.7314 30.4126 44.7724 27.8531Z" fill="#8C3EF2"/>
<path d="M8.86089 42.502C13.0818 44.7272 16.5207 48.2069 21.2635 49.1031C26.4285 50.079 29.8501 46.3817 34.2835 43.9056C37.705 41.9947 41.633 40.0607 43.6054 36.4892C43.747 36.2329 43.8741 35.9758 43.9869 35.7179C44.6189 33.6622 45.136 30.7171 44.0319 28.8344C42.7241 26.6041 39.2477 25.4542 36.5714 25.6474C34.0707 25.8279 32.5629 26.3454 30.3066 27.3484C29.6746 27.6293 29.0696 27.964 28.4551 28.28C27.6144 28.5397 26.7509 28.72 25.9025 28.9597C25.0085 29.2122 24.1495 29.5462 23.2576 29.7813C22.9803 29.7852 22.7032 29.7779 22.4259 29.7622C20.4425 29.365 18.4967 28.7996 16.6095 28.0721C14.9712 27.2585 13.3703 26.1717 11.5646 25.9137C10.8758 25.8213 10.187 25.7288 9.49821 25.6363C8.11928 25.6342 6.76482 26.0002 5.57503 26.6965C3.83744 27.7133 2.26208 29.0487 1.72762 30.9896C1.42515 32.1516 1.37296 33.3645 1.57452 34.5481C2.57573 37.6782 4.96079 40.4459 8.86089 42.502Z" fill="#FFFBF0"/>
<path opacity="0.38" d="M8.86076 42.502C13.0709 44.7473 16.5206 48.2069 21.2634 49.1031C26.4283 50.079 29.8499 46.3817 34.2834 43.9056C37.7049 41.9947 41.6329 40.0607 43.6053 36.4892C43.7468 36.2329 43.874 35.9758 43.9867 35.7179C44.6187 33.6622 45.1358 30.7171 44.0318 28.8344C42.7239 26.6041 39.2475 25.4542 36.5712 25.6474C34.0705 25.8279 32.5628 26.3454 30.3064 27.3484C29.6745 27.6293 29.0695 27.964 28.455 28.28C27.6142 28.5397 26.7508 28.72 25.9024 28.9597C25.0084 29.2122 24.1494 29.5462 23.2575 29.7813C22.9802 29.7852 22.7031 29.7779 22.4257 29.7622C20.4424 29.365 18.4965 28.7996 16.6094 28.0721C14.9711 27.2585 13.3702 26.1717 11.5644 25.9137C10.8757 25.8213 10.1869 25.7288 9.49808 25.6363C8.11915 25.6342 6.76469 26.0002 5.5749 26.6965C4.20282 27.4955 3.10942 28.6961 2.44254 30.1359C1.77566 31.5758 1.56747 33.1855 1.84611 34.7475C2.93685 37.9808 4.90935 40.3947 8.86076 42.502Z" fill="url(#paint2_radial_204_710)"/>
<path d="M28.3194 30.076C28.6191 29.4795 28.5108 26.4995 25.1922 26.6602C23.3685 26.7485 21.5077 26.5182 19.2462 26.7379C17.8365 26.9612 16.6036 28.4811 17.0993 29.9095C17.8079 31.9506 21.6613 34.2076 23.048 34.1128C24.659 34.0026 27.4682 31.7705 28.3194 30.076Z" fill="#302813"/>
<path d="M32.7912 23.4862C32.7273 22.9189 32.3093 22.6002 31.7188 22.6708C29.6563 22.9175 29.0457 26.3771 30.8536 26.5688C32.1541 26.7067 32.9092 24.5343 32.7912 23.4862Z" fill="#513B09"/>
<path d="M33.0936 23.4858C33.0227 22.9561 32.7162 22.4926 32.1601 22.3874C31.6971 22.3174 31.2243 22.4145 30.8265 22.6613C30.4937 22.873 30.2082 23.1507 29.9874 23.4773C29.7667 23.8039 29.6156 24.1724 29.5435 24.5598C29.4084 25.2337 29.4715 26.0671 30.0359 26.5402C30.7085 27.1039 31.6369 26.8931 32.1832 26.2665C32.8349 25.4919 33.1612 24.4954 33.0936 23.4858C33.0914 23.4064 33.0589 23.3309 33.0027 23.2747C32.9464 23.2186 32.8708 23.1861 32.7913 23.1839C32.7113 23.1844 32.6348 23.2164 32.5782 23.2729C32.5216 23.3294 32.4896 23.4059 32.4891 23.4858C32.535 24.1831 32.367 24.8777 32.0075 25.4771C31.8565 25.7689 31.6265 26.0124 31.3438 26.18C31.229 26.2404 31.1013 26.2722 30.9716 26.2727C30.8548 26.2695 30.7392 26.2474 30.6294 26.2074C30.5291 26.1665 30.4385 26.105 30.3635 26.0269C30.2885 25.9487 30.2307 25.8557 30.194 25.7539C30.2112 25.7922 30.1774 25.71 30.1732 25.6978C30.1631 25.6682 30.1536 25.6384 30.1451 25.6082C30.126 25.5412 30.1111 25.4732 30.1003 25.4044C30.1062 25.442 30.0956 25.3645 30.0946 25.3535C30.0917 25.3199 30.0892 25.2863 30.0876 25.2527C30.0842 25.1782 30.0846 25.1035 30.0883 25.0289C30.1222 24.4379 30.3685 23.8789 30.7819 23.4548C31.0163 23.2176 31.3158 23.0548 31.6425 22.9871C32.0317 22.9071 32.4303 23.0467 32.4891 23.4858C32.4916 23.5651 32.5242 23.6405 32.5804 23.6966C32.6365 23.7527 32.712 23.7853 32.7913 23.7878C32.9378 23.7878 33.1154 23.6487 33.0936 23.4858Z" fill="#302813"/>
<path d="M14.4268 22.6609C14.051 22.4321 13.3861 22.2621 12.9478 22.6609C12.2294 23.3145 12.8995 25.0843 13.4201 25.6355C13.881 26.1236 14.6682 26.4501 15.214 26.0588C15.6002 25.7819 15.7087 25.2454 15.6501 24.7742C15.5785 24.1981 15.5545 23.3475 14.4268 22.6609Z" fill="#513B09"/>
<path d="M14.5795 22.4006C14.2071 22.1703 13.7647 22.0804 13.3319 22.1468C13.1276 22.1861 12.9371 22.2779 12.7791 22.4131C12.6211 22.5483 12.501 22.7224 12.4308 22.918C12.158 23.6329 12.4412 24.5218 12.7603 25.1738C13.1142 25.8969 13.8106 26.542 14.6636 26.5344C14.8964 26.5335 15.1243 26.468 15.3219 26.3453C15.5196 26.2226 15.6792 26.0474 15.7831 25.8393C15.9538 25.4509 16.0058 25.0207 15.9323 24.6029C15.9012 24.2286 15.8078 23.8621 15.6559 23.5185C15.4111 23.051 15.0376 22.6631 14.5795 22.4006C14.2481 22.1949 13.9442 22.7171 14.2743 22.922C14.5455 23.0762 14.7785 23.2893 14.956 23.5456C15.1336 23.8019 15.2512 24.0948 15.3001 24.4026C15.3132 24.4802 15.3123 24.4768 15.3186 24.5274C15.3255 24.5817 15.3315 24.6361 15.3379 24.6905C15.362 24.8536 15.3677 25.019 15.3548 25.1834C15.3513 25.3348 15.3049 25.4821 15.2209 25.6082C15.1369 25.7342 15.0188 25.8338 14.8804 25.8955C14.5689 26.0033 14.2219 25.8629 13.96 25.6954C13.7236 25.5462 13.5306 25.3376 13.4001 25.0906C13.0933 24.5911 12.9335 24.0154 12.9391 23.4293C12.9316 23.2986 12.9616 23.1684 13.0257 23.0542C13.0897 22.9399 13.1851 22.8464 13.3007 22.7845C13.6112 22.6412 13.9965 22.7578 14.2743 22.922C14.3434 22.9593 14.4242 22.9683 14.4997 22.9471C14.5753 22.9259 14.6396 22.8763 14.6792 22.8086C14.7188 22.741 14.7305 22.6606 14.7119 22.5845C14.6933 22.5083 14.6458 22.4424 14.5795 22.4006V22.4006Z" fill="#302813"/>
<path d="M32.5812 19.0983C32.5274 18.8623 32.4037 18.6479 32.2263 18.483C32.0489 18.3181 31.826 18.2103 31.5865 18.1736C31.4689 18.1083 31.3379 18.071 31.2036 18.0644C30.3825 18.0159 29.2906 18.4256 28.943 19.234C28.4359 20.4136 29.7289 21.0899 30.7336 21.0063C31.6703 20.9283 32.832 20.1909 32.5812 19.0983Z" fill="#FFFBF0"/>
<path d="M16.3672 18.3659C16.0228 18.2021 15.499 17.9623 15.1071 17.9827C14.8947 17.9797 14.6854 18.0344 14.5016 18.1408C14.3178 18.2472 14.1663 18.4014 14.0633 18.5869C13.8399 18.8405 13.7172 19.167 13.7182 19.5048C13.702 20.0719 14.1554 20.5302 14.6036 20.7992C15.3569 21.2512 16.6392 21.3743 17.3001 20.7027C18.1202 19.8694 17.1522 18.7393 16.3672 18.3659Z" fill="#FFFBF0"/>
<path d="M10.9622 32.0439C11.8427 32.2651 12.5201 32.8614 13.1353 33.5C13.7784 34.1677 14.3722 34.8863 15.1147 35.4497C16.0082 36.0884 17.0524 36.4844 18.1452 36.5989C19.2679 36.7497 20.449 36.7704 21.5079 36.3169C22.4742 35.903 23.1172 35.1171 23.4936 34.1532C23.6351 33.7909 23.0507 33.6339 22.9106 33.9926C22.7723 34.3777 22.5588 34.7315 22.2826 35.0336C22.0064 35.3357 21.6729 35.58 21.3015 35.7524C20.324 36.1905 19.1711 36.1453 18.1333 35.9925C17.1079 35.8736 16.1345 35.4773 15.3181 34.8462C14.6466 34.2943 14.095 33.6175 13.4899 32.9978C12.8232 32.3149 12.067 31.6987 11.123 31.4616C10.7455 31.3668 10.5845 31.9491 10.9622 32.0439H10.9622Z" fill="#302813"/>
<path d="M22.9107 34.2877C23.0441 34.7477 23.277 35.1728 23.593 35.533C23.909 35.8932 24.3003 36.1797 24.7393 36.3722C25.811 36.8246 27.0697 36.8956 28.2184 36.8011C29.2098 36.7426 30.1508 36.3446 30.8827 35.674C31.5149 35.0903 31.9988 34.366 32.5076 33.6782C33.0674 32.9216 33.6812 32.1784 34.5522 31.7726C34.9045 31.6084 34.5978 31.0876 34.247 31.2511C32.7672 31.9406 32.0176 33.4678 31.0102 34.66C30.4731 35.2957 29.8448 35.837 29.026 36.0594C28.4951 36.1876 27.9492 36.2426 27.4035 36.2229C26.8497 36.2283 26.2969 36.1747 25.7545 36.063C25.2158 35.9677 24.7103 35.7371 24.2854 35.3927C23.9128 35.0493 23.6394 34.6122 23.4937 34.1271C23.375 33.7586 22.7911 33.9162 22.9107 34.2877V34.2877Z" fill="#302813"/>
<path d="M19.3954 41.219C20.6373 41.777 21.9418 42.2781 23.3203 42.3139C24.5136 42.3725 25.6857 41.9824 26.6054 41.2206C26.8993 40.9648 26.4702 40.5392 26.1779 40.7935C24.327 42.4041 21.6734 41.584 19.7006 40.6975C19.3486 40.5394 19.0408 41.0597 19.3954 41.219V41.219Z" fill="#E2DAC5"/>
<path d="M14.7092 23.4297C14.1137 23.4297 14.1137 24.3523 14.7092 24.3523C15.3048 24.3523 15.3048 23.4297 14.7092 23.4297Z" fill="white"/>
<path d="M32.1535 23.7373C31.558 23.7373 31.558 24.6599 32.1535 24.6599C32.7491 24.6599 32.7491 23.7373 32.1535 23.7373Z" fill="white"/>
<path d="M7.57632 21.5314C9.40792 19.7572 11.5603 18.3611 13.4875 16.698C13.7824 16.4434 13.3533 16.0179 13.06 16.2709C11.1328 17.934 8.98046 19.3301 7.14882 21.1043C6.86899 21.3753 7.29673 21.8022 7.57631 21.5313L7.57632 21.5314Z" fill="#302813"/>
<path d="M39.4519 20.9588C37.6748 19.1084 35.7979 17.2714 33.5204 16.0429C33.178 15.8582 32.8724 16.3795 33.2152 16.5644C35.4495 17.7695 37.2812 19.5708 39.0244 21.3859C39.2942 21.6669 39.7214 21.2395 39.4519 20.9588V20.9588Z" fill="#302813"/>
<defs>
<radialGradient id="paint0_radial_204_710" cx="0" cy="0" r="1" gradientUnits="userSpaceOnUse" gradientTransform="translate(12.9646 17.8425) rotate(-111.051) scale(6.56954 3.84995)">
<stop stop-color="#E2DAC5"/>
<stop offset="0.09313" stop-color="#E2DAC5" stop-opacity="0.95675"/>
<stop offset="0.25035" stop-color="#E2DAC5" stop-opacity="0.83998"/>
<stop offset="0.45235" stop-color="#E2DAC5" stop-opacity="0.64995"/>
<stop offset="0.69133" stop-color="#E2DAC5" stop-opacity="0.38641"/>
<stop offset="0.95875" stop-color="#E2DAC5" stop-opacity="0.05422"/>
<stop offset="1" stop-color="#E2DAC5" stop-opacity="0"/>
</radialGradient>
<radialGradient id="paint1_radial_204_710" cx="0" cy="0" r="1" gradientUnits="userSpaceOnUse" gradientTransform="translate(32.4356 17.6891) rotate(-70.7775) scale(7.10129 4.3329)">
<stop stop-color="#E2DAC5"/>
<stop offset="0.09313" stop-color="#E2DAC5" stop-opacity="0.95675"/>
<stop offset="0.25035" stop-color="#E2DAC5" stop-opacity="0.83998"/>
<stop offset="0.45235" stop-color="#E2DAC5" stop-opacity="0.64995"/>
<stop offset="0.69133" stop-color="#E2DAC5" stop-opacity="0.38641"/>
<stop offset="0.95875" stop-color="#E2DAC5" stop-opacity="0.05422"/>
<stop offset="1" stop-color="#E2DAC5" stop-opacity="0"/>
</radialGradient>
<radialGradient id="paint2_radial_204_710" cx="0" cy="0" r="1" gradientUnits="userSpaceOnUse" gradientTransform="translate(23.6062 51.6124) rotate(180) scale(15.375 9.74914)">
<stop stop-color="#E2DAC5"/>
<stop offset="0.09313" stop-color="#E2DAC5" stop-opacity="0.95675"/>
<stop offset="0.25035" stop-color="#E2DAC5" stop-opacity="0.83998"/>
<stop offset="0.45235" stop-color="#E2DAC5" stop-opacity="0.64995"/>
<stop offset="0.69133" stop-color="#E2DAC5" stop-opacity="0.38641"/>
<stop offset="0.95875" stop-color="#E2DAC5" stop-opacity="0.05422"/>
<stop offset="1" stop-color="#E2DAC5" stop-opacity="0"/>
</radialGradient>
</defs>
</svg>
