<svg width="46" height="50" viewBox="0 0 46 50" fill="none" xmlns="http://www.w3.org/2000/svg">
<path d="M44.7725 27.8541C44.0566 25.9436 42.18 24.7355 40.7174 23.2295C39.8854 22.3728 39.1249 21.5862 38.4081 20.8604C38.4129 20.8423 38.4194 20.8262 38.4232 20.8071C39.5818 15.0572 40.6904 9.20327 39.6813 3.34397L39.6808 3.34121C39.6676 3.1995 39.6462 2.97162 39.6329 2.82991C39.6346 2.69753 39.6068 2.56643 39.5514 2.44613C39.5014 2.13961 39.4289 1.83718 39.3344 1.54131C39.2795 1.35936 39.1638 1.20173 39.0065 1.09478C38.9338 0.9986 38.8416 0.918804 38.7359 0.860593C38.6303 0.802382 38.5135 0.767064 38.3933 0.756939C38.2731 0.746814 38.1521 0.762109 38.0381 0.801828C37.9242 0.841548 37.8199 0.904799 37.7321 0.987462C36.5982 1.92814 35.6801 3.10728 34.736 4.23053C33.7373 5.41865 32.7724 6.63651 31.8898 7.91372C31.0837 9.08268 30.3961 10.3289 29.8373 11.634C29.5204 12.372 29.1478 13.2212 29.0633 14.0546C25.4412 12.6917 21.45 12.6707 17.8138 13.9955C17.5416 14.0928 17.2766 14.1979 17.0161 14.3078C16.9535 13.4522 16.5736 12.5748 16.2466 11.8132C15.6822 10.4934 14.9872 9.23312 14.172 8.05126C13.2924 6.77997 12.3315 5.56738 11.337 4.38429C10.3929 3.26105 9.47487 2.0819 8.3409 1.14123C8.25309 1.05856 8.14882 0.995301 8.0349 0.955579C7.92098 0.915857 7.79996 0.900561 7.67972 0.910686C7.55948 0.920812 7.44273 0.956132 7.33707 1.01435C7.23141 1.07256 7.13922 1.15236 7.0665 1.24855C6.90925 1.35549 6.79351 1.51312 6.73864 1.69508C6.64414 1.99094 6.57161 2.29336 6.52162 2.59988C6.46627 2.72018 6.43843 2.85129 6.44012 2.98368C6.42684 3.12538 6.40546 3.35327 6.39216 3.49497L6.3917 3.49773C5.38267 9.35703 6.49121 15.211 7.64981 20.9609C7.67078 21.0698 7.71447 21.173 7.77801 21.264C4.96079 24.2775 1.24342 26.4069 0.804927 30.1889C0.234517 35.1084 4.55033 40.3951 8.8609 42.5024C13.1477 44.5981 16.5207 48.2073 21.2635 49.1035C26.4285 50.0794 29.8501 46.3821 34.2835 43.906C37.705 41.9951 41.633 40.061 43.6054 36.4896C45.0754 33.8279 45.7315 30.4136 44.7725 27.8541Z" fill="#8C3EF2"/>
<path d="M45.5011 27.6524C44.916 26.1286 43.7667 25.0162 42.5785 23.9435C41.3076 22.7961 40.1444 21.5435 38.9424 20.3255L39.1368 21.0601C39.3191 20.4173 39.408 19.7316 39.5355 19.0757C39.6608 18.4305 39.7817 17.7845 39.898 17.1376C40.1403 15.7785 40.3528 14.4139 40.5177 13.0432C40.8659 10.413 40.9201 7.75236 40.6792 5.11026C40.6418 4.748 40.5962 4.38675 40.5464 4.02598C40.526 3.87853 40.5046 3.73125 40.482 3.58412C40.4694 3.50223 40.4564 3.4204 40.443 3.33863C40.435 3.2895 40.4267 3.2404 40.4183 3.19133C40.4027 3.09816 40.4067 3.12593 40.4303 3.27465C40.3838 3.2211 40.4014 2.97618 40.3947 2.89437C40.39 2.72268 40.3686 2.55185 40.3308 2.3843C40.2448 2.08345 40.1933 1.77308 40.1038 1.47143C40.0246 1.1596 39.8659 0.873575 39.6431 0.641235C39.5972 0.595785 39.3666 0.370444 39.4966 0.504925C39.4643 0.471507 39.4337 0.440317 39.3987 0.409174C39.236 0.263383 39.0455 0.151971 38.8386 0.0816387C38.1692 -0.148431 37.5626 0.137446 37.0599 0.568953C36.122 1.37407 35.3352 2.33386 34.5477 3.28106C33.7126 4.28547 32.8808 5.29033 32.098 6.33649C31.2372 7.46195 30.4733 8.65816 29.8144 9.91233C29.4788 10.5675 29.1828 11.2412 28.9005 11.9208C28.6025 12.5999 28.4028 13.3181 28.3076 14.0535L29.2642 13.3255C26.15 12.1749 22.7671 11.9589 19.5316 12.7043C18.6028 12.9178 17.694 13.2104 16.8151 13.5788L17.7717 14.3067C17.6573 12.9715 17.0581 11.7073 16.4809 10.5147C15.9297 9.38515 15.2847 8.30374 14.5527 7.28181C13.7844 6.20131 12.9621 5.15881 12.1141 4.13976C11.3037 3.16578 10.5134 2.16268 9.60897 1.27259C9.18015 0.850559 8.69934 0.327483 8.08971 0.195072C7.74102 0.118337 7.3767 0.15928 7.05379 0.31149C6.91544 0.375974 6.78749 0.460716 6.67418 0.562917C6.6492 0.585124 6.53561 0.745923 6.6325 0.633878C6.56373 0.713397 6.45702 0.765063 6.38289 0.842973C6.1577 1.10534 6.00233 1.42019 5.93115 1.7584C5.89064 1.90847 5.8557 2.05991 5.82634 2.2127C5.78672 2.41724 5.72005 2.60579 5.69812 2.81526C5.68612 2.92999 5.67849 3.04495 5.66769 3.15995C5.6616 3.22497 5.65329 3.2902 5.64935 3.35537C5.63442 3.60341 5.6888 3.15544 5.65453 3.34508C5.58663 3.72084 5.53647 4.10021 5.48625 4.47861C5.16099 7.17975 5.16158 9.91014 5.48802 12.6111C5.65498 14.1463 5.88808 15.674 6.15759 17.1943C6.28952 17.9385 6.42869 18.6813 6.57509 19.4228C6.65064 19.8094 6.72718 20.1958 6.80473 20.582C6.84354 20.953 6.95234 21.3134 7.12538 21.6439L7.24355 20.7291C5.52333 22.5621 3.4324 24.0494 1.87217 26.0317C1.09774 26.9641 0.53231 28.0514 0.213971 29.2205C-0.0729356 30.4913 -0.0712951 31.8103 0.218775 33.0804C0.762623 35.6593 2.27257 38.0091 4.08486 39.8861C4.98907 40.824 5.99757 41.6557 7.09074 42.3649C8.16653 43.0607 9.34839 43.572 10.4434 44.2381C12.6785 45.5976 14.7499 47.2283 17.0889 48.4152C19.5011 49.6393 22.1776 50.3605 24.8774 49.8157C27.3314 49.3204 29.4674 47.8894 31.5188 46.5293C32.6131 45.8038 33.7109 45.087 34.859 44.4486C35.943 43.8459 37.0352 43.2574 38.0982 42.6181C40.3284 41.2766 42.4771 39.6753 43.9046 37.4606C44.644 36.2906 45.1981 35.0136 45.5473 33.6747C45.928 32.3316 46.0555 30.9295 45.9233 29.5399C45.8587 28.8961 45.7169 28.2624 45.5011 27.6524C45.4433 27.4622 45.3146 27.3015 45.1416 27.2033C44.9686 27.1052 44.7645 27.0772 44.5714 27.1251C44.3791 27.1797 44.2159 27.3077 44.1172 27.4814C44.0184 27.6552 43.992 27.8607 44.0436 28.0537C44.479 29.2371 44.5452 30.3113 44.4114 31.6041C44.3836 31.8729 44.3462 32.1188 44.2786 32.4612C44.2139 32.7887 44.1362 33.1132 44.0456 33.4348C43.9548 33.758 43.8519 34.0775 43.7368 34.3933C43.6148 34.7284 43.5329 34.9296 43.4 35.2199C43.1377 35.8007 42.828 36.3589 42.4739 36.8889C42.389 37.0144 42.3015 37.138 42.2113 37.2599C42.2114 37.2597 42.0614 37.4569 42.1464 37.3475C42.1002 37.407 42.0528 37.4658 42.0051 37.5242C41.8146 37.7577 41.6153 37.9838 41.4073 38.2023C40.9896 38.6399 40.5451 39.051 40.0764 39.4334C39.8015 39.659 39.7195 39.7219 39.4474 39.922C39.2009 40.1033 38.9506 40.2794 38.6966 40.4502C36.6523 41.8298 34.4112 42.8751 32.3316 44.1956C31.283 44.8613 30.2622 45.5697 29.212 46.233C28.706 46.5525 28.1929 46.8615 27.6663 47.1464C27.4084 47.2859 27.1473 47.4196 26.8824 47.5455C26.7512 47.608 26.619 47.6684 26.4859 47.7269C26.4777 47.7304 26.2579 47.8224 26.4 47.7641C26.3332 47.7915 26.2662 47.8185 26.199 47.8449C25.663 48.0572 25.1103 48.2246 24.5464 48.3452C24.4044 48.375 24.2618 48.4014 24.1185 48.4245C24.1058 48.4265 23.8679 48.46 24.0303 48.439C23.9574 48.4484 23.8844 48.4566 23.8113 48.464C23.5138 48.4941 23.2149 48.5087 22.9158 48.5078C22.6051 48.5067 22.2948 48.4892 21.9859 48.4554C21.9884 48.4556 21.7295 48.4222 21.8685 48.4419C21.7877 48.4305 21.7072 48.4175 21.6268 48.4037C21.4661 48.3762 21.306 48.3446 21.1466 48.31C20.5249 48.1737 19.914 47.9921 19.3189 47.7666C17.1156 46.9369 14.9392 45.3753 12.8887 44.0125C11.8308 43.2907 10.7334 42.6287 9.60139 42.0296C9.07326 41.7582 8.54587 41.496 8.04165 41.1808C7.7874 41.0219 7.53816 40.8553 7.29395 40.681C7.16979 40.5926 7.04741 40.5018 6.92548 40.4103C6.89321 40.39 6.863 40.3666 6.83526 40.3405C6.7749 40.2923 6.71433 40.2445 6.65437 40.1959C5.67215 39.402 4.78445 38.4981 4.00872 37.5019C4.08607 37.6017 3.92857 37.3952 3.93414 37.4026C3.88663 37.3392 3.8396 37.2755 3.79304 37.2113C3.70012 37.0833 3.60916 36.9539 3.52017 36.8231C3.34319 36.5629 3.17456 36.2972 3.01428 36.0261C2.85586 35.7577 2.70661 35.4841 2.56654 35.2054C2.49731 35.0673 2.43057 34.928 2.36633 34.7875C2.33439 34.7175 2.30333 34.6472 2.27247 34.5768C2.25537 34.5441 2.24122 34.51 2.23019 34.4748C2.00581 33.9154 1.82581 33.3392 1.69184 32.7516C1.66018 32.607 1.63189 32.4617 1.60697 32.3157C1.59461 32.243 1.58313 32.1702 1.57251 32.0973C1.59615 32.2577 1.56336 32.0184 1.56203 32.0065C1.52938 31.7161 1.51194 31.4242 1.50981 31.1319C1.5077 30.8408 1.52197 30.5498 1.55256 30.2603C1.55415 30.2453 1.58817 30.0089 1.5621 30.1749C1.57313 30.1047 1.5845 30.0346 1.59751 29.9647C1.62317 29.827 1.65347 29.6902 1.68842 29.5543C1.75898 29.2884 1.84489 29.0267 1.94574 28.7706C2.02608 28.5619 1.8809 28.9019 1.97621 28.6998C2.00529 28.6381 2.03291 28.5759 2.06262 28.5145C2.12206 28.3917 2.18494 28.2706 2.25124 28.1512C2.38452 27.9108 2.53074 27.6777 2.68682 27.4514C2.76581 27.3368 2.84829 27.225 2.93102 27.1131C3.06756 26.9285 2.83937 27.2232 2.98451 27.0441C3.02893 26.9893 3.07276 26.9341 3.11761 26.8796C3.48817 26.4351 3.88136 26.0099 4.29564 25.6058C5.16412 24.7482 6.09023 23.9517 6.98089 23.1177C7.43739 22.6902 7.88435 22.2528 8.31235 21.7967C8.42821 21.6774 8.50233 21.5238 8.52363 21.3589C8.54493 21.1941 8.51226 21.0267 8.43051 20.8819C8.4254 20.874 8.35361 20.7106 8.38147 20.8019C8.41818 20.9222 8.35084 20.6234 8.35907 20.6628C8.32886 20.5184 8.30088 20.3735 8.27189 20.2288C8.2074 19.907 8.14343 19.5852 8.07998 19.2632C7.95633 18.6345 7.83636 18.0052 7.72007 17.3751C7.49928 16.1693 7.29 14.9304 7.13395 13.7335C6.77837 11.2214 6.67594 8.67995 6.82822 6.14739C6.87022 5.55804 6.929 4.95635 7.0116 4.38474C7.05454 4.08761 7.11317 3.79211 7.14784 3.49392C7.16223 3.37011 7.17118 3.24527 7.18282 3.12117C7.18715 3.07499 7.19147 3.02881 7.1958 2.98262C7.21128 2.8153 7.1656 2.99715 7.2223 2.86735C7.30677 2.59131 7.37499 2.31057 7.42658 2.02656C7.43559 1.99621 7.46742 1.81515 7.45029 1.93229L7.46831 1.90062C7.49703 1.85447 7.49149 1.85779 7.45168 1.9106L7.49852 1.86261C7.4222 1.91875 7.43081 1.91132 7.52436 1.84032C7.57499 1.79365 7.6229 1.74412 7.66786 1.69197C7.5959 1.75534 7.75199 1.64336 7.75679 1.64118C7.58744 1.718 7.76225 1.64801 7.76088 1.65431L7.68962 1.6645C7.76675 1.668 7.77747 1.66563 7.72181 1.65739C7.6092 1.62159 7.82507 1.68764 7.82105 1.68616C7.76765 1.66656 7.7499 1.63022 7.83551 1.70292C7.74216 1.62364 7.88881 1.74307 7.90998 1.7611C8.03576 1.86824 8.15909 1.97816 8.27998 2.09086C9.10711 2.90289 9.88219 3.76617 10.6006 4.67559C11.3571 5.58297 12.1055 6.48871 12.8031 7.43123C13.6015 8.49018 14.313 9.61189 14.9304 10.7854C15.0842 11.0838 15.2311 11.3856 15.371 11.6909C15.4917 11.9539 15.6359 12.2849 15.7243 12.4992C15.9862 13.0739 16.1667 13.6823 16.2603 14.3067C16.297 14.734 16.7238 15.2412 17.217 15.0347C20.0803 13.8145 23.2421 13.4721 26.3007 14.051C27.1728 14.2257 28.0294 14.4699 28.8624 14.7815C29.3699 14.9702 29.7691 14.494 29.819 14.0535C29.9129 13.5157 30.0706 12.991 30.2888 12.4905C30.4739 12.0332 30.7147 11.4917 30.9536 11.0051C31.4821 9.93723 32.0954 8.91335 32.7875 7.94331C33.468 6.98281 34.1838 6.0715 34.9354 5.16454C35.6791 4.26712 36.4099 3.35043 37.2163 2.50773C37.4032 2.31232 37.595 2.12138 37.793 1.93711C37.8919 1.84502 37.9925 1.75468 38.0946 1.66609C38.1483 1.61343 38.2058 1.56468 38.2664 1.52022C38.1624 1.58625 38.406 1.47599 38.2519 1.53241C38.2952 1.51696 38.3397 1.50519 38.385 1.49724C38.1916 1.53197 38.3875 1.50344 38.3833 1.51076L38.3121 1.50056C38.3842 1.52351 38.3954 1.52399 38.3457 1.50199C38.2654 1.43024 38.4294 1.55391 38.4298 1.55416C38.2705 1.43121 38.7367 1.82473 38.5998 1.72722C38.5022 1.6578 38.7096 1.83961 38.5866 1.71518L38.6227 1.77853C38.5945 1.71245 38.5981 1.72915 38.6333 1.82862C38.7036 2.09777 38.7473 2.3793 38.8227 2.64577C38.836 2.69301 38.8602 2.73779 38.8734 2.78567C38.8436 2.67782 38.8773 2.82279 38.8802 2.86161C38.8906 2.99924 38.9045 3.13739 38.919 3.27465C38.981 3.86398 39.0952 4.42866 39.1575 5.01209C39.3959 7.48973 39.3677 9.98575 39.0735 12.4574C38.9249 13.8255 38.7157 15.1767 38.475 16.542C38.3552 17.2217 38.2292 17.9002 38.0968 18.5775C37.9636 19.2656 37.8706 19.9845 37.6794 20.6587C37.6445 20.7874 37.6441 20.923 37.6782 21.0519C37.7123 21.1808 37.7797 21.2985 37.8737 21.3932C39.0379 22.5728 40.1611 23.7933 41.3919 24.9048C41.9346 25.3948 42.482 25.8827 42.9746 26.4241C43.1927 26.6527 43.3899 26.9003 43.5637 27.1641C43.6613 27.31 43.7528 27.4601 43.8364 27.6145C43.8845 27.7031 43.9271 27.794 43.9724 27.8838C44.0089 27.9665 44.014 27.9758 43.9879 27.9118C44.0072 27.9588 44.0259 28.0061 44.0437 28.0537C44.1018 28.2437 44.2305 28.4042 44.4034 28.5023C44.5763 28.6003 44.7803 28.6285 44.9733 28.581C45.3376 28.481 45.6481 28.0351 45.5011 27.6524Z" fill="#302813"/>
<path d="M6.39148 3.4973C6.39791 3.46106 6.40704 3.42534 6.41879 3.39045C6.4262 3.23717 6.43363 3.08387 6.44106 2.93057C6.44604 2.81603 6.47334 2.70356 6.52141 2.59945C6.5714 2.29293 6.64393 1.99051 6.73842 1.69465C6.79329 1.51269 6.90903 1.35506 7.06628 1.24812C7.139 1.15193 7.2312 1.07213 7.33686 1.01392C7.44251 0.955705 7.55926 0.920384 7.6795 0.910259C7.79974 0.900134 7.92076 0.91543 8.03468 0.955152C8.1486 0.994874 8.25287 1.05813 8.34069 1.1408C9.47465 2.08147 10.3927 3.26062 11.3368 4.38386C12.2828 5.5093 13.1985 6.66143 14.0427 7.8654C14.8912 9.06454 15.613 10.3483 16.1964 11.6962C16.716 12.9109 17.4304 14.4491 16.745 15.7228C16.6942 15.8276 16.6197 15.9192 16.5272 15.9902C16.4348 16.0612 16.327 16.1097 16.2125 16.1317C16.142 16.2171 16.0557 16.2881 15.9583 16.3407C13.5243 17.6896 10.9035 18.8756 9.1969 21.1625C8.80353 21.6896 7.80994 21.7562 7.64959 20.9605C6.49099 15.2105 5.38246 9.3566 6.39148 3.4973Z" fill="#8C3EF2"/>
<path d="M8.78872 8.39634C8.79268 8.37403 8.7983 8.35205 8.80553 8.33057L8.81926 8.04743C8.82233 7.97691 8.83912 7.90767 8.86871 7.84358C8.8995 7.65487 8.94415 7.46869 9.00232 7.28655C9.03611 7.17452 9.10736 7.07748 9.20417 7.01161C9.24894 6.9524 9.3057 6.90327 9.37075 6.86743C9.4358 6.8316 9.50768 6.80986 9.58171 6.80362C9.65573 6.79739 9.73024 6.80681 9.80037 6.83127C9.87051 6.85572 9.93471 6.89467 9.98877 6.94556C10.6869 7.52468 11.2521 8.25063 11.8333 8.94216C12.4157 9.63504 12.9795 10.3444 13.4992 11.0856C14.0216 11.8238 14.466 12.6142 14.8251 13.444C15.1451 14.1919 15.5849 15.1388 15.1629 15.923C15.1316 15.9875 15.0857 16.0439 15.0288 16.0876C14.9719 16.1313 14.9056 16.1612 14.8351 16.1748C14.7917 16.2273 14.7385 16.271 14.6785 16.3034C13.1801 17.1339 11.5666 17.864 10.5159 19.272C10.2737 19.5965 9.662 19.6375 9.56327 19.1476C8.84999 15.6076 8.16753 12.0036 8.78872 8.39634Z" fill="#FFFBF0"/>
<path d="M39.6813 3.34397C39.6748 3.30773 39.6657 3.27202 39.654 3.23713C39.6465 3.08383 39.6391 2.93053 39.6317 2.77723C39.6267 2.6627 39.5994 2.55024 39.5513 2.44613C39.5013 2.13961 39.4288 1.83719 39.3343 1.54131C39.2794 1.35936 39.1637 1.20173 39.0065 1.09478C38.9337 0.9986 38.8415 0.918804 38.7359 0.860593C38.6302 0.802382 38.5135 0.767064 38.3932 0.756939C38.273 0.746814 38.152 0.762109 38.0381 0.801828C37.9241 0.841548 37.8199 0.904799 37.732 0.987463C36.5981 1.92814 35.6801 3.10728 34.7359 4.23053C33.79 5.35597 32.8743 6.5081 32.0301 7.71207C31.1815 8.91121 30.4598 10.195 29.8763 11.5429C29.3567 12.7576 28.6423 14.2958 29.3277 15.5694C29.3785 15.6743 29.4531 15.7659 29.5455 15.8369C29.638 15.9079 29.7457 15.9563 29.8602 15.9784C29.9307 16.0638 30.017 16.1347 30.1145 16.1874C32.5484 17.5363 35.1692 18.7223 36.8758 21.0091C37.2692 21.5363 38.2628 21.6029 38.4232 20.8071C39.5817 15.0572 40.6903 9.20327 39.6813 3.34397Z" fill="#8C3EF2"/>
<path d="M36.9366 8.39634C36.9327 8.37403 36.9271 8.35205 36.9198 8.33057L36.9061 8.04743C36.903 7.97691 36.8862 7.90767 36.8567 7.84358C36.8259 7.65487 36.7812 7.46869 36.723 7.28655C36.6893 7.17452 36.618 7.07747 36.5212 7.01161C36.4764 6.9524 36.4197 6.90327 36.3546 6.86743C36.2896 6.8316 36.2177 6.80986 36.1437 6.80362C36.0696 6.79739 35.9951 6.80681 35.925 6.83127C35.8548 6.85572 35.7907 6.89467 35.7366 6.94556C35.0385 7.52468 34.4733 8.25063 33.892 8.94216C33.3096 9.63504 32.7459 10.3444 32.2262 11.0856C31.7038 11.8238 31.2594 12.6142 30.9002 13.444C30.5803 14.1919 30.1405 15.1388 30.5625 15.923C30.5937 15.9875 30.6396 16.0439 30.6965 16.0876C30.7535 16.1313 30.8198 16.1612 30.8903 16.1748C30.9337 16.2273 30.9868 16.271 31.0468 16.3034C32.5453 17.1339 34.1588 17.864 35.2095 19.272C35.4517 19.5965 36.0634 19.6375 36.1621 19.1476C36.8754 15.6076 37.5578 12.0036 36.9366 8.39634Z" fill="#FFFBF0"/>
<path opacity="0.84" d="M8.78872 8.39634C8.79268 8.37403 8.7983 8.35205 8.80553 8.33057L8.81926 8.04743C8.82233 7.97691 8.83912 7.90767 8.86871 7.84358C8.8995 7.65487 8.94415 7.46869 9.00232 7.28655C9.03611 7.17452 9.10736 7.07748 9.20417 7.01161C9.24894 6.9524 9.3057 6.90327 9.37075 6.86743C9.4358 6.8316 9.50768 6.80986 9.58171 6.80362C9.65573 6.79739 9.73024 6.80681 9.80037 6.83127C9.87051 6.85572 9.93471 6.89467 9.98877 6.94556C10.6869 7.52468 11.2521 8.25063 11.8333 8.94216C12.4157 9.63504 12.9795 10.3444 13.4992 11.0856C14.0216 11.8238 14.466 12.6142 14.8251 13.444C15.1451 14.1919 15.5849 15.1388 15.1629 15.923C15.1316 15.9875 15.0857 16.0439 15.0288 16.0876C14.9719 16.1313 14.9056 16.1612 14.8351 16.1748C14.7917 16.2273 14.7385 16.271 14.6785 16.3034C13.1801 17.1339 11.5666 17.864 10.5159 19.272C10.2737 19.5965 9.662 19.6375 9.56327 19.1476C8.84999 15.6076 8.16753 12.0036 8.78872 8.39634Z" fill="url(#paint0_radial_204_804)"/>
<path opacity="0.84" d="M36.9366 8.39634C36.9327 8.37403 36.9271 8.35205 36.9198 8.33057L36.9061 8.04743C36.903 7.97691 36.8862 7.90767 36.8567 7.84358C36.8259 7.65487 36.7812 7.46869 36.723 7.28655C36.6893 7.17452 36.618 7.07747 36.5212 7.01161C36.4764 6.9524 36.4197 6.90327 36.3546 6.86743C36.2896 6.8316 36.2177 6.80986 36.1437 6.80362C36.0696 6.79739 35.9951 6.80681 35.925 6.83127C35.8548 6.85572 35.7907 6.89467 35.7366 6.94556C35.0385 7.52468 34.4733 8.25063 33.892 8.94216C33.3096 9.63504 32.7459 10.3444 32.2262 11.0856C31.7038 11.8238 31.2594 12.6142 30.9002 13.444C30.5803 14.1919 30.1405 15.1388 30.5625 15.923C30.5937 15.9875 30.6396 16.0439 30.6965 16.0876C30.7535 16.1313 30.8198 16.1612 30.8903 16.1748C30.9337 16.2273 30.9868 16.271 31.0468 16.3034C32.5453 17.1339 34.1588 17.864 35.2095 19.272C35.4517 19.5965 36.0634 19.6375 36.1621 19.1476C36.8754 15.6076 37.5578 12.0036 36.9366 8.39634Z" fill="url(#paint1_radial_204_804)"/>
<path d="M44.7725 27.8531C44.0566 25.9426 42.1801 24.7345 40.7175 23.2285C36.9048 19.3029 34.5931 16.847 31.1195 14.9852C29.0988 13.8871 26.8673 13.2308 24.5733 13.06C22.2793 12.8891 19.9752 13.2077 17.8138 13.9944C13.8282 15.4195 10.905 17.9858 8.03427 21.0324C4.85823 24.403 1.23796 26.479 0.785989 30.3771C0.215597 35.2965 4.55039 40.2916 8.86096 42.5014C13.107 44.6782 16.5207 48.2063 21.2636 49.1025C26.4285 50.0784 29.8501 46.3811 34.2836 43.905C37.7051 41.9941 41.6331 40.06 43.6055 36.4886C45.0754 33.8269 45.7315 30.4126 44.7725 27.8531Z" fill="#8C3EF2"/>
<path d="M8.86083 42.502C13.0817 44.7272 16.5206 48.2069 21.2634 49.1031C26.4284 50.079 29.85 46.3817 34.2835 43.9056C37.705 41.9947 41.633 40.0607 43.6054 36.4892C43.7469 36.2329 43.8741 35.9758 43.9868 35.7179C44.6188 33.6622 45.1359 30.7171 44.0318 28.8344C42.724 26.6041 39.2476 25.4542 36.5713 25.6474C34.0706 25.8279 32.5629 26.3454 30.3065 27.3484C29.6745 27.6293 29.0696 27.964 28.4551 28.28C27.6143 28.5397 26.7509 28.72 25.9025 28.9597C25.0085 29.2122 24.1495 29.5462 23.2576 29.7813C22.9802 29.7852 22.7032 29.7779 22.4258 29.7622C20.4424 29.365 18.4966 28.7996 16.6095 28.0721C14.9712 27.2585 13.3702 26.1717 11.5645 25.9137C10.8757 25.8213 10.1869 25.7288 9.49814 25.6363C8.11921 25.6342 6.76476 26.0002 5.57497 26.6965C3.83738 27.7133 2.26202 29.0487 1.72756 30.9896C1.42508 32.1516 1.3729 33.3645 1.57446 34.5481C2.57566 37.6782 4.96073 40.4459 8.86083 42.502Z" fill="#FFFBF0"/>
<path opacity="0.38" d="M8.86089 42.502C13.071 44.7473 16.5207 48.2069 21.2635 49.1031C26.4285 50.079 29.8501 46.3817 34.2835 43.9056C37.705 41.9947 41.633 40.0607 43.6054 36.4892C43.7469 36.2329 43.8741 35.9758 43.9869 35.7179C44.6188 33.6622 45.1359 30.7171 44.0319 28.8344C42.724 26.6041 39.2477 25.4542 36.5713 25.6474C34.0706 25.8279 32.5629 26.3454 30.3065 27.3484C29.6746 27.6293 29.0696 27.964 28.4551 28.28C27.6143 28.5397 26.7509 28.72 25.9025 28.9597C25.0085 29.2122 24.1495 29.5462 23.2576 29.7813C22.9803 29.7852 22.7032 29.7779 22.4258 29.7622C20.4425 29.365 18.4967 28.7996 16.6095 28.0721C14.9712 27.2585 13.3703 26.1717 11.5646 25.9137C10.8758 25.8213 10.187 25.7288 9.4982 25.6363C8.11927 25.6342 6.76481 26.0002 5.57502 26.6965C4.20294 27.4955 3.10954 28.6961 2.44266 30.1359C1.77578 31.5758 1.56759 33.1855 1.84623 34.7475C2.93697 37.9808 4.90948 40.3947 8.86089 42.502Z" fill="url(#paint2_radial_204_804)"/>
<path d="M11.9675 32.1331C13.3233 33.6656 14.7169 35.2104 16.0793 36.7224C17.3637 38.148 17.8611 40.2223 19.2948 41.5375C20.5348 42.675 22.2227 43.4465 23.8874 43.1957C25.2383 42.9922 26.4231 42.1408 27.2999 41.0943C28.5543 39.597 29.3324 37.7463 30.4653 36.1555C31.6448 34.4993 32.5323 33.2013 33.9597 31.7539" fill="#9B3118"/>
<path d="M11.7538 32.3462C12.5894 33.2905 13.4293 34.2309 14.2735 35.1675C15.0332 36.0125 15.8855 36.8232 16.5002 37.7835C17.026 38.6049 17.4262 39.4984 17.9417 40.3259C18.4643 41.178 19.1632 41.9086 19.9916 42.4689C20.8547 43.0689 21.8589 43.435 22.906 43.5316C23.9323 43.5951 24.9527 43.3341 25.8221 42.7855C27.6828 41.6453 28.694 39.6426 29.7624 37.8232C30.4028 36.7653 31.0961 35.7403 31.8394 34.7519C32.5489 33.7684 33.329 32.8376 34.1736 31.967C34.4463 31.6894 34.0191 31.262 33.7461 31.54C33.017 32.2884 32.3368 33.0829 31.7099 33.9186C31.0715 34.7624 30.4379 35.6227 29.86 36.5091C28.7229 38.2531 27.8949 40.2922 26.2975 41.6887C25.5626 42.3664 24.6341 42.7979 23.6418 42.923C22.6187 42.9918 21.5992 42.7439 20.7223 42.2129C19.873 41.7319 19.1489 41.0582 18.6082 40.2461C18.0908 39.4644 17.6998 38.6093 17.2223 37.8042C16.61 36.7718 15.766 35.9242 14.9673 35.0365C14.0351 34.0006 13.1064 32.9614 12.1813 31.9191C11.9231 31.6274 11.4969 32.0558 11.7538 32.3462H11.7538Z" fill="#302813"/>
<path d="M29.0462 38.1479C26.6525 36.4941 23.0656 37.9935 23.0656 37.9935C23.0656 37.9935 20.4739 36.3133 17.2056 38.3854C17.8223 39.4985 18.3596 40.6788 19.2947 41.5367C20.5347 42.6742 22.2227 43.4458 23.8874 43.1949C25.2382 42.9914 26.4231 42.1401 27.2999 41.0935C28.0399 40.2102 28.6141 39.2039 29.1932 38.2005C29.1423 38.1887 29.093 38.171 29.0462 38.1479V38.1479Z" fill="#C9502B"/>
<path d="M29.1987 37.8872C28.0227 37.0911 26.5548 36.9617 25.1791 37.1457C24.4268 37.2358 23.6893 37.423 22.9852 37.7025L23.2181 37.7329C22.6574 37.4013 22.0336 37.1902 21.3865 37.1132C19.8564 36.892 18.3521 37.3124 17.053 38.1247C16.985 38.1663 16.9357 38.2325 16.9155 38.3095C16.8953 38.3865 16.9057 38.4684 16.9445 38.5379C17.4861 39.5194 17.973 40.5479 18.727 41.3909C19.4597 42.1932 20.3724 42.8106 21.3901 43.1925C22.4109 43.5947 23.5362 43.6481 24.5906 43.3444C25.5868 43.0168 26.4823 42.4395 27.1916 41.6677C28.1182 40.6951 28.7874 39.5086 29.4542 38.353C29.4769 38.3129 29.4902 38.2682 29.4931 38.2223C29.496 38.1763 29.4885 38.1303 29.4712 38.0876C29.4538 38.045 29.427 38.0068 29.3928 37.9759C29.3586 37.9451 29.3178 37.9223 29.2735 37.9094L29.1987 37.8872C28.845 37.7359 28.5366 38.256 28.8936 38.4087C28.965 38.4407 29.0382 38.4684 29.1128 38.4918L28.9322 38.0482C27.9105 39.8187 26.8019 41.8172 24.8053 42.6295C22.8784 43.4134 20.7221 42.5659 19.3266 41.1475C18.5116 40.3192 18.021 39.2379 17.4665 38.2331L17.3581 38.6462C18.9344 37.6606 20.9605 37.294 22.6464 38.1101C22.7366 38.1538 22.8219 38.2139 22.913 38.2544C23.1027 38.3386 23.253 38.2404 23.4318 38.1782C24.1106 37.9388 24.8155 37.7811 25.5317 37.7083C26.7007 37.5962 27.9025 37.7378 28.8936 38.4087C29.2165 38.6273 29.5194 38.1043 29.1987 37.8872Z" fill="#302813"/>
<path d="M32.791 23.4862C32.7272 22.9189 32.3092 22.6002 31.7186 22.6708C29.6561 22.9175 29.0455 26.3771 30.8534 26.5688C32.1539 26.7067 32.909 24.5343 32.791 23.4862Z" fill="#513B09"/>
<path d="M33.0934 23.4858C33.0225 22.9561 32.716 22.4926 32.1599 22.3874C31.6969 22.3174 31.224 22.4145 30.8262 22.6613C30.4935 22.873 30.2079 23.1507 29.9872 23.4773C29.7665 23.8039 29.6154 24.1724 29.5433 24.5598C29.4081 25.2337 29.4712 26.0671 30.0357 26.5402C30.7082 27.1039 31.6366 26.8931 32.183 26.2665C32.8347 25.4919 33.1609 24.4954 33.0934 23.4858C33.0912 23.4064 33.0586 23.3309 33.0024 23.2747C32.9462 23.2186 32.8706 23.1861 32.7911 23.1839C32.7111 23.1844 32.6345 23.2164 32.5779 23.2729C32.5214 23.3294 32.4894 23.4059 32.4888 23.4858C32.5347 24.1831 32.3667 24.8777 32.0073 25.4771C31.8562 25.7689 31.6263 26.0124 31.3435 26.18C31.2288 26.2404 31.1011 26.2722 30.9714 26.2727C30.8545 26.2695 30.739 26.2474 30.6292 26.2074C30.5289 26.1665 30.4383 26.105 30.3633 26.0269C30.2882 25.9487 30.2305 25.8557 30.1938 25.7539C30.211 25.7922 30.1772 25.71 30.173 25.6978C30.1628 25.6682 30.1534 25.6384 30.1448 25.6082C30.1258 25.5412 30.1109 25.4732 30.1001 25.4044C30.1059 25.442 30.0953 25.3645 30.0944 25.3535C30.0914 25.3199 30.089 25.2863 30.0874 25.2527C30.0839 25.1782 30.0844 25.1035 30.0881 25.0289C30.1219 24.4379 30.3682 23.8789 30.7817 23.4548C31.0161 23.2176 31.3155 23.0548 31.6423 22.9871C32.0315 22.9071 32.43 23.0467 32.4888 23.4858C32.4913 23.5651 32.524 23.6405 32.5801 23.6966C32.6363 23.7527 32.7117 23.7853 32.7911 23.7878C32.9376 23.7878 33.1152 23.6487 33.0934 23.4858Z" fill="#302813"/>
<path d="M14.427 22.6609C14.0511 22.4321 13.3862 22.2621 12.9479 22.6609C12.2295 23.3145 12.8997 25.0843 13.4202 25.6355C13.8812 26.1236 14.6684 26.4501 15.2141 26.0588C15.6003 25.7819 15.7088 25.2454 15.6502 24.7742C15.5786 24.1981 15.5546 23.3475 14.427 22.6609Z" fill="#513B09"/>
<path d="M14.5795 22.4006C14.2072 22.1703 13.7648 22.0804 13.332 22.1468C13.1277 22.1861 12.9371 22.2779 12.7791 22.4131C12.6211 22.5483 12.5011 22.7224 12.4309 22.918C12.158 23.6329 12.4413 24.5218 12.7604 25.1738C13.1143 25.8969 13.8107 26.542 14.6637 26.5344C14.8964 26.5335 15.1243 26.468 15.322 26.3453C15.5197 26.2226 15.6793 26.0474 15.7831 25.8393C15.9539 25.4509 16.0058 25.0207 15.9324 24.6029C15.9013 24.2286 15.8079 23.8621 15.6559 23.5185C15.4112 23.051 15.0377 22.6631 14.5795 22.4006C14.2481 22.1949 13.9442 22.7171 14.2744 22.922C14.5456 23.0762 14.7785 23.2893 14.9561 23.5456C15.1336 23.8019 15.2512 24.0948 15.3002 24.4026C15.3132 24.4802 15.3123 24.4768 15.3187 24.5274C15.3255 24.5817 15.3315 24.6361 15.3379 24.6905C15.3621 24.8536 15.3678 25.019 15.3548 25.1834C15.3514 25.3348 15.305 25.4821 15.221 25.6082C15.137 25.7342 15.0189 25.8338 14.8804 25.8955C14.569 26.0033 14.222 25.8629 13.9601 25.6954C13.7237 25.5462 13.5306 25.3376 13.4001 25.0906C13.0934 24.5911 12.9336 24.0154 12.9392 23.4294C12.9316 23.2986 12.9617 23.1684 13.0257 23.0542C13.0898 22.9399 13.1852 22.8464 13.3008 22.7845C13.6113 22.6412 13.9966 22.7578 14.2744 22.922C14.3434 22.9593 14.4242 22.9682 14.4998 22.9471C14.5753 22.9259 14.6396 22.8762 14.6792 22.8086C14.7188 22.7409 14.7305 22.6606 14.7119 22.5844C14.6933 22.5083 14.6459 22.4424 14.5795 22.4006V22.4006Z" fill="#302813"/>
<path d="M32.2551 20.6756C32.4013 20.4825 32.4859 20.2499 32.498 20.0082C32.51 19.7664 32.4491 19.5266 32.323 19.3199C32.2973 19.188 32.2416 19.0638 32.1601 18.9569C31.6687 18.298 30.6519 17.7271 29.8088 17.9819C28.5789 18.3536 28.8933 19.7775 29.6041 20.4916C30.2669 21.1574 31.5797 21.5707 32.2551 20.6756Z" fill="#FFFBF0"/>
<path d="M15.428 18.1971C15.0584 18.2916 14.5025 18.4426 14.2145 18.7089C14.0495 18.8426 13.9238 19.0184 13.8509 19.2177C13.7779 19.417 13.7604 19.6323 13.8002 19.8408C13.7913 20.1785 13.9063 20.5078 14.1237 20.7665C14.4748 21.2124 15.1168 21.2744 15.6334 21.1942C16.5018 21.0594 17.5655 20.3337 17.6426 19.395C17.7382 18.2304 16.2703 17.9816 15.428 18.1971Z" fill="#FFFBF0"/>
<path d="M11.0426 31.7533C12.9434 32.2088 13.9196 34.3101 15.5482 35.3901C16.5345 36.0442 17.7362 36.3 18.9177 36.374C19.5423 36.4301 20.1718 36.3875 20.7831 36.2478C21.9859 35.9372 22.7595 35.3 23.2021 34.1404C23.4644 34.9839 23.9971 35.7228 24.8077 36.0757C25.634 36.3979 26.5167 36.5506 27.4034 36.5248C28.1555 36.5309 28.9268 36.4766 29.6143 36.1716C31.6753 35.2573 32.3467 32.4441 34.3995 31.5117" fill="#FFFBF0"/>
<path d="M10.9623 32.0441C11.8427 32.2653 12.5202 32.8616 13.1354 33.5002C13.7784 34.1679 14.3723 34.8865 15.1147 35.4498C16.0082 36.0886 17.0525 36.4846 18.1452 36.5991C19.2694 36.7501 20.4444 36.7656 21.508 36.3228C21.9669 36.1292 22.3805 35.8423 22.7224 35.4803C23.0642 35.1183 23.3269 34.6892 23.4937 34.2203H22.9107C23.2122 35.1589 23.812 35.9797 24.7393 36.3717C25.8106 36.8245 27.07 36.8951 28.2184 36.8006C29.2098 36.7421 30.1507 36.3441 30.8827 35.6735C31.5149 35.0898 31.9988 34.3656 32.5076 33.6778C33.0674 32.9211 33.6811 32.1779 34.5521 31.7721C34.9044 31.6079 34.5978 31.0871 34.247 31.2506C32.7672 31.9401 32.0176 33.4673 31.0102 34.6595C30.4731 35.2952 29.8448 35.8365 29.0259 36.0589C28.4951 36.1871 27.9492 36.2421 27.4034 36.2224C26.8496 36.2278 26.2969 36.1742 25.7544 36.0626C25.2213 35.9902 24.7218 35.7611 24.3192 35.4045C23.9167 35.0479 23.6293 34.5798 23.4937 34.0597C23.4743 33.9976 23.4356 33.9432 23.3832 33.9047C23.3307 33.8661 23.2673 33.8453 23.2022 33.8453C23.137 33.8453 23.0736 33.8661 23.0212 33.9047C22.9687 33.9432 22.93 33.9976 22.9107 34.0597C22.7728 34.4378 22.5589 34.7836 22.2822 35.076C22.0055 35.3683 21.6717 35.6009 21.3016 35.7595C20.3111 36.1781 19.1789 36.1466 18.1334 35.9927C17.108 35.8738 16.1346 35.4774 15.3182 34.8464C14.6467 34.2945 14.0951 33.6177 13.49 32.9979C12.8233 32.3151 12.067 31.6989 11.123 31.4617C10.7456 31.3669 10.5846 31.9492 10.9623 32.0441H10.9623Z" fill="#302813"/>
<path d="M19.6249 46.426C20.8568 46.9796 22.1496 47.477 23.5164 47.5198C24.7208 47.5862 25.9059 47.1961 26.8349 46.4276C27.1289 46.1719 26.6998 45.7463 26.4074 46.0006C24.5556 47.611 21.9036 46.7913 19.93 45.9046C19.5781 45.7464 19.2703 46.2667 19.6249 46.426V46.426Z" fill="#E2DAC5"/>
<path d="M14.7091 23.4297C14.1136 23.4297 14.1136 24.3523 14.7091 24.3523C15.3047 24.3523 15.3047 23.4297 14.7091 23.4297Z" fill="white"/>
<path d="M32.1534 23.7373C31.5578 23.7373 31.5578 24.6599 32.1534 24.6599C32.7489 24.6599 32.7489 23.7373 32.1534 23.7373Z" fill="white"/>
<path d="M7.27797 21.7723C9.20078 19.9096 11.4643 18.4442 13.4875 16.698C13.7824 16.4434 13.3532 16.0179 13.06 16.2709C11.0368 18.0172 8.77328 19.4826 6.85047 21.3452C6.57066 21.6163 6.99839 22.0431 7.27797 21.7723Z" fill="#302813"/>
<path d="M39.7774 21.3455C37.8982 19.3882 35.9324 17.3452 33.5204 16.0429C33.1781 15.8581 32.8725 16.3794 33.2153 16.5644C35.5834 17.8429 37.5051 19.851 39.3499 21.7726C39.6197 22.0536 40.0468 21.6262 39.7774 21.3455V21.3455Z" fill="#302813"/>
<path d="M28.3192 30.076C28.6189 29.4795 28.5106 26.4995 25.192 26.6602C23.3683 26.7485 21.5075 26.5182 19.2461 26.7379C17.8363 26.9612 16.6034 28.4811 17.0991 29.9095C17.8077 31.9506 21.6611 34.2076 23.0478 34.1128C24.6588 34.0026 27.468 31.7705 28.3192 30.076Z" fill="#302813"/>
<defs>
<radialGradient id="paint0_radial_204_804" cx="0" cy="0" r="1" gradientUnits="userSpaceOnUse" gradientTransform="translate(12.9646 17.8423) rotate(-111.051) scale(6.56954 3.84995)">
<stop stop-color="#E2DAC5"/>
<stop offset="0.09313" stop-color="#E2DAC5" stop-opacity="0.95675"/>
<stop offset="0.25035" stop-color="#E2DAC5" stop-opacity="0.83998"/>
<stop offset="0.45235" stop-color="#E2DAC5" stop-opacity="0.64995"/>
<stop offset="0.69133" stop-color="#E2DAC5" stop-opacity="0.38641"/>
<stop offset="0.95875" stop-color="#E2DAC5" stop-opacity="0.05422"/>
<stop offset="1" stop-color="#E2DAC5" stop-opacity="0"/>
</radialGradient>
<radialGradient id="paint1_radial_204_804" cx="0" cy="0" r="1" gradientUnits="userSpaceOnUse" gradientTransform="translate(32.4354 17.6893) rotate(-70.7775) scale(7.10129 4.33291)">
<stop stop-color="#E2DAC5"/>
<stop offset="0.09313" stop-color="#E2DAC5" stop-opacity="0.95675"/>
<stop offset="0.25035" stop-color="#E2DAC5" stop-opacity="0.83998"/>
<stop offset="0.45235" stop-color="#E2DAC5" stop-opacity="0.64995"/>
<stop offset="0.69133" stop-color="#E2DAC5" stop-opacity="0.38641"/>
<stop offset="0.95875" stop-color="#E2DAC5" stop-opacity="0.05422"/>
<stop offset="1" stop-color="#E2DAC5" stop-opacity="0"/>
</radialGradient>
<radialGradient id="paint2_radial_204_804" cx="0" cy="0" r="1" gradientUnits="userSpaceOnUse" gradientTransform="translate(23.6063 51.6124) rotate(180) scale(15.375 9.74914)">
<stop stop-color="#E2DAC5"/>
<stop offset="0.09313" stop-color="#E2DAC5" stop-opacity="0.95675"/>
<stop offset="0.25035" stop-color="#E2DAC5" stop-opacity="0.83998"/>
<stop offset="0.45235" stop-color="#E2DAC5" stop-opacity="0.64995"/>
<stop offset="0.69133" stop-color="#E2DAC5" stop-opacity="0.38641"/>
<stop offset="0.95875" stop-color="#E2DAC5" stop-opacity="0.05422"/>
<stop offset="1" stop-color="#E2DAC5" stop-opacity="0"/>
</radialGradient>
</defs>
</svg>
