<svg width="46" height="50" viewBox="0 0 46 50" fill="none" xmlns="http://www.w3.org/2000/svg">
<path d="M44.766 28.7633C44.0502 26.8531 42.174 25.6452 40.7116 24.1395C39.8797 23.2829 39.1193 22.4964 38.4027 21.7707C38.4075 21.7527 38.414 21.7365 38.4178 21.7175C39.5762 15.9685 40.6845 9.19847 39.6757 3.34013L39.6752 3.33737C39.6619 3.19569 39.6406 2.96785 39.6273 2.82617C39.629 2.6938 39.6011 2.56271 39.5458 2.44242C39.4958 2.13596 39.4233 1.83359 39.3288 1.53778C39.2739 1.35585 39.1582 1.19825 39.001 1.09132C38.9283 0.995149 38.8361 0.91536 38.7305 0.857158C38.6248 0.798955 38.5081 0.763644 38.3879 0.75352C38.2677 0.743397 38.1467 0.75869 38.0328 0.798404C37.9189 0.838119 37.8146 0.901361 37.7268 0.984014C36.593 1.92453 35.6752 3.10349 34.7312 4.22655C33.7327 5.41448 32.768 6.63213 31.8854 7.90913C31.0795 9.0779 30.392 10.324 29.8333 11.6288C29.5165 12.3667 29.1439 13.2157 29.0595 14.049C25.4379 12.6863 21.4474 12.6653 17.8117 13.9899C17.5396 14.0872 17.2747 14.1922 17.0142 14.3021C16.9516 13.4467 16.5717 12.5694 16.2448 11.808C15.6805 10.4884 14.9857 9.22831 14.1706 8.04664C13.2911 6.77557 12.3303 5.56318 11.3361 4.38028C10.3921 3.25722 9.47422 2.07827 8.34044 1.13776C8.25264 1.0551 8.14839 0.991856 8.03449 0.95214C7.92059 0.912424 7.79959 0.897127 7.67937 0.90725C7.55915 0.917374 7.44242 0.95269 7.33678 1.01089C7.23114 1.0691 7.13896 1.14888 7.06625 1.24505C6.90902 1.35198 6.7933 1.50959 6.73844 1.69151C6.64396 1.98733 6.57145 2.2897 6.52146 2.59616C6.46612 2.71645 6.43828 2.84753 6.43998 2.9799C6.4267 3.12158 6.40532 3.34943 6.39202 3.49111L6.39156 3.49385C5.3827 9.3522 6.49106 15.893 7.64946 21.6419C7.67043 21.7508 7.7141 21.8541 7.77765 21.945C4.96089 24.958 1.24413 27.0871 0.805712 30.8685C0.235397 35.7871 4.5505 40.8437 8.86035 42.9506C13.1464 45.046 16.5189 48.1961 21.2609 49.0921C26.425 50.0678 29.8461 46.3712 34.2788 43.8955C37.6997 41.9849 41.6271 40.9682 43.5991 37.3973C45.0688 34.7361 45.7248 31.3224 44.766 28.7633Z" fill="#8C3EF2"/>
<path d="M45.4948 28.5623C44.9097 27.0387 43.7606 25.9266 42.5726 24.854C41.3019 23.7068 40.1389 22.4544 38.9371 21.2367L39.1315 21.9711C39.3014 21.372 39.3827 20.7327 39.4988 20.1209C39.6183 19.4908 39.7328 18.8597 39.8422 18.2277C40.0739 16.8825 40.2767 15.5322 40.4413 14.1771C40.7861 11.5735 40.8955 8.94424 40.7681 6.32107C40.7295 5.67147 40.6705 5.02298 40.5873 4.37754C40.5451 4.05006 40.4999 3.72291 40.4474 3.3969C40.4338 3.31252 40.4106 3.22427 40.4045 3.13912C40.4064 3.16564 40.4298 3.38781 40.418 3.1985C40.4084 3.04579 40.3927 2.89214 40.3797 2.73969C40.3343 2.38502 40.2608 2.03451 40.1598 1.69147C40.0911 1.32105 39.9274 0.974779 39.6846 0.686519C39.6532 0.653509 39.622 0.625128 39.588 0.59548L39.435 0.477457C39.5077 0.518169 39.5106 0.50968 39.4438 0.45199C39.3418 0.335657 39.2155 0.243173 39.0737 0.181103C38.7366 0.00654654 38.3487 -0.0438539 37.9781 0.0387368C37.3188 0.180596 36.7884 0.782098 36.3314 1.24337C35.865 1.71413 35.4312 2.2157 35.0055 2.72302C34.1235 3.77406 33.2441 4.82715 32.4094 5.91633C31.4824 7.09369 30.656 8.34664 29.9388 9.66202C29.5958 10.3106 29.294 10.9775 29.008 11.6527C28.6576 12.4128 28.4205 13.22 28.3041 14.0486L29.2605 13.3208C26.1469 12.1703 22.7645 11.9544 19.5296 12.6996C18.6009 12.9131 17.6922 13.2056 16.8135 13.5739L17.77 14.3018C17.6507 12.9111 17.0102 11.5827 16.3989 10.3459C15.806 9.1646 15.1141 8.0355 14.3307 6.97069C13.5163 5.84875 12.6442 4.77164 11.7551 3.70842C10.9167 2.70597 10.0984 1.67574 9.11458 0.808823C8.58364 0.340996 7.96244 -0.0175451 7.2343 0.232762C7.08874 0.28154 6.95146 0.352162 6.82717 0.442211C6.73684 0.505184 6.65284 0.576776 6.57636 0.655972C6.69334 0.532034 6.51311 0.716122 6.45476 0.770733C6.18973 1.04233 6.0081 1.38406 5.93135 1.75552C5.85523 2.03751 5.78505 2.32728 5.72536 2.61155C5.69788 2.77924 5.67993 2.94834 5.67159 3.11806C5.66428 3.19592 5.65432 3.27416 5.64962 3.35222C5.6358 3.58166 5.68958 3.14075 5.6481 3.3812C5.52941 4.06929 5.44207 4.76442 5.3764 5.45948C5.15782 8.12006 5.21235 10.796 5.53912 13.4455C5.70934 14.9766 5.9358 16.5015 6.198 18.0195C6.32233 18.7393 6.4538 19.4579 6.59242 20.1752C6.66012 20.5279 6.72901 20.8804 6.79908 21.2327C6.87296 21.6047 6.91513 21.9997 7.12541 22.3256L7.24356 21.4109C5.55523 23.21 3.51097 24.674 1.96056 26.6024C1.17651 27.5269 0.593873 28.6044 0.24978 29.7662C-0.0610893 31.0184 -0.0820668 32.325 0.188431 33.5865C0.69428 36.1661 2.22162 38.5064 4.04514 40.3572C4.97247 41.2988 6.00418 42.1318 7.12031 42.8401C8.21594 43.5338 9.41164 44.0566 10.5328 44.7085C14.979 47.2933 19.8156 51.081 25.2969 49.7093C27.6837 49.1121 29.7523 47.6864 31.7742 46.347C32.8428 45.6392 33.9184 44.9393 35.0496 44.3342C36.1112 43.7664 37.2097 43.2723 38.2902 42.7424C40.473 41.6719 42.5861 40.3774 43.9395 38.298C44.6787 37.127 45.2265 35.8458 45.5623 34.5027C45.9266 33.1845 46.0468 31.8108 45.9169 30.4495C45.8523 29.8058 45.7106 29.1722 45.4947 28.5623C45.437 28.3721 45.3083 28.2114 45.1354 28.1133C44.9624 28.0152 44.7583 27.9872 44.5653 28.0351C44.3729 28.0897 44.2098 28.2177 44.1111 28.3914C44.0123 28.5651 43.9859 28.7706 44.0375 28.9636C44.4748 30.152 44.5389 31.2227 44.4053 32.5134C44.3324 33.1181 44.2139 33.7165 44.0507 34.3034C43.9647 34.6134 43.8676 34.9199 43.7592 35.2231C43.6443 35.545 43.5432 35.7981 43.4285 36.0526C42.9763 37.1396 42.3038 38.1213 41.4534 38.936C41.2649 39.1148 41.0695 39.2859 40.8672 39.4494C40.8123 39.494 40.757 39.5382 40.7011 39.5815C40.8221 39.4878 40.6364 39.6289 40.6285 39.6348C40.5146 39.7191 40.3992 39.8015 40.2824 39.8819C39.8099 40.2042 39.3212 40.5022 38.8182 40.7745C37.8132 41.3248 36.7696 41.8 35.7385 42.2984C34.6368 42.8257 33.565 43.4135 32.5282 44.0589C30.5158 45.3217 28.6057 46.7907 26.4163 47.7453C26.1987 47.8402 26.5506 47.6945 26.33 47.781C26.2628 47.8073 26.196 47.8347 26.1287 47.8606C25.9942 47.9123 25.8589 47.9615 25.7226 48.0082C25.4504 48.1014 25.1744 48.1838 24.8952 48.2537C24.6378 48.3181 24.3779 48.3715 24.1157 48.4139C24.103 48.4159 23.8651 48.4494 24.0275 48.4284C23.9546 48.4378 23.8816 48.446 23.8085 48.4534C23.6362 48.4708 23.4634 48.4831 23.2902 48.4901C23.0112 48.5015 22.7321 48.4993 22.4529 48.4836C22.1751 48.4706 21.8984 48.4404 21.6244 48.3932C20.9673 48.2781 20.3191 48.1166 19.6848 47.91C18.5173 47.5244 17.3909 47.0246 16.3219 46.4176C15.1845 45.7948 14.087 45.1032 12.9839 44.4227C11.882 43.7431 10.7723 43.0735 9.61773 42.4861C9.07346 42.2092 8.53131 41.939 8.0115 41.6171C7.77322 41.4695 7.53908 41.3155 7.30909 41.1551C7.02168 40.9549 6.7988 40.7884 6.58809 40.6198C5.61281 39.8365 4.72698 38.9482 3.94665 37.971C3.85223 37.8531 3.63903 37.5634 3.49467 37.3552C3.29928 37.0735 3.1142 36.7849 2.93944 36.4896C2.79355 36.2422 2.65581 35.9903 2.52621 35.7339C2.45635 35.5952 2.38913 35.4552 2.32458 35.3139C2.29782 35.2553 2.27158 35.1965 2.24583 35.1375C2.22507 35.0893 2.22522 35.0903 2.24628 35.1406C2.22655 35.0933 2.20714 35.0458 2.18805 34.9982C1.96041 34.4353 1.78379 33.8532 1.6603 33.2587C1.6303 33.112 1.606 32.9646 1.58125 32.817C1.54182 32.5819 1.58983 32.9002 1.57266 32.7592C1.56515 32.6977 1.55825 32.636 1.55193 32.5743C1.5195 32.254 1.50612 31.9321 1.51187 31.6103C1.5156 31.3381 1.53507 31.0664 1.57017 30.7965C1.54775 30.9622 1.58313 30.73 1.5858 30.7147C1.59793 30.6451 1.61123 30.5758 1.62573 30.5068C1.65435 30.3704 1.68754 30.235 1.72532 30.1008C1.76258 29.9682 1.80416 29.837 1.85006 29.7071C1.87283 29.6426 1.89663 29.5784 1.92144 29.5146C1.92759 29.4988 2.01594 29.2914 1.9494 29.4426C2.05933 29.1928 2.18283 28.9492 2.31934 28.7128C2.44554 28.4943 2.58228 28.2819 2.72702 28.0752C2.80688 27.9611 2.88918 27.8488 2.97391 27.7381C2.87954 27.8613 3.02218 27.6785 3.02909 27.6699C3.08817 27.5964 3.14811 27.5236 3.20891 27.4515C3.5671 27.0263 3.95215 26.6243 4.34874 26.2349C5.22035 25.3789 6.14759 24.5822 7.03765 23.7458C7.47441 23.3354 7.90194 22.9154 8.31207 22.4784C8.42793 22.359 8.50203 22.2055 8.52333 22.0406C8.54462 21.8758 8.51196 21.7085 8.43022 21.5637C8.40483 21.5243 8.36159 21.3756 8.39534 21.5111C8.38233 21.4589 8.37176 21.407 8.36074 21.3542C8.33054 21.2093 8.30252 21.064 8.27362 20.9188C8.21238 20.6112 8.15193 20.3034 8.09227 19.9954C7.97414 19.3849 7.86023 18.7736 7.75054 18.1616C7.64253 17.5556 7.54025 16.9486 7.44369 16.3406C7.35285 15.7654 7.25957 15.1339 7.1906 14.6053C6.83911 12.1035 6.70197 9.57627 6.78066 7.05115C6.80626 6.42924 6.85085 5.80848 6.91443 5.1889C6.97669 4.59224 7.07943 4.10655 7.14775 3.49076C7.16151 3.36684 7.17108 3.24222 7.18272 3.11807C7.18705 3.0719 7.19138 3.02573 7.19571 2.97955C7.21554 2.76522 7.14546 3.0431 7.22221 2.86429C7.31523 2.57478 7.38785 2.27912 7.43956 1.97947L7.46719 1.89182C7.439 1.95095 7.44534 1.94236 7.4862 1.86606C7.41778 1.93624 7.47286 1.86148 7.49838 1.85972L7.44775 1.89645C7.52621 1.85513 7.59377 1.79584 7.64489 1.72343C7.65876 1.70338 7.75116 1.62159 7.64304 1.70505C7.64337 1.7048 7.80738 1.58113 7.7271 1.65288L7.69761 1.66744C7.7844 1.64782 7.78168 1.64588 7.68945 1.66164C7.69804 1.67634 7.80287 1.6666 7.68779 1.64814C7.73297 1.6565 7.77745 1.66825 7.82086 1.6833C7.76095 1.65696 7.75509 1.65649 7.8033 1.6819C7.92501 1.74688 7.65948 1.5544 7.87546 1.72901C7.9338 1.77617 7.98971 1.8267 8.04599 1.87628C8.14739 1.96563 8.24721 2.05673 8.34543 2.14958C8.58583 2.37661 8.81713 2.61317 9.04192 2.8556C9.45164 3.29747 9.83978 3.7586 10.2252 4.22159C11.0221 5.17886 11.8327 6.1388 12.5756 7.12428C13.425 8.22605 14.1838 9.39466 14.8445 10.6187C15.1468 11.1931 15.4598 11.8697 15.6883 12.4118C15.8183 12.7203 15.941 13.0325 16.0437 13.3513C16.1484 13.6598 16.2205 13.9783 16.2588 14.3018C16.2954 14.729 16.7222 15.2362 17.2152 15.0296C20.0781 13.8096 23.2394 13.4673 26.2975 14.0461C27.1694 14.2208 28.0259 14.465 28.8587 14.7765C29.3662 14.9652 29.7652 14.4891 29.8152 14.0486C29.9215 13.4513 30.1026 12.8698 30.3541 12.3176C30.5515 11.8459 30.8181 11.256 31.0735 10.7525C31.6571 9.62115 32.3309 8.53854 33.0882 7.51508C33.8133 6.5203 34.5879 5.57073 35.3811 4.62216C36.1714 3.677 36.943 2.70759 37.854 1.87308C37.9645 1.77185 38.0754 1.6694 38.1921 1.57528C38.2015 1.56772 38.3182 1.47362 38.2322 1.54634L38.2963 1.51C38.2247 1.53674 38.2303 1.53653 38.3131 1.50936C38.3602 1.50269 38.439 1.51125 38.3121 1.50723C38.5244 1.51395 38.21 1.49978 38.3384 1.50573C38.3981 1.5085 38.2696 1.41592 38.3688 1.51552C38.5109 1.65805 38.3015 1.39545 38.4227 1.56971L38.4669 1.62471C38.6374 1.75394 38.6715 1.78104 38.5692 1.706C38.5753 1.70752 38.6831 1.81603 38.5814 1.71234C38.691 1.82411 38.5813 1.68721 38.6142 1.78192C38.6393 1.85433 38.6591 1.92919 38.6791 2.00313C38.7196 2.15317 38.7545 2.30458 38.7838 2.45735C38.7953 2.51642 38.8012 2.58407 38.8174 2.64274C38.8382 2.68785 38.8552 2.73465 38.8681 2.78264C38.868 2.72535 38.8686 2.72539 38.8702 2.78276C39.0204 3.94627 39.1683 4.95915 39.2458 6.1425C39.383 8.62431 39.3007 11.1134 38.9998 13.5807C38.8487 14.9315 38.6557 16.2339 38.4231 17.6034C38.308 18.281 38.1863 18.9574 38.058 19.6327C37.937 20.2729 37.852 20.9429 37.6743 21.5698C37.6394 21.6985 37.639 21.834 37.6731 21.9629C37.7072 22.0918 37.7746 22.2095 37.8686 22.3041C39.0326 23.4836 40.1556 24.7039 41.3862 25.8152C41.9288 26.3051 42.4761 26.7929 42.9686 27.3342C43.1867 27.5628 43.3838 27.8104 43.5576 28.0741C43.6552 28.22 43.7467 28.3701 43.8303 28.5245C43.8783 28.613 43.921 28.7039 43.9663 28.7937C44.0027 28.8764 44.0078 28.8857 43.9817 28.8216C44.0011 28.8687 44.0197 28.916 44.0375 28.9636C44.0956 29.1535 44.2243 29.314 44.3972 29.4121C44.5701 29.5101 44.774 29.5383 44.967 29.4908C45.3313 29.3908 45.6417 28.9449 45.4948 28.5623Z" fill="#302813"/>
<path d="M6.39178 3.49344C6.39821 3.45721 6.40734 3.4215 6.41908 3.38662C6.4265 3.23337 6.43392 3.08009 6.44135 2.92681C6.44634 2.81229 6.47363 2.69985 6.52168 2.59575C6.57167 2.28929 6.64419 1.98692 6.73866 1.6911C6.79353 1.50918 6.90925 1.35157 7.06647 1.24464C7.13918 1.14847 7.23136 1.06869 7.337 1.01048C7.44264 0.95228 7.55937 0.916964 7.67959 0.90684C7.79981 0.896717 7.92081 0.912014 8.03471 0.95173C8.14862 0.991446 8.25286 1.05469 8.34067 1.13735C9.47445 2.07786 10.3923 3.25681 11.3363 4.37987C12.2821 5.50512 13.1976 6.65706 14.0417 7.86083C14.8901 9.05977 15.6118 10.3434 16.1951 11.691C16.7146 12.9055 17.4289 14.4434 16.7436 15.7169C16.6928 15.8217 16.6183 15.9133 16.5258 15.9843C16.4334 16.0553 16.3257 16.1037 16.2112 16.1258C16.1407 16.2112 16.0544 16.2821 15.957 16.3348C13.5235 17.6834 10.9031 18.8692 9.19674 21.1557C8.80343 21.6827 7.81001 22.4372 7.64968 21.6415C6.49128 15.8925 5.38292 9.35179 6.39178 3.49344Z" fill="#8C3EF2"/>
<path d="M8.78832 8.39315C8.79227 8.37084 8.79789 8.34886 8.80512 8.32739L8.81884 8.04429C8.82191 7.97379 8.83871 7.90456 8.86829 7.84048C8.89908 7.6518 8.94372 7.46564 9.00188 7.28352C9.03567 7.17152 9.10691 7.0745 9.20369 7.00865C9.24846 6.94944 9.30521 6.90032 9.37025 6.86449C9.43529 6.82866 9.50716 6.80692 9.58117 6.80069C9.65518 6.79446 9.72968 6.80388 9.7998 6.82833C9.86993 6.85278 9.93411 6.89172 9.98817 6.94261C10.6862 7.52163 11.2513 8.24746 11.8324 8.93887C12.4147 9.63164 12.9784 10.3408 13.498 11.0819C14.0203 11.8201 14.4646 12.6103 14.8237 13.44C15.1436 14.1877 15.5834 15.1345 15.1614 15.9186C15.1302 15.9831 15.0843 16.0395 15.0274 16.0832C14.9705 16.1269 14.9042 16.1567 14.8337 16.1703C14.7903 16.2228 14.7371 16.2665 14.6772 16.2989C13.179 17.1292 11.5657 17.8593 10.5152 19.267C10.2731 19.5914 9.66145 19.6325 9.56274 19.1426C8.84957 15.6032 8.16722 11.9998 8.78832 8.39315Z" fill="#FFFBF0"/>
<path d="M39.6757 3.34013C39.6693 3.3039 39.6602 3.26819 39.6484 3.23331C39.641 3.08004 39.6336 2.92676 39.6262 2.77349C39.6212 2.65897 39.5939 2.54651 39.5458 2.44242C39.4958 2.13596 39.4233 1.83359 39.3288 1.53778C39.274 1.35585 39.1583 1.19825 39.001 1.09132C38.9283 0.995149 38.8361 0.91536 38.7305 0.857158C38.6249 0.798955 38.5081 0.763644 38.3879 0.75352C38.2677 0.743397 38.1467 0.75869 38.0328 0.798404C37.9189 0.838119 37.8146 0.901361 37.7268 0.984014C36.593 1.92453 35.6752 3.10349 34.7312 4.22655C33.7854 5.3518 32.8699 6.50374 32.0258 7.70751C31.1774 8.90644 30.4557 10.19 29.8724 11.5377C29.3529 12.7522 28.6386 14.2901 29.3239 15.5636C29.3747 15.6684 29.4492 15.76 29.5417 15.831C29.6341 15.9019 29.7418 15.9504 29.8563 15.9725C29.9268 16.0578 30.0131 16.1288 30.1105 16.1814C32.544 17.5301 35.1644 18.7159 36.8708 21.0024C37.2641 21.5294 38.2575 22.5131 38.4178 21.7175C39.5762 15.9685 40.6846 9.19846 39.6757 3.34013Z" fill="#8C3EF2"/>
<path d="M36.9317 8.39315C36.9277 8.37084 36.9221 8.34886 36.9149 8.32739L36.9011 8.04429C36.8981 7.97379 36.8813 7.90456 36.8517 7.84048C36.8209 7.6518 36.7763 7.46564 36.7181 7.28352C36.6843 7.17152 36.6131 7.07449 36.5163 7.00865C36.4715 6.94944 36.4148 6.90032 36.3497 6.86449C36.2847 6.82866 36.2128 6.80692 36.1388 6.80069C36.0648 6.79446 35.9903 6.80388 35.9202 6.82833C35.85 6.85278 35.7859 6.89172 35.7318 6.94261C35.0338 7.52163 34.4687 8.24746 33.8876 8.93887C33.3053 9.63164 32.7416 10.3408 32.222 11.0819C31.6996 11.8201 31.2553 12.6103 30.8962 13.44C30.5764 14.1877 30.1366 15.1345 30.5585 15.9186C30.5898 15.9831 30.6357 16.0395 30.6926 16.0832C30.7495 16.1269 30.8158 16.1567 30.8863 16.1703C30.9297 16.2228 30.9828 16.2665 31.0428 16.2989C32.541 17.1292 34.1543 17.8593 35.2048 19.267C35.4469 19.5914 36.0585 19.6325 36.1572 19.1426C36.8704 15.6032 37.5527 11.9998 36.9317 8.39315Z" fill="#FFFBF0"/>
<path opacity="0.84" d="M8.78832 8.39315C8.79227 8.37084 8.79789 8.34886 8.80512 8.32739L8.81884 8.04429C8.82191 7.97379 8.83871 7.90456 8.86829 7.84048C8.89908 7.6518 8.94372 7.46564 9.00188 7.28352C9.03567 7.17152 9.10691 7.0745 9.20369 7.00865C9.24846 6.94944 9.30521 6.90032 9.37025 6.86449C9.43529 6.82866 9.50716 6.80692 9.58117 6.80069C9.65518 6.79446 9.72968 6.80388 9.7998 6.82833C9.86993 6.85278 9.93411 6.89172 9.98817 6.94261C10.6862 7.52163 11.2513 8.24746 11.8324 8.93887C12.4147 9.63164 12.9784 10.3408 13.498 11.0819C14.0203 11.8201 14.4646 12.6103 14.8237 13.44C15.1436 14.1877 15.5834 15.1345 15.1614 15.9186C15.1302 15.9831 15.0843 16.0395 15.0274 16.0832C14.9705 16.1269 14.9042 16.1567 14.8337 16.1703C14.7903 16.2228 14.7371 16.2665 14.6772 16.2989C13.179 17.1292 11.5657 17.8593 10.5152 19.267C10.2731 19.5914 9.66145 19.6325 9.56274 19.1426C8.84957 15.6032 8.16722 11.9998 8.78832 8.39315Z" fill="url(#paint0_radial_204_772)"/>
<path opacity="0.84" d="M36.9317 8.39315C36.9277 8.37084 36.9221 8.34886 36.9149 8.32739L36.9011 8.04429C36.8981 7.97379 36.8813 7.90456 36.8517 7.84048C36.8209 7.6518 36.7763 7.46564 36.7181 7.28352C36.6843 7.17152 36.6131 7.07449 36.5163 7.00865C36.4715 6.94944 36.4148 6.90032 36.3497 6.86449C36.2847 6.82866 36.2128 6.80692 36.1388 6.80069C36.0648 6.79446 35.9903 6.80388 35.9202 6.82833C35.85 6.85278 35.7859 6.89172 35.7318 6.94261C35.0338 7.52163 34.4687 8.24746 33.8876 8.93887C33.3053 9.63164 32.7416 10.3408 32.222 11.0819C31.6996 11.8201 31.2553 12.6103 30.8962 13.44C30.5764 14.1877 30.1366 15.1345 30.5585 15.9186C30.5898 15.9831 30.6357 16.0395 30.6926 16.0832C30.7495 16.1269 30.8158 16.1567 30.8863 16.1703C30.9297 16.2228 30.9828 16.2665 31.0428 16.2989C32.541 17.1292 34.1543 17.8593 35.2048 19.267C35.4469 19.5914 36.0585 19.6325 36.1572 19.1426C36.8704 15.6032 37.5527 11.9998 36.9317 8.39315Z" fill="url(#paint1_radial_204_772)"/>
<path d="M44.7662 28.7633C44.0505 26.8531 42.1742 25.6452 40.7119 24.1395C36.8998 20.2145 34.5885 16.842 31.1154 14.9805C29.0951 13.8825 26.864 13.2264 24.5704 13.0556C22.2767 12.8848 19.973 13.2033 17.812 13.9899C13.827 15.4147 10.9043 18.6684 8.03404 21.7145C4.85853 25.0845 1.23886 27.1602 0.786957 31.0576C0.21666 35.9762 4.55074 40.7412 8.86059 42.9507C13.106 45.1271 16.5191 48.1961 21.2611 49.0921C26.4253 50.0679 29.8463 46.3712 34.279 43.8955C37.7 41.9849 41.6273 40.9682 43.5994 37.3974C45.0691 34.7361 45.7251 31.3224 44.7662 28.7633Z" fill="#8C3EF2"/>
<path d="M8.8604 42.9508C13.0806 45.1757 16.5189 48.1963 21.261 49.0923C26.4251 50.068 29.8461 46.3714 34.2788 43.8957C37.6998 41.9851 41.6271 40.9684 43.5992 37.3975C43.7407 37.1413 43.8678 36.8842 43.9806 36.6264C44.6125 34.571 45.1295 31.6264 44.0256 29.744C42.718 27.514 39.2422 25.4473 36.5663 25.6405C34.066 25.8209 32.5585 26.3383 30.3025 27.3412C29.6707 27.6221 29.0658 27.9567 28.4514 28.2726C27.6108 28.5323 26.7475 28.7126 25.8992 28.9522C25.0054 29.2047 24.1465 29.5386 23.2548 29.7737C22.9775 29.7776 22.7005 29.7703 22.4231 29.7546C20.4401 29.3575 18.4946 28.7922 16.6078 28.0648C14.9697 27.2513 13.3691 26.1647 11.5636 25.9068C10.875 25.8143 10.1863 25.7219 9.49761 25.6294C8.09474 25.6338 6.78724 26.6749 5.57508 27.3772C3.83778 28.3938 2.26268 29.729 1.7283 31.6696C1.42588 32.8314 1.37371 34.0441 1.57523 35.2275C2.57627 38.3571 4.96094 40.8951 8.8604 42.9508Z" fill="#FFFBF0"/>
<path opacity="0.38" d="M8.86045 42.9508C13.0699 45.1958 16.519 48.1963 21.261 49.0923C26.4251 50.068 29.8462 46.3714 34.2789 43.8957C37.6998 41.9851 41.6271 40.9684 43.5992 37.3975C43.7407 37.1413 43.8679 36.8842 43.9806 36.6264C44.6125 34.571 45.1295 31.6264 44.0256 29.744C42.718 27.514 39.2422 25.4473 36.5663 25.6405C34.066 25.8209 32.5586 26.3383 30.3026 27.3412C29.6707 27.6221 29.0658 27.9567 28.4514 28.2726C27.6108 28.5323 26.7475 28.7126 25.8993 28.9522C25.0054 29.2047 24.1466 29.5386 23.2548 29.7737C22.9775 29.7776 22.7005 29.7703 22.4232 29.7546C20.4401 29.3575 18.4946 28.7922 16.6078 28.0648C14.9698 27.2513 13.3691 26.1647 11.5637 25.9068C10.875 25.8143 10.1863 25.7219 9.49765 25.6294C8.09478 25.6338 6.78728 26.6749 5.57512 27.3772C4.20326 28.176 3.11004 29.3764 2.44328 30.8161C1.77651 32.2557 1.56835 33.8652 1.84694 35.4268C2.93751 38.6596 4.90969 40.8438 8.86045 42.9508Z" fill="url(#paint2_radial_204_772)"/>
<path d="M28.3157 30.0677C28.6153 29.4712 28.507 26.4917 25.189 26.6524C23.3655 26.7407 21.5051 26.5105 19.244 26.73C17.8345 26.9533 16.6017 28.473 17.0974 29.9012C17.8059 31.9419 21.6587 34.1986 23.0451 34.1037C24.6559 33.9935 27.4646 31.7619 28.3157 30.0677Z" fill="#302813"/>
<path d="M32.2655 17.816C31.7257 16.9927 31.0228 16.7741 30.3849 18.2643C29.1513 21.1463 27.2035 20.2799 27.6865 21.0155C28.2831 21.9242 30.7276 21.4206 31.5536 20.8436C32.3237 20.3055 32.8802 18.7535 32.2655 17.816Z" fill="#FFFBF0"/>
<path d="M14.2671 17.816C14.8069 16.9927 15.5099 16.7741 16.1477 18.2643C17.3814 21.1463 19.3291 20.2799 18.8462 21.0155C18.2495 21.9242 15.8051 21.4206 14.9791 20.8436C14.209 20.3055 13.6524 18.7535 14.2671 17.816Z" fill="#FFFBF0"/>
<path d="M28.5047 39.9965C25.994 39.0406 23.9796 36.5791 23.4099 33.9745C23.3269 33.595 22.7441 33.7556 22.827 34.135C23.4442 36.957 25.6385 39.5487 28.344 40.5788C28.7079 40.7173 28.8652 40.1338 28.5047 39.9965V39.9965Z" fill="#302813"/>
<path d="M17.6909 40.5789C20.3965 39.5488 22.5907 36.9571 23.2079 34.1351C23.2907 33.7563 22.7081 33.5945 22.625 33.9746C22.0554 36.5792 20.041 39.0407 17.5302 39.9966C17.1703 40.1336 17.3264 40.7176 17.6909 40.5789V40.5789Z" fill="#302813"/>
<path d="M19.1314 42.966C20.3631 43.5194 21.6556 44.0168 23.0222 44.0596C24.2263 44.1259 25.4113 43.7359 26.3401 42.9676C26.6341 42.7119 26.205 42.2863 25.9127 42.5406C24.0613 44.1508 21.4097 43.3312 19.4364 42.4446C19.0845 42.2865 18.7768 42.8067 19.1314 42.966H19.1314Z" fill="#E2DAC5"/>
<path d="M7.43044 22.2127C9.38856 20.3085 11.4219 18.4806 13.4863 16.6923C13.7807 16.4373 13.3516 16.0117 13.0588 16.2653C10.9945 18.0536 8.96114 19.8816 7.00301 21.7858C6.72378 22.0573 7.15141 22.4841 7.43044 22.2127Z" fill="#302813"/>
<path d="M39.2742 21.7109C37.4188 19.7682 35.9403 17.3513 33.5159 16.0373C33.1739 15.8519 32.8684 16.3731 33.2108 16.5587C35.5829 17.8444 37.0306 20.2363 38.8468 22.1378C39.1159 22.4196 39.5429 21.9922 39.2742 21.7109Z" fill="#302813"/>
<path d="M15.002 22.4626C14.6262 22.2338 13.9614 22.0639 13.5232 22.4626C12.8049 23.1162 13.4749 24.8856 13.9954 25.4367C14.4563 25.9247 15.2433 26.2513 15.789 25.86C16.1751 25.5831 16.2836 25.0468 16.225 24.5756C16.1534 23.9996 16.1294 23.1491 15.002 22.4626Z" fill="#513B09"/>
<path d="M15.1545 22.2023C14.7822 21.9721 14.3399 21.8821 13.9071 21.9486C13.7029 21.9879 13.5123 22.0796 13.3544 22.2148C13.1964 22.35 13.0764 22.524 13.0062 22.7196C12.7334 23.4344 13.0166 24.3232 13.3356 24.9751C13.6895 25.698 14.3857 26.343 15.2386 26.3355C15.4713 26.3346 15.6992 26.2691 15.8968 26.1464C16.0944 26.0236 16.2541 25.8485 16.3579 25.6404C16.5286 25.2521 16.5805 24.822 16.5071 24.4042C16.476 24.03 16.3826 23.6635 16.2307 23.3201C15.986 22.8526 15.6126 22.4647 15.1545 22.2023C14.8231 21.9966 14.5193 22.5187 14.8494 22.7237C15.1205 22.8778 15.3534 23.0909 15.531 23.3471C15.7085 23.6034 15.8261 23.8962 15.875 24.204C15.8881 24.2816 15.8872 24.2782 15.8935 24.3288C15.9004 24.3831 15.9063 24.4374 15.9127 24.4918C15.9369 24.6549 15.9426 24.8203 15.9296 24.9847C15.9262 25.136 15.8798 25.2833 15.7958 25.4093C15.7118 25.5354 15.5938 25.635 15.4553 25.6966C15.1439 25.8044 14.797 25.664 14.5351 25.4965C14.2988 25.3474 14.1058 25.1389 13.9753 24.8919C13.6686 24.3924 13.5088 23.8168 13.5144 23.2309C13.5069 23.1002 13.5369 22.97 13.6009 22.8558C13.665 22.7415 13.7604 22.648 13.8759 22.5861C14.1864 22.4429 14.5717 22.5594 14.8494 22.7237C14.9184 22.7608 14.9992 22.7698 15.0747 22.7486C15.1502 22.7274 15.2145 22.6778 15.254 22.6102C15.2936 22.5425 15.3053 22.4622 15.2868 22.3861C15.2682 22.31 15.2208 22.2441 15.1545 22.2023Z" fill="#302813"/>
<path d="M15.284 23.2314C14.6885 23.2314 14.6885 24.1538 15.284 24.1538C15.8794 24.1538 15.8794 23.2314 15.284 23.2314Z" fill="white"/>
<path d="M33.3632 22.9445C33.2993 22.3774 32.8814 22.0587 32.2909 22.1293C30.2288 22.3759 29.6183 25.8349 31.4259 26.0266C32.7262 26.1645 33.4812 23.9924 33.3632 22.9445Z" fill="#513B09"/>
<path d="M33.6653 22.9446C33.5945 22.415 33.288 21.9516 32.732 21.8464C32.2691 21.7764 31.7963 21.8734 31.3986 22.1202C31.0659 22.3319 30.7804 22.6096 30.5597 22.9361C30.339 23.2627 30.1879 23.6311 30.1158 24.0184C29.9807 24.6922 30.0438 25.5255 30.6082 25.9985C31.2806 26.5621 32.2089 26.3513 32.7551 25.7249C33.4067 24.9504 33.7329 23.954 33.6653 22.9446C33.6632 22.8652 33.6306 22.7897 33.5744 22.7336C33.5182 22.6774 33.4426 22.6449 33.3631 22.6427C33.2831 22.6432 33.2066 22.6752 33.15 22.7317C33.0934 22.7882 33.0614 22.8647 33.0609 22.9446C33.1068 23.6418 32.9388 24.3363 32.5794 24.9356C32.4284 25.2273 32.1985 25.4708 31.9158 25.6383C31.801 25.6988 31.6734 25.7306 31.5437 25.7311C31.4269 25.7278 31.3113 25.7058 31.2016 25.6658C31.1012 25.6249 31.0107 25.5634 30.9357 25.4852C30.8607 25.4071 30.8029 25.3141 30.7662 25.2123C30.7834 25.2506 30.7496 25.1684 30.7454 25.1562C30.7353 25.1266 30.7258 25.0968 30.7173 25.0667C30.6983 24.9997 30.6833 24.9316 30.6725 24.8628C30.6784 24.9005 30.6678 24.823 30.6668 24.8119C30.6639 24.7784 30.6614 24.7448 30.6599 24.7112C30.6564 24.6367 30.6568 24.562 30.6605 24.4875C30.6944 23.8965 30.9406 23.3377 31.354 22.9136C31.5884 22.6764 31.8878 22.5137 32.2145 22.446C32.6036 22.366 33.0021 22.5055 33.0609 22.9446C33.0634 23.0239 33.096 23.0992 33.1522 23.1553C33.2083 23.2114 33.2838 23.244 33.3631 23.2465C33.5096 23.2465 33.6871 23.1074 33.6653 22.9446Z" fill="#302813"/>
<path d="M32.7255 23.1963C32.1301 23.1963 32.1301 24.1187 32.7255 24.1187C33.321 24.1187 33.321 23.1963 32.7255 23.1963Z" fill="white"/>
<defs>
<radialGradient id="paint0_radial_204_772" cx="0" cy="0" r="1" gradientUnits="userSpaceOnUse" gradientTransform="translate(12.9633 17.8375) rotate(-111.051) scale(6.56845 3.84931)">
<stop stop-color="#E2DAC5"/>
<stop offset="0.09313" stop-color="#E2DAC5" stop-opacity="0.95675"/>
<stop offset="0.25035" stop-color="#E2DAC5" stop-opacity="0.83998"/>
<stop offset="0.45235" stop-color="#E2DAC5" stop-opacity="0.64995"/>
<stop offset="0.69133" stop-color="#E2DAC5" stop-opacity="0.38641"/>
<stop offset="0.95875" stop-color="#E2DAC5" stop-opacity="0.05422"/>
<stop offset="1" stop-color="#E2DAC5" stop-opacity="0"/>
</radialGradient>
<radialGradient id="paint1_radial_204_772" cx="0" cy="0" r="1" gradientUnits="userSpaceOnUse" gradientTransform="translate(32.431 17.6848) rotate(-70.7775) scale(7.10012 4.33219)">
<stop stop-color="#E2DAC5"/>
<stop offset="0.09313" stop-color="#E2DAC5" stop-opacity="0.95675"/>
<stop offset="0.25035" stop-color="#E2DAC5" stop-opacity="0.83998"/>
<stop offset="0.45235" stop-color="#E2DAC5" stop-opacity="0.64995"/>
<stop offset="0.69133" stop-color="#E2DAC5" stop-opacity="0.38641"/>
<stop offset="0.95875" stop-color="#E2DAC5" stop-opacity="0.05422"/>
<stop offset="1" stop-color="#E2DAC5" stop-opacity="0"/>
</radialGradient>
<radialGradient id="paint2_radial_204_772" cx="0" cy="0" r="1" gradientUnits="userSpaceOnUse" gradientTransform="translate(23.6034 51.6002) rotate(180) scale(15.3724 9.74748)">
<stop stop-color="#E2DAC5"/>
<stop offset="0.09313" stop-color="#E2DAC5" stop-opacity="0.95675"/>
<stop offset="0.25035" stop-color="#E2DAC5" stop-opacity="0.83998"/>
<stop offset="0.45235" stop-color="#E2DAC5" stop-opacity="0.64995"/>
<stop offset="0.69133" stop-color="#E2DAC5" stop-opacity="0.38641"/>
<stop offset="0.95875" stop-color="#E2DAC5" stop-opacity="0.05422"/>
<stop offset="1" stop-color="#E2DAC5" stop-opacity="0"/>
</radialGradient>
</defs>
</svg>
