<svg width="46" height="50" viewBox="0 0 46 50" fill="none" xmlns="http://www.w3.org/2000/svg">
<path d="M44.7723 27.8531C44.0564 25.9426 42.1799 24.7345 40.7173 23.2286C39.8853 22.3719 39.1247 21.5852 38.408 20.8594C38.4128 20.8414 38.4193 20.8252 38.4231 20.8062C39.5817 15.0562 40.6902 9.2023 39.6812 3.343L39.6807 3.34024C39.6674 3.19854 39.646 2.97065 39.6328 2.82895C39.6345 2.69656 39.6066 2.56545 39.5513 2.44514C39.5013 2.13863 39.4287 1.83621 39.3343 1.54035C39.2794 1.35839 39.1636 1.20076 39.0064 1.09382C38.9337 0.997631 38.8415 0.917829 38.7358 0.859617C38.6302 0.801404 38.5134 0.766088 38.3932 0.755962C38.2729 0.745837 38.1519 0.761132 38.038 0.800853C37.9241 0.840575 37.8198 0.903828 37.732 0.986494C36.598 1.92717 35.68 3.10632 34.7359 4.22956C33.7372 5.41769 32.7723 6.63555 31.8896 7.91275C31.0836 9.08172 30.396 10.328 29.8372 11.6331C29.5203 12.3711 29.1477 13.2202 29.0632 14.0536C25.4411 12.6907 21.4499 12.6697 17.8136 13.9945C17.5414 14.0918 17.2765 14.1969 17.016 14.3068C16.9533 13.4513 16.5734 12.5738 16.2465 11.8123C15.6821 10.4924 14.9871 9.23215 14.1719 8.05029C13.2923 6.779 12.3313 5.56642 11.3369 4.38332C10.3928 3.26008 9.47475 2.08093 8.34078 1.14026C8.25296 1.05759 8.1487 0.994337 8.03477 0.954615C7.92085 0.914892 7.79983 0.899592 7.67959 0.909717C7.55935 0.919843 7.4426 0.955164 7.33695 1.01338C7.23129 1.07159 7.13909 1.15139 7.06637 1.24758C6.90912 1.35452 6.79339 1.51215 6.73851 1.69411C6.64402 1.98997 6.57148 2.29239 6.52149 2.59891C6.46614 2.71921 6.4383 2.85032 6.44 2.98271C6.42672 3.12442 6.40534 3.3523 6.39204 3.494L6.39157 3.49674C5.38255 9.35606 6.49108 15.21 7.64968 20.9599C7.67065 21.0688 7.71433 21.1721 7.77789 21.263C4.96066 24.2766 1.2433 26.4059 0.804805 30.188C0.234395 35.1074 4.5502 40.3941 8.86077 42.5014C13.1475 44.5971 16.5206 48.2064 21.2634 49.1025C26.4283 50.0784 29.8499 46.3811 34.2834 43.9051C37.7049 41.9941 41.6329 40.0601 43.6053 36.4886C45.0752 33.8269 45.7313 30.4126 44.7723 27.8531Z" fill="#838383"/>
<path d="M45.5011 27.6524C44.916 26.1286 43.7667 25.0162 42.5785 23.9435C41.3076 22.7961 40.1444 21.5435 38.9424 20.3255L39.1368 21.06C39.3191 20.4173 39.408 19.7316 39.5355 19.0757C39.6608 18.4305 39.7817 17.7845 39.898 17.1376C40.1403 15.7785 40.3528 14.4139 40.5177 13.0432C40.8659 10.413 40.9201 7.75236 40.6792 5.11027C40.6418 4.748 40.5962 4.38675 40.5464 4.02598C40.526 3.87854 40.5046 3.73125 40.482 3.58412C40.4694 3.50223 40.4564 3.4204 40.443 3.33863C40.435 3.2895 40.4267 3.2404 40.4183 3.19133C40.4027 3.09816 40.4067 3.12593 40.4303 3.27465C40.3838 3.2211 40.4014 2.97619 40.3947 2.89438C40.39 2.72268 40.3686 2.55185 40.3308 2.3843C40.2449 2.08345 40.1933 1.77308 40.1038 1.47143C40.0246 1.1596 39.8659 0.873577 39.6431 0.641237C39.5972 0.595787 39.3666 0.370447 39.4966 0.504923C39.4643 0.471505 39.4337 0.440315 39.3987 0.40917C39.236 0.263378 39.0455 0.151969 38.8385 0.0816375C38.1692 -0.148432 37.5626 0.137452 37.0599 0.568958C36.122 1.37408 35.3352 2.33386 34.5477 3.28107C33.7126 4.28547 32.8808 5.29033 32.098 6.33649C31.2372 7.46195 30.4733 8.65816 29.8144 9.91233C29.4788 10.5675 29.1828 11.2412 28.9005 11.9208C28.6025 12.6 28.4028 13.3181 28.3076 14.0535L29.2642 13.3255C26.15 12.1749 22.767 11.9589 19.5316 12.7043C18.6028 12.9178 17.694 13.2104 16.8151 13.5788L17.7717 14.3067C17.6572 12.9715 17.0581 11.7073 16.4809 10.5147C15.9297 9.38516 15.2847 8.30374 14.5527 7.28181C13.7844 6.20131 12.9621 5.15881 12.1141 4.13977C11.3037 3.16578 10.5134 2.16268 9.60897 1.2726C9.18015 0.850564 8.69934 0.32749 8.08971 0.195079C7.74102 0.118344 7.37669 0.159284 7.05379 0.311493C6.91544 0.375978 6.78749 0.460724 6.67417 0.562925C6.6492 0.585132 6.53561 0.745927 6.6325 0.633883C6.56373 0.713401 6.45701 0.765069 6.38289 0.842979C6.15769 1.10535 6.00232 1.42019 5.93114 1.75841C5.89063 1.90848 5.8557 2.05991 5.82634 2.21271C5.78672 2.41724 5.72005 2.60579 5.69812 2.81526C5.68612 2.93 5.67849 3.04496 5.66769 3.15995C5.6616 3.22498 5.65329 3.2902 5.64936 3.35537C5.63441 3.60342 5.6888 3.15542 5.65453 3.34506C5.58662 3.72082 5.53647 4.10019 5.48625 4.4786C5.16098 7.17974 5.16158 9.91013 5.48802 12.6111C5.65498 14.1463 5.88808 15.674 6.15759 17.1943C6.28952 17.9385 6.42868 18.6813 6.57509 19.4228C6.65063 19.8094 6.72718 20.1958 6.80473 20.582C6.87759 20.9457 6.91962 21.3251 7.12538 21.6439L7.24355 20.7291C5.52334 22.5621 3.4324 24.0494 1.87216 26.0317C1.09774 26.9641 0.53231 28.0514 0.213969 29.2205C-0.0729363 30.4913 -0.0712941 31.8102 0.218776 33.0804C0.762624 35.6593 2.27257 38.0091 4.08486 39.8861C4.98907 40.824 5.99756 41.6557 7.09073 42.3649C8.16653 43.0607 9.34839 43.572 10.4434 44.2381C12.6785 45.5976 14.7499 47.2283 17.089 48.4152C19.5011 49.6393 22.1776 50.3605 24.8774 49.8157C27.3315 49.3204 29.4674 47.8894 31.5188 46.5293C32.6131 45.8038 33.7109 45.087 34.8591 44.4486C35.943 43.8459 37.0352 43.2574 38.0982 42.6181C40.3284 41.2766 42.4771 39.6754 43.9046 37.4606C44.6441 36.2906 45.1982 35.0136 45.5473 33.6747C45.9281 32.3316 46.0556 30.9295 45.9233 29.5399C45.8587 28.8961 45.717 28.2624 45.5011 27.6524C45.4433 27.4622 45.3147 27.3015 45.1417 27.2034C44.9687 27.1052 44.7646 27.0772 44.5715 27.1251C44.3791 27.1797 44.2159 27.3077 44.1172 27.4815C44.0184 27.6552 43.992 27.8607 44.0437 28.0538C44.479 29.2371 44.5453 30.3113 44.4114 31.6041C44.3836 31.873 44.3463 32.1188 44.2786 32.4612C44.2139 32.7887 44.1363 33.1132 44.0456 33.4349C43.9549 33.7581 43.8519 34.0775 43.7368 34.3933C43.6148 34.7284 43.533 34.9296 43.4 35.2199C43.1378 35.8007 42.828 36.359 42.4739 36.8889C42.389 37.0144 42.3015 37.1381 42.2113 37.2599C42.2115 37.2597 42.0614 37.4569 42.1465 37.3475C42.1002 37.407 42.0528 37.4658 42.0051 37.5242C41.8146 37.7578 41.6154 37.9838 41.4074 38.2024C40.9897 38.6399 40.5452 39.051 40.0764 39.4334C39.8016 39.659 39.7195 39.7219 39.4474 39.922C39.2009 40.1033 38.9507 40.2794 38.6967 40.4503C36.6524 41.8299 34.4112 42.8751 32.3316 44.1956C31.283 44.8614 30.2622 45.5697 29.212 46.233C28.706 46.5525 28.1929 46.8615 27.6663 47.1464C27.4084 47.2859 27.1473 47.4196 26.8825 47.5455C26.7512 47.608 26.619 47.6684 26.4859 47.7269C26.4778 47.7304 26.2579 47.8224 26.4001 47.7641C26.3332 47.7915 26.2662 47.8185 26.1991 47.8449C25.6631 48.0573 25.1103 48.2246 24.5465 48.3452C24.4045 48.375 24.2618 48.4014 24.1185 48.4245C24.1059 48.4265 23.8679 48.46 24.0303 48.439C23.9574 48.4484 23.8844 48.4566 23.8113 48.464C23.5138 48.4941 23.2149 48.5087 22.9159 48.5078C22.6052 48.5067 22.2948 48.4892 21.986 48.4554C21.9885 48.4556 21.7295 48.4222 21.8685 48.4419C21.7878 48.4305 21.7072 48.4175 21.6269 48.4037C21.4661 48.3762 21.306 48.3446 21.1466 48.31C20.5249 48.1738 19.9141 47.9921 19.3189 47.7666C17.1156 46.9369 14.9392 45.3753 12.8887 44.0125C11.8308 43.2907 10.7334 42.6287 9.60139 42.0296C9.07325 41.7582 8.54586 41.496 8.04165 41.1808C7.78739 41.0219 7.53816 40.8553 7.29395 40.681C7.16978 40.5925 7.0474 40.5018 6.92547 40.4103C6.89321 40.39 6.863 40.3666 6.83526 40.3405C6.7749 40.2923 6.71432 40.2445 6.65436 40.1958C5.67214 39.402 4.78445 38.4981 4.00872 37.5018C4.08608 37.6017 3.92857 37.3952 3.93414 37.4026C3.88663 37.3392 3.8396 37.2754 3.79304 37.2113C3.70012 37.0833 3.60916 36.9539 3.52017 36.8231C3.34318 36.5629 3.17456 36.2972 3.01428 36.0261C2.85585 35.7577 2.70661 35.4841 2.56653 35.2054C2.49731 35.0673 2.43057 34.928 2.36633 34.7874C2.33439 34.7175 2.30333 34.6472 2.27247 34.5768C2.25537 34.5441 2.24122 34.51 2.23019 34.4748C2.00582 33.9153 1.82581 33.3392 1.69184 32.7516C1.66018 32.607 1.63189 32.4616 1.60697 32.3156C1.59461 32.243 1.58312 32.1702 1.57251 32.0973C1.59615 32.2577 1.56335 32.0184 1.56203 32.0065C1.52937 31.7161 1.51194 31.4242 1.50981 31.1319C1.5077 30.8408 1.52197 30.5498 1.55256 30.2603C1.55415 30.2453 1.58817 30.0089 1.5621 30.1749C1.57313 30.1047 1.5845 30.0346 1.59751 29.9647C1.62316 29.827 1.65347 29.6902 1.68842 29.5543C1.75898 29.2884 1.84489 29.0267 1.94573 28.7706C2.02608 28.5619 1.8809 28.9019 1.97621 28.6998C2.00529 28.6381 2.03291 28.5759 2.06262 28.5145C2.12207 28.3917 2.18494 28.2706 2.25124 28.1512C2.38452 27.9108 2.53074 27.6776 2.68681 27.4514C2.76581 27.3368 2.84829 27.225 2.93102 27.1131C3.06756 26.9285 2.83936 27.2232 2.98451 27.0441C3.02892 26.9893 3.07278 26.934 3.11761 26.8796C3.48817 26.4351 3.88136 26.0099 4.29564 25.6058C5.16412 24.7482 6.09022 23.9517 6.98088 23.1177C7.43739 22.6902 7.88435 22.2528 8.31234 21.7967C8.42821 21.6774 8.50233 21.5238 8.52363 21.3589C8.54493 21.194 8.51226 21.0267 8.43051 20.8819C8.4254 20.874 8.3536 20.7106 8.38147 20.8019C8.41819 20.9222 8.35084 20.6234 8.35907 20.6628C8.32886 20.5184 8.30088 20.3735 8.27189 20.2288C8.2074 19.907 8.14343 19.5852 8.07998 19.2632C7.95633 18.6345 7.83636 18.0051 7.72006 17.3751C7.49927 16.1693 7.28999 14.9303 7.13395 13.7335C6.77836 11.2214 6.67594 8.67994 6.82822 6.14737C6.87022 5.55803 6.92899 4.95633 7.01159 4.38472C7.05453 4.0876 7.11317 3.79211 7.14784 3.49391C7.16223 3.3701 7.17117 3.24526 7.18281 3.12116C7.18714 3.07498 7.19147 3.0288 7.1958 2.98262C7.21127 2.81529 7.1656 2.99714 7.2223 2.86735C7.30677 2.59131 7.37498 2.31057 7.42658 2.02656C7.43559 1.99621 7.46742 1.81514 7.45028 1.93229L7.46831 1.90061C7.49703 1.85446 7.49148 1.85779 7.45168 1.91059L7.49852 1.8626C7.42219 1.91874 7.4308 1.91131 7.52436 1.84031C7.57498 1.79364 7.62289 1.74411 7.66785 1.69197C7.59589 1.75534 7.75199 1.64335 7.75679 1.64118C7.58744 1.71799 7.76225 1.648 7.76088 1.6543L7.68962 1.6645C7.76674 1.668 7.77747 1.66563 7.7218 1.65739C7.6092 1.62159 7.82507 1.68763 7.82105 1.68615C7.76765 1.66656 7.7499 1.63021 7.8355 1.70291C7.74216 1.62364 7.88881 1.74306 7.90998 1.76109C8.03576 1.86823 8.15909 1.97816 8.27997 2.09086C9.1071 2.90289 9.88219 3.76617 10.6006 4.67558C11.3571 5.58297 12.1055 6.4887 12.8031 7.43123C13.6015 8.49018 14.313 9.61188 14.9304 10.7854C15.0842 11.0838 15.2311 11.3856 15.371 11.6909C15.4917 11.9539 15.6359 12.2849 15.7243 12.4992C15.9862 13.0739 16.1666 13.6822 16.2603 14.3067C16.297 14.734 16.7238 15.2412 17.2169 15.0347C20.0803 13.8145 23.2421 13.4721 26.3007 14.051C27.1728 14.2257 28.0294 14.4699 28.8624 14.7814C29.3699 14.9702 29.769 14.494 29.819 14.0535C29.9129 13.5157 30.0706 12.991 30.2888 12.4905C30.4739 12.0332 30.7147 11.4917 30.9536 11.0051C31.4821 9.93723 32.0954 8.91335 32.7875 7.94331C33.468 6.98281 34.1838 6.07151 34.9354 5.16455C35.6791 4.26713 36.4099 3.35043 37.2163 2.50773C37.4032 2.31233 37.595 2.12138 37.793 1.93711C37.8919 1.84502 37.9925 1.75469 38.0946 1.6661C38.1483 1.61344 38.2057 1.56469 38.2664 1.52023C38.1624 1.58626 38.406 1.47599 38.2519 1.53242C38.2952 1.51696 38.3397 1.5052 38.385 1.49724C38.1916 1.53198 38.3875 1.50343 38.3833 1.51075L38.3121 1.50056C38.3842 1.52351 38.3954 1.52398 38.3457 1.50199C38.2654 1.43023 38.4294 1.55391 38.4297 1.55416C38.2705 1.43121 38.7367 1.82472 38.5997 1.72722C38.5022 1.6578 38.7096 1.83961 38.5866 1.71519L38.6227 1.77854C38.5945 1.71246 38.5981 1.72915 38.6333 1.82862C38.7036 2.09778 38.7473 2.37929 38.8226 2.64575C38.836 2.69299 38.8602 2.73778 38.8734 2.78566C38.8436 2.67781 38.8773 2.82279 38.8802 2.86161C38.8906 2.99923 38.9045 3.13738 38.919 3.27465C38.981 3.86398 39.0952 4.42866 39.1575 5.01209C39.3959 7.48973 39.3677 9.98575 39.0735 12.4574C38.9249 13.8255 38.7157 15.1766 38.475 16.542C38.3552 17.2217 38.2292 17.9002 38.0968 18.5775C37.9636 19.2656 37.8706 19.9845 37.6794 20.6587C37.6445 20.7874 37.6441 20.923 37.6782 21.0519C37.7123 21.1808 37.7797 21.2985 37.8737 21.3932C39.0379 22.5728 40.1611 23.7933 41.3919 24.9048C41.9346 25.3948 42.482 25.8826 42.9746 26.4241C43.1927 26.6527 43.3899 26.9003 43.5637 27.164C43.6613 27.31 43.7528 27.4601 43.8364 27.6145C43.8845 27.7031 43.9271 27.794 43.9724 27.8838C44.0088 27.9665 44.014 27.9758 43.9879 27.9118C44.0072 27.9588 44.0258 28.0061 44.0437 28.0537C44.1018 28.2437 44.2305 28.4042 44.4034 28.5023C44.5763 28.6003 44.7803 28.6285 44.9733 28.581C45.3376 28.481 45.6481 28.0351 45.5011 27.6524Z" fill="#302813"/>
<path d="M6.3916 3.4968C6.39804 3.46056 6.40716 3.42485 6.41891 3.38996C6.42632 3.23668 6.43375 3.08338 6.44118 2.93008C6.44617 2.81554 6.47346 2.70307 6.52152 2.59896C6.57152 2.29245 6.64405 1.99003 6.73854 1.69416C6.79342 1.5122 6.90915 1.35458 7.0664 1.24763C7.13912 1.15144 7.23132 1.07164 7.33698 1.01343C7.44263 0.955217 7.55939 0.919896 7.67962 0.90977C7.79986 0.899645 7.92088 0.914945 8.03481 0.954668C8.14873 0.99439 8.253 1.05765 8.34081 1.14031C9.4748 2.08099 10.3928 3.26013 11.3369 4.38338C12.2829 5.50881 13.1986 6.66094 14.0428 7.86491C14.8913 9.06405 15.6131 10.3479 16.1965 11.6957C16.7162 12.9104 17.4305 14.4486 16.7451 15.7223C16.6943 15.8271 16.6198 15.9187 16.5273 15.9897C16.4349 16.0607 16.3271 16.1092 16.2127 16.1312C16.1422 16.2166 16.0558 16.2876 15.9584 16.3402C13.5245 17.6891 10.9037 18.8751 9.19702 21.162C8.80365 21.6891 7.81006 21.7558 7.64971 20.96C6.49112 15.21 5.38258 9.35612 6.3916 3.4968Z" fill="#838383"/>
<path d="M8.7886 8.39585C8.79256 8.37354 8.79818 8.35156 8.80541 8.33008L8.81913 8.04694C8.8222 7.97642 8.839 7.90718 8.86858 7.84309C8.89938 7.65438 8.94403 7.4682 9.00219 7.28604C9.03599 7.17402 9.10724 7.07698 9.20404 7.01113C9.24881 6.95191 9.30558 6.90278 9.37063 6.86694C9.43568 6.83111 9.50756 6.80937 9.58158 6.80314C9.65561 6.7969 9.73012 6.80632 9.80025 6.83078C9.87039 6.85523 9.93458 6.89418 9.98865 6.94507C10.6868 7.52419 11.252 8.25014 11.8332 8.94167C12.4156 9.63455 12.9793 10.3439 13.4991 11.0851C14.0215 11.8233 14.4658 12.6137 14.825 13.4435C15.1449 14.1914 15.5848 15.1384 15.1628 15.9225C15.1315 15.9871 15.0856 16.0434 15.0287 16.0871C14.9718 16.1308 14.9054 16.1607 14.835 16.1743C14.7916 16.2268 14.7384 16.2705 14.6784 16.3029C13.18 17.1334 11.5664 17.8636 10.5158 19.2715C10.2736 19.596 9.66188 19.637 9.56315 19.1471C8.84986 15.6071 8.16741 12.0031 8.7886 8.39585Z" fill="#FFFBF0"/>
<path d="M39.6813 3.343C39.6748 3.30676 39.6657 3.27105 39.654 3.23616C39.6465 3.08286 39.6391 2.92956 39.6317 2.77626C39.6267 2.66172 39.5994 2.54925 39.5513 2.44514C39.5013 2.13863 39.4288 1.83621 39.3343 1.54035C39.2794 1.35839 39.1637 1.20076 39.0065 1.09382C38.9337 0.997631 38.8415 0.917829 38.7359 0.859617C38.6302 0.801404 38.5135 0.766088 38.3932 0.755962C38.273 0.745837 38.152 0.761132 38.0381 0.800853C37.9241 0.840575 37.8199 0.903828 37.7321 0.986494C36.5981 1.92717 35.6801 3.10632 34.7359 4.22956C33.79 5.355 32.8743 6.50713 32.0301 7.7111C31.1815 8.91023 30.4598 10.194 29.8764 11.5419C29.3567 12.7566 28.6423 14.2948 29.3277 15.5685C29.3785 15.6733 29.4531 15.7649 29.5455 15.8359C29.638 15.9069 29.7457 15.9554 29.8602 15.9774C29.9307 16.0628 30.017 16.1338 30.1145 16.1864C32.5484 17.5353 35.1692 18.7213 36.8758 21.0082C37.2692 21.5353 38.2628 21.6019 38.4232 20.8062C39.5817 15.0562 40.6903 9.2023 39.6813 3.343Z" fill="#838383"/>
<path d="M36.9365 8.39585C36.9325 8.37354 36.9269 8.35156 36.9197 8.33008L36.906 8.04694C36.9029 7.97642 36.8861 7.90718 36.8565 7.84309C36.8257 7.65438 36.7811 7.46819 36.7229 7.28604C36.6891 7.17402 36.6178 7.07698 36.521 7.01113C36.4763 6.95191 36.4195 6.90278 36.3545 6.86694C36.2894 6.83111 36.2175 6.80937 36.1435 6.80314C36.0695 6.7969 35.995 6.80632 35.9248 6.83078C35.8547 6.85523 35.7905 6.89418 35.7364 6.94507C35.0383 7.52419 34.4731 8.25014 33.8919 8.94167C33.3095 9.63455 32.7458 10.3439 32.226 11.0851C31.7036 11.8233 31.2592 12.6137 30.9001 13.4435C30.5801 14.1914 30.1403 15.1384 30.5623 15.9225C30.5936 15.9871 30.6395 16.0434 30.6964 16.0871C30.7533 16.1308 30.8196 16.1607 30.8901 16.1743C30.9335 16.2268 30.9867 16.2705 31.0467 16.3029C32.5451 17.1334 34.1586 17.8636 35.2093 19.2715C35.4515 19.596 36.0632 19.637 36.1619 19.1471C36.8752 15.6071 37.5577 12.0031 36.9365 8.39585Z" fill="#FFFBF0"/>
<path opacity="0.84" d="M8.7886 8.39585C8.79256 8.37354 8.79818 8.35156 8.80541 8.33008L8.81913 8.04694C8.8222 7.97642 8.839 7.90718 8.86858 7.84309C8.89938 7.65438 8.94403 7.4682 9.00219 7.28604C9.03599 7.17402 9.10724 7.07698 9.20404 7.01113C9.24881 6.95191 9.30558 6.90278 9.37063 6.86694C9.43568 6.83111 9.50756 6.80937 9.58158 6.80314C9.65561 6.7969 9.73012 6.80632 9.80025 6.83078C9.87039 6.85523 9.93458 6.89418 9.98865 6.94507C10.6868 7.52419 11.252 8.25014 11.8332 8.94167C12.4156 9.63455 12.9793 10.3439 13.4991 11.0851C14.0215 11.8233 14.4658 12.6137 14.825 13.4435C15.1449 14.1914 15.5848 15.1384 15.1628 15.9225C15.1315 15.9871 15.0856 16.0434 15.0287 16.0871C14.9718 16.1308 14.9054 16.1607 14.835 16.1743C14.7916 16.2268 14.7384 16.2705 14.6784 16.3029C13.18 17.1334 11.5664 17.8636 10.5158 19.2715C10.2736 19.596 9.66188 19.637 9.56315 19.1471C8.84986 15.6071 8.16741 12.0031 8.7886 8.39585Z" fill="url(#paint0_radial_204_670)"/>
<path opacity="0.84" d="M36.9365 8.39585C36.9325 8.37354 36.9269 8.35156 36.9197 8.33008L36.906 8.04694C36.9029 7.97642 36.8861 7.90718 36.8565 7.84309C36.8257 7.65438 36.7811 7.46819 36.7229 7.28604C36.6891 7.17402 36.6178 7.07698 36.521 7.01113C36.4763 6.95191 36.4195 6.90278 36.3545 6.86694C36.2894 6.83111 36.2175 6.80937 36.1435 6.80314C36.0695 6.7969 35.995 6.80632 35.9248 6.83078C35.8547 6.85523 35.7905 6.89418 35.7364 6.94507C35.0383 7.52419 34.4731 8.25014 33.8919 8.94167C33.3095 9.63455 32.7458 10.3439 32.226 11.0851C31.7036 11.8233 31.2592 12.6137 30.9001 13.4435C30.5801 14.1914 30.1403 15.1384 30.5623 15.9225C30.5936 15.9871 30.6395 16.0434 30.6964 16.0871C30.7533 16.1308 30.8196 16.1607 30.8901 16.1743C30.9335 16.2268 30.9867 16.2705 31.0467 16.3029C32.5451 17.1334 34.1586 17.8636 35.2093 19.2715C35.4515 19.596 36.0632 19.637 36.1619 19.1471C36.8752 15.6071 37.5577 12.0031 36.9365 8.39585Z" fill="url(#paint1_radial_204_670)"/>
<path opacity="0.38" d="M8.86089 42.501C13.071 44.7464 16.5207 48.206 21.2635 49.1021C26.4285 50.078 29.8501 46.3807 34.2835 43.9046C37.705 41.9937 41.633 40.0597 43.6054 36.4882C43.7469 36.2319 43.8741 35.9748 43.9869 35.7169C44.6188 33.6612 45.1359 30.7161 44.0319 28.8334C42.724 26.6031 39.2477 25.4533 36.5713 25.6464C34.0706 25.8269 32.5629 26.3444 30.3066 27.3474C29.6746 27.6283 29.0696 27.963 28.4551 28.279C27.6143 28.5387 26.7509 28.7191 25.9025 28.9587C25.0085 29.2113 24.1495 29.5452 23.2576 29.7803C22.9803 29.7842 22.7032 29.7769 22.4258 29.7612C20.4425 29.3641 18.4967 28.7987 16.6095 28.0711C14.9712 27.2575 13.3703 26.1707 11.5646 25.9127C10.8758 25.8203 10.187 25.7278 9.4982 25.6354C8.11927 25.6332 6.76481 25.9992 5.57502 26.6955C4.20294 27.4945 3.10954 28.6951 2.44266 30.135C1.77578 31.5748 1.56759 33.1846 1.84623 34.7465C2.93697 37.9798 4.90947 40.3937 8.86089 42.501Z" fill="url(#paint2_radial_204_670)"/>
<path d="M44.7724 27.8531C44.0565 25.9426 42.18 24.7345 40.7174 23.2285C36.9047 19.3029 34.5929 16.847 31.1193 14.9852C29.0986 13.8871 26.8672 13.2308 24.5732 13.06C22.2792 12.8892 19.9751 13.2077 17.8137 13.9944C13.828 15.4195 10.9049 17.9858 8.03415 21.0324C4.85811 24.403 1.23784 26.479 0.785866 30.3771C0.215477 35.2965 4.55027 40.2916 8.86083 42.5014C13.1069 44.6782 16.5206 48.2063 21.2634 49.1025C26.4284 50.0784 29.85 46.3811 34.2835 43.905C37.705 41.9941 41.633 40.06 43.6054 36.4886C45.0753 33.8269 45.7314 30.4126 44.7724 27.8531Z" fill="#838383"/>
<path d="M8.86086 42.501C13.0817 44.7262 16.5206 48.206 21.2635 49.1021C26.4284 50.078 29.85 46.3807 34.2835 43.9046C37.705 41.9937 41.633 40.0597 43.6054 36.4882C43.7469 36.2319 43.8741 35.9748 43.9868 35.7169C44.6188 33.6612 45.1359 30.7161 44.0319 28.8334C42.724 26.6031 39.2476 25.4533 36.5713 25.6464C34.0706 25.8269 32.5629 26.3444 30.3065 27.3474C29.6746 27.6283 29.0696 27.963 28.4551 28.279C27.6143 28.5387 26.7509 28.7191 25.9025 28.9587C25.0085 29.2113 24.1495 29.5452 23.2576 29.7803C22.9803 29.7842 22.7032 29.7769 22.4258 29.7612C20.4425 29.3641 18.4966 28.7987 16.6095 28.0711C14.9712 27.2575 13.3703 26.1707 11.5645 25.9127C10.8758 25.8203 10.187 25.7278 9.49817 25.6354C8.11924 25.6332 6.76478 25.9992 5.57499 26.6955C3.83741 27.7123 2.26204 29.0478 1.72759 30.9887C1.42511 32.1506 1.37293 33.3635 1.57449 34.5471C2.57569 37.6773 4.96075 40.4449 8.86086 42.501Z" fill="#FFFBF0"/>
<path d="M17.4596 40.4271C17.9125 40.6352 18.3335 40.9101 18.7649 41.158C19.3065 41.4784 19.8733 41.7542 20.4596 41.9827C21.0937 42.2328 21.7702 42.358 22.4519 42.3514C22.7955 42.3283 23.1374 42.2859 23.4762 42.2245C23.8175 42.1763 24.1601 42.1382 24.5006 42.0843C25.2705 41.9623 26.0061 41.7368 26.6054 41.2198C26.9003 40.9653 26.4711 40.5398 26.1779 40.7928C25.5617 41.3243 24.7294 41.4541 23.9488 41.558C23.1234 41.6679 22.3252 41.8337 21.4959 41.6593C20.7481 41.4817 20.0311 41.1938 19.3684 40.805C18.8333 40.5094 18.321 40.1612 17.7647 39.9056C17.4137 39.7443 17.1062 40.2647 17.4596 40.4271V40.4271Z" fill="#E2DAC5"/>
<path d="M30.0619 36.1247C30.7494 36.2744 31.0882 38.5341 31.1248 39.0885C31.202 40.2599 30.9611 41.5105 30.2855 42.4886C28.4043 45.2126 24.2714 43.5471 22.1963 41.8669C20.5647 40.537 19.4347 38.6921 18.992 36.6354L22.9698 34.5806C22.9698 34.5806 30.0556 36.1234 30.0619 36.1247Z" fill="#C9502B"/>
<path d="M29.9814 36.416C30.0366 36.4339 30.0844 36.4692 30.1179 36.5165C30.1817 36.5968 30.2356 36.6845 30.2787 36.7776C30.3971 37.0291 30.4891 37.2923 30.5532 37.5628C30.6819 38.0367 30.7699 38.5206 30.8162 39.0094C30.9451 40.4882 30.5202 42.3079 29.1836 43.1505C28.1005 43.8333 26.7275 43.6908 25.5586 43.33C24.2835 42.9349 23.1063 42.2752 22.1041 41.3941C20.6748 40.1201 19.6872 38.4258 19.2834 36.5552L19.1445 36.8962L22.6287 35.0963L23.1223 34.8414L22.8894 34.8718C24.9599 35.3226 27.0303 35.7734 29.1008 36.2242C29.3944 36.2881 29.6879 36.352 29.9814 36.416C30.3607 36.4986 30.5227 35.9165 30.1422 35.8336C28.4799 35.4713 26.8175 35.1093 25.1551 34.7477C24.4674 34.598 23.7812 34.4315 23.0901 34.2981C22.876 34.2568 22.7145 34.3729 22.5307 34.4678L21.292 35.1078L18.8394 36.3747C18.7825 36.409 18.7383 36.4608 18.7132 36.5222C18.6882 36.5837 18.6837 36.6515 18.7005 36.7158C19.4264 40.0678 21.9525 42.7525 25.183 43.843C26.5072 44.29 28.0685 44.466 29.3382 43.7611C30.901 42.8934 31.5027 40.9401 31.4357 39.2525C31.4027 38.6172 31.2998 37.9874 31.1288 37.3747C30.9867 36.8453 30.7572 35.995 30.1422 35.8336C30.0659 35.8154 29.9855 35.8275 29.918 35.8674C29.8505 35.9073 29.8011 35.9717 29.7803 36.0473C29.7595 36.1228 29.7688 36.2034 29.8063 36.2722C29.8438 36.341 29.9066 36.3925 29.9814 36.416V36.416Z" fill="#302813"/>
<path d="M23.1213 34.8228C24.6063 36.7195 25.888 38.7666 26.9452 40.9305C27.1128 41.2811 27.6342 40.9751 27.4672 40.6257C26.41 38.4618 25.1283 36.4147 23.6433 34.518C23.601 34.4509 23.5347 34.4024 23.4579 34.3823C23.3811 34.3622 23.2995 34.372 23.2297 34.4097C23.1608 34.4504 23.1108 34.5166 23.0905 34.594C23.0702 34.6713 23.0812 34.7536 23.1213 34.8228Z" fill="#302813"/>
<path d="M28.3193 30.0751C28.619 29.4785 28.5107 26.4985 25.1921 26.6592C23.3683 26.7475 21.5076 26.5173 19.2461 26.7369C17.8364 26.9602 16.6034 28.4801 17.0992 29.9086C17.8078 31.9496 21.6612 34.2067 23.0479 34.1118C24.6589 34.0016 27.4681 31.7696 28.3193 30.0751Z" fill="#302813"/>
<path d="M14.4269 22.6599C14.0511 22.4311 13.3862 22.2611 12.9479 22.6599C12.2295 23.3136 12.8996 25.0833 13.4201 25.6345C13.8811 26.1226 14.6683 26.4492 15.214 26.0579C15.6002 25.781 15.7087 25.2445 15.6501 24.7732C15.5785 24.1971 15.5545 23.3465 14.4269 22.6599Z" fill="#4C1F87"/>
<path d="M14.5795 22.3996C14.2071 22.1694 13.7647 22.0794 13.3319 22.1458C13.1276 22.1851 12.9371 22.2769 12.7791 22.4121C12.6211 22.5474 12.501 22.7214 12.4308 22.917C12.158 23.6319 12.4412 24.5208 12.7603 25.1729C13.1142 25.8959 13.8106 26.541 14.6636 26.5335C14.8964 26.5325 15.1243 26.4671 15.3219 26.3443C15.5196 26.2216 15.6792 26.0464 15.7831 25.8383C15.9538 25.4499 16.0058 25.0197 15.9323 24.6019C15.9012 24.2276 15.8078 23.8611 15.6559 23.5175C15.4111 23.05 15.0376 22.6621 14.5795 22.3996C14.2481 22.1938 13.9442 22.7161 14.2743 22.921C14.5455 23.0752 14.7785 23.2883 14.956 23.5446C15.1336 23.8009 15.2512 24.0938 15.3001 24.4016C15.3132 24.4792 15.3123 24.4758 15.3186 24.5264C15.3255 24.5807 15.3315 24.6351 15.3379 24.6895C15.362 24.8526 15.3677 25.018 15.3548 25.1825C15.3513 25.3338 15.3049 25.4811 15.2209 25.6072C15.1369 25.7332 15.0188 25.8329 14.8804 25.8945C14.5689 26.0023 14.2219 25.8619 13.96 25.6944C13.7236 25.5452 13.5306 25.3367 13.4001 25.0897C13.0933 24.5901 12.9335 24.0144 12.9391 23.4284C12.9316 23.2976 12.9616 23.1675 13.0257 23.0532C13.0897 22.939 13.1851 22.8454 13.3007 22.7835C13.6112 22.6402 13.9965 22.7568 14.2743 22.9211C14.3434 22.9583 14.4242 22.9673 14.4998 22.9462C14.5753 22.925 14.6397 22.8754 14.6793 22.8077C14.7189 22.74 14.7306 22.6596 14.712 22.5835C14.6934 22.5073 14.6458 22.4414 14.5795 22.3996V22.3996Z" fill="#282828"/>
<path d="M32.5812 19.0978C32.5274 18.8618 32.4037 18.6474 32.2263 18.4825C32.0489 18.3176 31.826 18.2098 31.5865 18.1731C31.4689 18.1078 31.3379 18.0705 31.2036 18.0639C30.3825 18.0154 29.2906 18.4251 28.943 19.2336C28.4359 20.4131 29.7289 21.0894 30.7336 21.0058C31.6703 20.9278 32.832 20.1904 32.5812 19.0978Z" fill="#FFFBF0"/>
<path d="M16.3673 18.3649C16.0228 18.2011 15.499 17.9614 15.1071 17.9817C14.8947 17.9787 14.6855 18.0334 14.5017 18.1398C14.3179 18.2462 14.1664 18.4004 14.0633 18.5859C13.84 18.8395 13.7172 19.1661 13.7183 19.5039C13.7021 20.0709 14.1554 20.5293 14.6036 20.7982C15.357 21.2502 16.6392 21.3733 17.3002 20.7017C18.1202 19.8684 17.1523 18.7383 16.3673 18.3649Z" fill="#FFFBF0"/>
<path d="M11.0425 31.7524C12.9434 32.208 13.9195 34.3093 15.5481 35.3893C16.5344 36.0433 17.7361 36.2991 18.9176 36.3731C19.5422 36.4293 20.1717 36.3867 20.783 36.2469C21.3396 36.1233 21.8547 35.8582 22.2785 35.4773C22.7024 35.0963 23.0205 34.6125 23.202 34.0726" fill="#FFFBF0"/>
<path d="M10.9622 32.0439C11.8426 32.2651 12.5201 32.8614 13.1352 33.5C13.7783 34.1677 14.3722 34.8863 15.1146 35.4497C16.0081 36.0884 17.0524 36.4844 18.1451 36.5989C19.2679 36.7497 20.4489 36.7704 21.5079 36.3169C22.4742 35.903 23.1171 35.1171 23.4935 34.1532C23.635 33.7909 23.0506 33.6339 22.9106 33.9926C22.7722 34.3777 22.5588 34.7315 22.2825 35.0336C22.0063 35.3357 21.6729 35.58 21.3014 35.7524C20.324 36.1905 19.1711 36.1453 18.1333 35.9925C17.1079 35.8736 16.1345 35.4773 15.3181 34.8462C14.6466 34.2943 14.095 33.6175 13.4899 32.9978C12.8231 32.3149 12.0669 31.6987 11.1229 31.4616C10.7455 31.3668 10.5845 31.9491 10.9622 32.0439H10.9622Z" fill="#302813"/>
<path d="M23.2021 34.2068C23.3153 34.6173 23.5179 34.9976 23.7955 35.3206C24.0731 35.6436 24.4187 35.9013 24.8077 36.0753C25.634 36.3974 26.5167 36.5502 27.4034 36.5243C28.1555 36.5304 28.9268 36.4761 29.6143 36.1711C31.6753 35.2569 32.3467 32.4436 34.3995 31.5112" fill="#FFFBF0"/>
<path d="M22.9106 34.2867C23.044 34.7467 23.2769 35.1719 23.5929 35.532C23.9089 35.8922 24.3002 36.1787 24.7393 36.3712C25.8109 36.8236 27.0696 36.8946 28.2183 36.8001C29.2097 36.7417 30.1507 36.3436 30.8826 35.673C31.5148 35.0893 31.9987 34.3651 32.5076 33.6773C33.0673 32.9207 33.6811 32.1774 34.5521 31.7716C34.9044 31.6074 34.5977 31.0867 34.2469 31.2501C32.7671 31.9396 32.0175 33.4668 31.0101 34.659C30.473 35.2947 29.8448 35.836 29.0259 36.0585C28.495 36.1866 27.9491 36.2416 27.4034 36.222C26.8496 36.2273 26.2968 36.1737 25.7544 36.0621C25.2157 35.9667 24.7102 35.7361 24.2854 35.3918C23.9128 35.0483 23.6393 34.6112 23.4936 34.1262C23.3749 33.7576 22.791 33.9152 22.9106 34.2867V34.2867Z" fill="#302813"/>
<path d="M14.709 23.4287C14.1135 23.4287 14.1135 24.3513 14.709 24.3513C15.3046 24.3513 15.3046 23.4287 14.709 23.4287Z" fill="white"/>
<path d="M32.1535 23.7358C31.5579 23.7358 31.5579 24.6584 32.1535 24.6584C32.749 24.6584 32.749 23.7358 32.1535 23.7358Z" fill="white"/>
<path d="M7.25839 21.7714C8.12822 20.9856 9.07296 20.2776 9.99063 19.5494C11.1687 18.6145 12.3494 17.6807 13.4874 16.6971C13.7821 16.4424 13.3529 16.0168 13.0599 16.2701C11.9219 17.2537 10.7412 18.1874 9.56314 19.1223C8.64547 19.8506 7.70073 20.5585 6.8309 21.3444C6.54171 21.6056 6.97032 22.0317 7.25839 21.7714V21.7714Z" fill="#302813"/>
<path d="M39.4519 20.9574C37.6361 19.1452 35.8009 17.2721 33.5204 16.0415C33.178 15.8567 32.8724 16.378 33.2153 16.5629C35.4519 17.7699 37.2436 19.6073 39.0244 21.3844C39.0817 21.4379 39.1576 21.4671 39.236 21.4658C39.3144 21.4645 39.3893 21.4327 39.4448 21.3773C39.5002 21.3219 39.532 21.2472 39.5333 21.1688C39.5346 21.0905 39.5054 21.0147 39.4519 20.9574V20.9574Z" fill="#302813"/>
<path d="M33.305 24.6472C33.5529 24.1329 33.2943 23.1069 32.7566 22.8529C30.8786 21.966 29.1863 24.4852 29.1863 25.8185C29.1863 26.636 30.1226 24.928 31.293 24.3791C32.0314 24.0329 33.1278 25.0148 33.305 24.6472Z" fill="#282828"/>
<path d="M33.5661 24.7988C33.6635 24.5521 33.7081 24.2877 33.6967 24.0228C33.6854 23.7578 33.6185 23.4982 33.5003 23.2607C33.393 23.0255 33.2263 22.8222 33.0167 22.6706C32.8071 22.519 32.5617 22.4244 32.3045 22.3959C31.2366 22.225 30.3125 22.8973 29.7003 23.7099C29.406 24.0998 29.1783 24.5358 29.0267 25.0002C28.9242 25.317 28.7691 25.8426 28.9597 26.1545C29.203 26.5529 29.6259 26.2121 29.8457 25.9957C30.1802 25.6347 30.5353 25.2934 30.9092 24.9735C31.0968 24.7987 31.3249 24.6733 31.5731 24.6086C31.8311 24.601 32.0872 24.6558 32.3195 24.7684C32.6729 24.9036 33.3001 25.2688 33.5661 24.7988C33.6033 24.7298 33.6123 24.6491 33.5911 24.5737C33.5699 24.4982 33.5202 24.4339 33.4525 24.3944C33.3848 24.3549 33.3043 24.3431 33.2281 24.3617C33.1519 24.3803 33.0859 24.4277 33.044 24.494C33.0206 24.5354 33.1145 24.4493 33.1333 24.4314C33.1637 24.4026 33.1728 24.4439 33.1201 24.4268C33.175 24.4446 33.0855 24.4161 33.0684 24.4111C33.0282 24.3992 32.9886 24.3862 32.9491 24.3721C32.7682 24.3075 32.5934 24.2269 32.4131 24.1606C32.0105 24.0126 31.567 23.9255 31.1612 24.1086C30.3836 24.4594 29.9008 25.1648 29.2733 25.704C29.2273 25.7434 29.294 25.6887 29.2522 25.7214C29.2392 25.7315 29.2071 25.7412 29.1984 25.7541C29.209 25.7448 29.2217 25.738 29.2354 25.7344C29.2491 25.7309 29.2635 25.7305 29.2773 25.7334C29.3589 25.7463 29.4157 25.8143 29.4777 25.8438C29.4942 25.8516 29.5092 25.8736 29.4898 25.867C29.478 25.863 29.4953 25.8228 29.4881 25.8615C29.4818 25.8953 29.4894 25.8597 29.4892 25.8487C29.4885 25.8148 29.4888 25.7809 29.4902 25.7471C29.4928 25.6796 29.5 25.6123 29.5118 25.5458C29.5833 25.1733 29.7182 24.8159 29.9107 24.489C30.2921 23.8177 30.9047 23.1383 31.6992 22.9914C32.0586 22.9249 32.5739 22.9819 32.8176 23.2851C33.0522 23.5769 33.2045 24.1366 33.044 24.494C33.0061 24.5637 32.9962 24.6452 33.0163 24.722C33.0365 24.7988 33.0852 24.865 33.1525 24.9071C33.2218 24.947 33.3041 24.958 33.3815 24.9377C33.4589 24.9174 33.5252 24.8675 33.5661 24.7988V24.7988Z" fill="#282828"/>
<defs>
<radialGradient id="paint0_radial_204_670" cx="0" cy="0" r="1" gradientUnits="userSpaceOnUse" gradientTransform="translate(12.9642 17.8419) rotate(-111.051) scale(6.56954 3.84995)">
<stop stop-color="#E2DAC5"/>
<stop offset="0.09313" stop-color="#E2DAC5" stop-opacity="0.95675"/>
<stop offset="0.25035" stop-color="#E2DAC5" stop-opacity="0.83998"/>
<stop offset="0.45235" stop-color="#E2DAC5" stop-opacity="0.64995"/>
<stop offset="0.69133" stop-color="#E2DAC5" stop-opacity="0.38641"/>
<stop offset="0.95875" stop-color="#E2DAC5" stop-opacity="0.05422"/>
<stop offset="1" stop-color="#E2DAC5" stop-opacity="0"/>
</radialGradient>
<radialGradient id="paint1_radial_204_670" cx="0" cy="0" r="1" gradientUnits="userSpaceOnUse" gradientTransform="translate(32.4352 17.6888) rotate(-70.7775) scale(7.10129 4.3329)">
<stop stop-color="#E2DAC5"/>
<stop offset="0.09313" stop-color="#E2DAC5" stop-opacity="0.95675"/>
<stop offset="0.25035" stop-color="#E2DAC5" stop-opacity="0.83998"/>
<stop offset="0.45235" stop-color="#E2DAC5" stop-opacity="0.64995"/>
<stop offset="0.69133" stop-color="#E2DAC5" stop-opacity="0.38641"/>
<stop offset="0.95875" stop-color="#E2DAC5" stop-opacity="0.05422"/>
<stop offset="1" stop-color="#E2DAC5" stop-opacity="0"/>
</radialGradient>
<radialGradient id="paint2_radial_204_670" cx="0" cy="0" r="1" gradientUnits="userSpaceOnUse" gradientTransform="translate(23.6063 51.6112) rotate(180) scale(15.375 9.74913)">
<stop stop-color="#E2DAC5"/>
<stop offset="0.09313" stop-color="#E2DAC5" stop-opacity="0.95675"/>
<stop offset="0.25035" stop-color="#E2DAC5" stop-opacity="0.83998"/>
<stop offset="0.45235" stop-color="#E2DAC5" stop-opacity="0.64995"/>
<stop offset="0.69133" stop-color="#E2DAC5" stop-opacity="0.38641"/>
<stop offset="0.95875" stop-color="#E2DAC5" stop-opacity="0.05422"/>
<stop offset="1" stop-color="#E2DAC5" stop-opacity="0"/>
</radialGradient>
</defs>
</svg>
