<svg width="46" height="50" viewBox="0 0 46 50" fill="none" xmlns="http://www.w3.org/2000/svg">
<path d="M44.7662 28.7633C44.0505 26.8531 42.1742 25.6452 40.7119 24.1395C39.88 23.2829 39.1196 22.4964 38.4029 21.7707C38.4077 21.7527 38.4142 21.7365 38.418 21.7175C39.5764 15.9685 40.6848 9.19847 39.6759 3.34013L39.6755 3.33737C39.6622 3.19569 39.6408 2.96785 39.6275 2.82617C39.6292 2.6938 39.6014 2.56271 39.546 2.44242C39.4961 2.13596 39.4235 1.8336 39.3291 1.53778C39.2742 1.35585 39.1585 1.19824 39.0012 1.09132C38.9285 0.995149 38.8364 0.91536 38.7307 0.857158C38.6251 0.798955 38.5084 0.763644 38.3881 0.75352C38.2679 0.743397 38.1469 0.75869 38.033 0.798404C37.9191 0.838119 37.8149 0.901361 37.7271 0.984014C36.5933 1.92453 35.6754 3.10349 34.7314 4.22655C33.7329 5.41448 32.7682 6.63213 31.8857 7.90913C31.0797 9.0779 30.3923 10.324 29.8336 11.6288C29.5167 12.3667 29.1441 13.2157 29.0597 14.049C25.4382 12.6863 21.4477 12.6653 17.812 13.9899C17.5398 14.0872 17.2749 14.1922 17.0144 14.3021C16.9518 13.4467 16.572 12.5694 16.2451 11.808C15.6808 10.4884 14.9859 9.22831 14.1709 8.04664C13.2914 6.77557 12.3306 5.56318 11.3363 4.38028C10.3923 3.25722 9.47448 2.07827 8.3407 1.13776C8.25289 1.0551 8.14864 0.991855 8.03474 0.95214C7.92083 0.912425 7.79983 0.897127 7.67961 0.90725C7.55939 0.917374 7.44266 0.95269 7.33701 1.01089C7.23137 1.0691 7.13919 1.14888 7.06648 1.24505C6.90927 1.35199 6.79356 1.50959 6.73869 1.69151C6.64422 1.98733 6.5717 2.2897 6.5217 2.59616C6.46637 2.71645 6.43854 2.84753 6.44024 2.9799C6.42696 3.12158 6.40557 3.34943 6.39227 3.49111L6.39182 3.49385C5.38296 9.3522 6.49131 15.893 7.64971 21.6419C7.67067 21.7508 7.71434 21.8541 7.77789 21.945C4.96113 24.958 1.24439 27.0871 0.805953 30.8685C0.235658 35.7871 4.55075 40.8437 8.8606 42.9506C13.1467 45.046 16.5191 48.1961 21.2612 49.0921C26.4253 50.0678 29.8463 46.3712 34.279 43.8955C37.7 41.9849 41.6273 40.9682 43.5994 37.3973C45.0691 34.7361 45.7251 31.3224 44.7662 28.7633Z" fill="#838383"/>
<path d="M45.4948 28.5623C44.9097 27.0387 43.7606 25.9266 42.5726 24.854C41.302 23.7068 40.139 22.4544 38.9372 21.2367L39.1315 21.9711C39.3014 21.372 39.3827 20.7327 39.4988 20.1209C39.6183 19.4908 39.7328 18.8597 39.8422 18.2277C40.0739 16.8825 40.2767 15.5322 40.4414 14.1771C40.7861 11.5735 40.8955 8.94424 40.7682 6.32107C40.7295 5.67147 40.6705 5.02298 40.5873 4.37754C40.5451 4.05006 40.4999 3.72291 40.4474 3.3969C40.4339 3.31252 40.4106 3.22427 40.4045 3.13912C40.4064 3.16564 40.4299 3.38781 40.418 3.1985C40.4085 3.04579 40.3927 2.89214 40.3797 2.73969C40.3343 2.38502 40.2608 2.03451 40.1598 1.69147C40.0911 1.32105 39.9274 0.974778 39.6846 0.686519C39.6532 0.653509 39.622 0.625128 39.588 0.59548L39.4351 0.477457C39.5077 0.518169 39.5106 0.50968 39.4438 0.45199C39.3418 0.335658 39.2155 0.243174 39.0737 0.181103C38.7366 0.00654659 38.3487 -0.0438539 37.9781 0.0387368C37.3188 0.180598 36.7884 0.7821 36.3314 1.24337C35.865 1.71413 35.4312 2.2157 35.0055 2.72302C34.1235 3.77406 33.2441 4.82715 32.4094 5.91633C31.4825 7.09369 30.656 8.34664 29.9388 9.66202C29.5959 10.3106 29.294 10.9775 29.008 11.6527C28.6577 12.4128 28.4205 13.22 28.3041 14.0486L29.2605 13.3208C26.1469 12.1703 22.7645 11.9544 19.5296 12.6996C18.6009 12.9131 17.6923 13.2056 16.8135 13.5739L17.77 14.3018C17.6508 12.9111 17.0102 11.5827 16.3989 10.3459C15.806 9.1646 15.1141 8.0355 14.3307 6.97069C13.5163 5.84875 12.6442 4.77164 11.7551 3.70842C10.9168 2.70597 10.0985 1.67574 9.11461 0.808823C8.58367 0.340994 7.96245 -0.0175452 7.2343 0.232762C7.08874 0.28154 6.95147 0.352162 6.82718 0.442211C6.73684 0.505184 6.65285 0.576775 6.57636 0.655972C6.69335 0.532032 6.51311 0.71612 6.45476 0.770733C6.18974 1.04234 6.00812 1.38407 5.93136 1.75552C5.85524 2.03751 5.78505 2.32728 5.72537 2.61155C5.6979 2.77924 5.67995 2.94834 5.67161 3.11806C5.6643 3.19592 5.65434 3.27416 5.64964 3.35222C5.63582 3.58166 5.68959 3.14075 5.64812 3.3812C5.52942 4.06929 5.44209 4.76442 5.37642 5.45948C5.15784 8.12006 5.21237 10.796 5.53914 13.4455C5.70937 14.9766 5.93583 16.5015 6.19802 18.0195C6.32235 18.7393 6.45382 19.4579 6.59244 20.1752C6.66014 20.5279 6.72903 20.8804 6.7991 21.2327C6.87298 21.6047 6.91512 21.9998 7.12543 22.3256L7.24358 21.4109C5.55525 23.21 3.51098 24.674 1.96057 26.6024C1.17652 27.5269 0.593879 28.6044 0.24978 29.7662C-0.0610918 31.0184 -0.0820673 32.325 0.188438 33.5865C0.694293 36.1661 2.22163 38.5064 4.04514 40.3572C4.97249 41.2988 6.00421 42.1318 7.12034 42.8401C8.21597 43.5338 9.41167 44.0566 10.5329 44.7085C14.979 47.2933 19.8156 51.081 25.2969 49.7093C27.6837 49.1121 29.7523 47.6864 31.7743 46.347C32.8428 45.6392 33.9185 44.9393 35.0496 44.3342C36.1112 43.7664 37.2097 43.2723 38.2903 42.7424C40.473 41.6719 42.5861 40.3774 43.9396 38.298C44.6787 37.127 45.2265 35.8458 45.5623 34.5027C45.9267 33.1845 46.0468 31.8108 45.9169 30.4495C45.8523 29.8058 45.7106 29.1722 45.4947 28.5623C45.437 28.3721 45.3083 28.2114 45.1354 28.1133C44.9624 28.0152 44.7583 27.9872 44.5653 28.0351C44.373 28.0897 44.2098 28.2177 44.1111 28.3914C44.0124 28.5651 43.9859 28.7706 44.0376 28.9636C44.4748 30.152 44.5389 31.2227 44.4053 32.5134C44.3324 33.1181 44.2139 33.7165 44.0507 34.3034C43.9647 34.6134 43.8676 34.9199 43.7593 35.2231C43.6443 35.545 43.5432 35.7981 43.4285 36.0526C42.9763 37.1396 42.3039 38.1213 41.4534 38.936C41.2649 39.1148 41.0696 39.2859 40.8673 39.4494C40.8123 39.494 40.757 39.5382 40.7011 39.5815C40.8221 39.4878 40.6365 39.6289 40.6285 39.6348C40.5146 39.7191 40.3992 39.8015 40.2824 39.8819C39.8099 40.2042 39.3212 40.5022 38.8182 40.7745C37.8132 41.3248 36.7697 41.8 35.7386 42.2984C34.6368 42.8257 33.5651 43.4135 32.5282 44.0589C30.5158 45.3217 28.6057 46.7907 26.4163 47.7453C26.1987 47.8402 26.5507 47.6945 26.33 47.781C26.2628 47.8073 26.196 47.8347 26.1287 47.8606C25.9943 47.9123 25.8589 47.9615 25.7227 48.0082C25.4504 48.1014 25.1744 48.1838 24.8952 48.2537C24.6378 48.3181 24.378 48.3715 24.1157 48.4139C24.1031 48.4159 23.8652 48.4494 24.0275 48.4284C23.9547 48.4378 23.8816 48.446 23.8086 48.4534C23.6362 48.4708 23.4634 48.4831 23.2902 48.4901C23.0112 48.5015 22.7322 48.4993 22.4529 48.4836C22.1752 48.4706 21.8985 48.4404 21.6245 48.3932C20.9673 48.2781 20.3191 48.1166 19.6848 47.91C18.5173 47.5244 17.3909 47.0246 16.3219 46.4176C15.1845 45.7948 14.0871 45.1032 12.9839 44.4227C11.8821 43.7431 10.7723 43.0735 9.61776 42.4861C9.07349 42.2092 8.53134 41.939 8.01153 41.6171C7.77325 41.4695 7.5391 41.3155 7.30911 41.1551C7.02171 40.9549 6.79883 40.7884 6.58812 40.6198C5.61284 39.8365 4.727 38.9482 3.94667 37.971C3.85225 37.8531 3.63905 37.5634 3.4947 37.3552C3.29931 37.0735 3.11424 36.7849 2.93947 36.4896C2.79358 36.2422 2.65583 35.9903 2.52624 35.7339C2.45637 35.5952 2.38916 35.4552 2.3246 35.3139C2.29785 35.2553 2.2716 35.1965 2.24586 35.1375C2.22509 35.0893 2.22524 35.0903 2.2463 35.1406C2.22657 35.0933 2.20716 35.0458 2.18807 34.9982C1.96043 34.4353 1.7838 33.8532 1.66032 33.2587C1.63031 33.112 1.60602 32.9646 1.58126 32.817C1.54184 32.5819 1.58984 32.9002 1.57267 32.7592C1.56517 32.6977 1.55826 32.636 1.55195 32.5743C1.51951 32.254 1.50613 31.9321 1.51188 31.6103C1.51561 31.3381 1.53507 31.0664 1.57017 30.7965C1.54775 30.9622 1.58314 30.73 1.58581 30.7147C1.59794 30.6451 1.61125 30.5758 1.62575 30.5068C1.65437 30.3704 1.68755 30.235 1.72532 30.1008C1.76259 29.9682 1.80417 29.837 1.85007 29.7071C1.87285 29.6426 1.89665 29.5784 1.92146 29.5146C1.92761 29.4988 2.01595 29.2914 1.94942 29.4426C2.05934 29.1928 2.18284 28.9492 2.31935 28.7128C2.44556 28.4943 2.58231 28.2819 2.72704 28.0752C2.8069 27.9611 2.8892 27.8488 2.97393 27.7381C2.87956 27.8613 3.02221 27.6785 3.02911 27.6699C3.0882 27.5964 3.14813 27.5236 3.20893 27.4515C3.56712 27.0263 3.95217 26.6243 4.34877 26.2349C5.22038 25.3789 6.14762 24.5822 7.03768 23.7458C7.47445 23.3354 7.90197 22.9154 8.31211 22.4784C8.42796 22.359 8.50207 22.2055 8.52336 22.0406C8.54465 21.8758 8.51199 21.7085 8.43025 21.5637C8.40486 21.5243 8.36164 21.3756 8.39537 21.5111C8.38237 21.4589 8.3718 21.407 8.36077 21.3542C8.33056 21.2093 8.30254 21.064 8.27364 20.9188C8.2124 20.6112 8.15196 20.3034 8.0923 19.9954C7.97418 19.3849 7.86027 18.7736 7.75057 18.1616C7.64256 17.5556 7.54027 16.9486 7.44371 16.3406C7.35287 15.7654 7.25959 15.1339 7.19062 14.6053C6.83913 12.1035 6.702 9.57627 6.78069 7.05115C6.80629 6.42924 6.85087 5.80848 6.91446 5.1889C6.97672 4.59224 7.07946 4.10655 7.14779 3.49076C7.16154 3.36684 7.17111 3.24222 7.18275 3.11807C7.18708 3.0719 7.19141 3.02573 7.19574 2.97955C7.21556 2.76519 7.14548 3.04312 7.22221 2.86429C7.31523 2.57477 7.38786 2.27911 7.43958 1.97947L7.46721 1.89182C7.43903 1.95095 7.44537 1.94236 7.48623 1.86606C7.41782 1.93625 7.47288 1.86148 7.4984 1.85972L7.44776 1.89645C7.52622 1.85512 7.59377 1.79584 7.64489 1.72343C7.65878 1.70338 7.75117 1.62159 7.64305 1.70505C7.64338 1.7048 7.8074 1.58114 7.72712 1.65288L7.69763 1.66744C7.78442 1.64782 7.7817 1.64588 7.68946 1.66164C7.69805 1.67634 7.8029 1.6666 7.68781 1.64814C7.73299 1.6565 7.77747 1.66825 7.82088 1.6833C7.76097 1.65696 7.75511 1.65649 7.80332 1.6819C7.92503 1.74688 7.6595 1.5544 7.87548 1.72901C7.93381 1.77617 7.98973 1.8267 8.04602 1.87628C8.14742 1.96563 8.24722 2.05673 8.34545 2.14958C8.58585 2.37661 8.81715 2.61317 9.04194 2.8556C9.45166 3.29747 9.8398 3.7586 10.2252 4.22159C11.0221 5.17886 11.8327 6.1388 12.5756 7.12428C13.425 8.22605 14.1838 9.39466 14.8446 10.6187C15.1468 11.1931 15.4599 11.8697 15.6883 12.4118C15.8183 12.7203 15.9411 13.0325 16.0437 13.3513C16.1484 13.6598 16.2205 13.9783 16.2588 14.3018C16.2954 14.729 16.7222 15.2362 17.2152 15.0296C20.0781 13.8096 23.2394 13.4673 26.2975 14.0461C27.1694 14.2208 28.0259 14.465 28.8588 14.7765C29.3662 14.9652 29.7653 14.4891 29.8152 14.0486C29.9215 13.4513 30.1026 12.8698 30.3541 12.3176C30.5515 11.8459 30.8181 11.256 31.0735 10.7525C31.6572 9.62115 32.3309 8.53854 33.0882 7.51508C33.8133 6.5203 34.5879 5.57073 35.3811 4.62216C36.1715 3.677 36.9431 2.70759 37.854 1.87308C37.9645 1.77185 38.0755 1.6694 38.1921 1.57528C38.2015 1.56772 38.3182 1.47362 38.2323 1.54634L38.2963 1.51C38.2247 1.53674 38.2303 1.53653 38.3131 1.50936C38.3603 1.50269 38.439 1.51125 38.3121 1.50723C38.5245 1.51395 38.21 1.49978 38.3384 1.50573C38.3982 1.5085 38.2695 1.41592 38.3689 1.51552C38.511 1.65796 38.3015 1.3955 38.4227 1.56971L38.4669 1.62471C38.6375 1.75394 38.6716 1.78104 38.5692 1.706C38.5753 1.70752 38.6831 1.81603 38.5814 1.71234C38.691 1.82411 38.5813 1.68721 38.6142 1.78192C38.6393 1.85433 38.6591 1.92919 38.6791 2.00313C38.7196 2.15317 38.7545 2.30458 38.7838 2.45735C38.7953 2.51642 38.8012 2.58407 38.8174 2.64274C38.8382 2.68785 38.8552 2.73465 38.8681 2.78264C38.868 2.72535 38.8686 2.72539 38.8702 2.78276C39.0204 3.94627 39.1683 4.95915 39.2458 6.1425C39.383 8.62431 39.3007 11.1134 38.9998 13.5807C38.8487 14.9315 38.6557 16.2339 38.4231 17.6034C38.308 18.281 38.1863 18.9574 38.058 19.6327C37.937 20.2729 37.852 20.9429 37.6743 21.5698C37.6394 21.6985 37.639 21.834 37.6731 21.9629C37.7072 22.0918 37.7746 22.2095 37.8686 22.3041C39.0326 23.4836 40.1556 24.7039 41.3862 25.8152C41.9288 26.3051 42.4761 26.7929 42.9686 27.3342C43.1867 27.5628 43.3838 27.8104 43.5576 28.0741C43.6552 28.22 43.7467 28.3701 43.8303 28.5245C43.8783 28.613 43.921 28.7039 43.9663 28.7937C44.0027 28.8764 44.0078 28.8857 43.9817 28.8216C44.0011 28.8687 44.0197 28.916 44.0375 28.9636C44.0956 29.1535 44.2243 29.314 44.3972 29.4121C44.5701 29.5101 44.774 29.5383 44.967 29.4908C45.3313 29.3908 45.6417 28.9449 45.4948 28.5623Z" fill="#302813"/>
<path d="M6.39172 3.49344C6.39815 3.45721 6.40728 3.4215 6.41902 3.38662C6.42644 3.23337 6.43385 3.0801 6.44128 2.92681C6.44627 2.81229 6.47355 2.69985 6.52161 2.59575C6.5716 2.28929 6.64412 1.98692 6.7386 1.6911C6.79346 1.50918 6.90917 1.35157 7.0664 1.24464C7.13911 1.14847 7.23129 1.06869 7.33693 1.01048C7.44257 0.95228 7.55931 0.916964 7.67952 0.90684C7.79974 0.896717 7.92075 0.912014 8.03465 0.95173C8.14856 0.991446 8.2528 1.05469 8.3406 1.13735C9.47438 2.07786 10.3923 3.25682 11.3362 4.37987C12.282 5.50513 13.1976 6.65706 14.0416 7.86084C14.89 9.05976 15.6117 10.3434 16.195 11.691C16.7146 12.9055 17.4288 14.4434 16.7435 15.7169C16.6928 15.8217 16.6182 15.9133 16.5258 15.9843C16.4333 16.0553 16.3256 16.1037 16.2111 16.1258C16.1407 16.2112 16.0543 16.2821 15.9569 16.3348C13.5234 17.6834 10.903 18.8692 9.19667 21.1557C8.80336 21.6827 7.80994 22.4372 7.64962 21.6415C6.49121 15.8925 5.38286 9.3518 6.39172 3.49344Z" fill="#838383"/>
<path d="M8.78845 8.39315C8.7924 8.37084 8.79801 8.34886 8.80525 8.32739L8.81897 8.04429C8.82204 7.97379 8.83884 7.90456 8.86842 7.84048C8.8992 7.6518 8.94384 7.46564 9.002 7.28352C9.03579 7.17152 9.10702 7.07449 9.20381 7.00865C9.24858 6.94944 9.30533 6.90032 9.37037 6.86449C9.43541 6.82866 9.50728 6.80692 9.58129 6.80069C9.65531 6.79446 9.7298 6.80388 9.79993 6.82833C9.87005 6.85278 9.93424 6.89172 9.98829 6.94261C10.6863 7.52163 11.2514 8.24746 11.8325 8.93887C12.4148 9.63164 12.9785 10.3408 13.4981 11.0819C14.0205 11.8201 14.4648 12.6103 14.8239 13.44C15.1437 14.1877 15.5835 15.1345 15.1616 15.9186C15.1303 15.9831 15.0844 16.0395 15.0275 16.0832C14.9706 16.1269 14.9043 16.1567 14.8338 16.1703C14.7904 16.2228 14.7373 16.2665 14.6773 16.2989C13.1791 17.1292 11.5658 17.8593 10.5153 19.267C10.2732 19.5914 9.66158 19.6325 9.56287 19.1426C8.8497 15.6032 8.16734 11.9998 8.78845 8.39315Z" fill="#FFFBF0"/>
<path d="M39.6759 3.34013C39.6695 3.3039 39.6603 3.26819 39.6486 3.23331C39.6412 3.08004 39.6338 2.92676 39.6263 2.77349C39.6213 2.65897 39.5941 2.54652 39.546 2.44242C39.496 2.13596 39.4235 1.8336 39.329 1.53778C39.2742 1.35585 39.1584 1.19824 39.0012 1.09132C38.9285 0.995149 38.8363 0.91536 38.7307 0.857158C38.625 0.798955 38.5083 0.763644 38.3881 0.75352C38.2679 0.743397 38.1469 0.75869 38.033 0.798404C37.9191 0.838119 37.8148 0.901361 37.727 0.984014C36.5932 1.92453 35.6754 3.10349 34.7314 4.22655C33.7856 5.3518 32.8701 6.50374 32.026 7.70751C31.1776 8.90644 30.4559 10.19 29.8726 11.5377C29.353 12.7522 28.6388 14.2901 29.3241 15.5636C29.3749 15.6684 29.4494 15.76 29.5418 15.831C29.6343 15.9019 29.742 15.9504 29.8565 15.9725C29.9269 16.0578 30.0133 16.1288 30.1107 16.1814C32.5442 17.5301 35.1646 18.7159 36.8709 21.0024C37.2642 21.5294 38.2577 22.5131 38.418 21.7175C39.5764 15.9685 40.6847 9.19847 39.6759 3.34013Z" fill="#838383"/>
<path d="M36.9318 8.39315C36.9278 8.37084 36.9222 8.34886 36.915 8.32739L36.9012 8.04429C36.8982 7.97379 36.8814 7.90456 36.8518 7.84048C36.821 7.6518 36.7764 7.46564 36.7182 7.28352C36.6844 7.17152 36.6132 7.0745 36.5164 7.00865C36.4716 6.94944 36.4149 6.90032 36.3498 6.86449C36.2848 6.82866 36.2129 6.80692 36.1389 6.80069C36.0649 6.79446 35.9904 6.80388 35.9203 6.82833C35.8502 6.85278 35.786 6.89172 35.7319 6.94261C35.0339 7.52163 34.4688 8.24746 33.8877 8.93887C33.3054 9.63164 32.7417 10.3408 32.2221 11.0819C31.6998 11.8201 31.2555 12.6103 30.8963 13.44C30.5765 14.1877 30.1367 15.1345 30.5586 15.9186C30.5899 15.9831 30.6358 16.0395 30.6927 16.0832C30.7496 16.1269 30.8159 16.1567 30.8864 16.1703C30.9298 16.2228 30.9829 16.2665 31.0429 16.2989C32.5411 17.1292 34.1544 17.8593 35.2049 19.267C35.447 19.5914 36.0586 19.6325 36.1573 19.1426C36.8705 15.6032 37.5529 11.9998 36.9318 8.39315Z" fill="#FFFBF0"/>
<path opacity="0.84" d="M8.78845 8.39315C8.7924 8.37084 8.79801 8.34886 8.80525 8.32739L8.81897 8.04429C8.82204 7.97379 8.83884 7.90456 8.86842 7.84048C8.8992 7.6518 8.94384 7.46564 9.002 7.28352C9.03579 7.17152 9.10702 7.07449 9.20381 7.00865C9.24858 6.94944 9.30533 6.90032 9.37037 6.86449C9.43541 6.82866 9.50728 6.80692 9.58129 6.80069C9.65531 6.79446 9.7298 6.80388 9.79993 6.82833C9.87005 6.85278 9.93424 6.89172 9.98829 6.94261C10.6863 7.52163 11.2514 8.24746 11.8325 8.93887C12.4148 9.63164 12.9785 10.3408 13.4981 11.0819C14.0205 11.8201 14.4648 12.6103 14.8239 13.44C15.1437 14.1877 15.5835 15.1345 15.1616 15.9186C15.1303 15.9831 15.0844 16.0395 15.0275 16.0832C14.9706 16.1269 14.9043 16.1567 14.8338 16.1703C14.7904 16.2228 14.7373 16.2665 14.6773 16.2989C13.1791 17.1292 11.5658 17.8593 10.5153 19.267C10.2732 19.5914 9.66158 19.6325 9.56287 19.1426C8.8497 15.6032 8.16734 11.9998 8.78845 8.39315Z" fill="url(#paint0_radial_204_569)"/>
<path opacity="0.84" d="M36.9318 8.39315C36.9278 8.37084 36.9222 8.34886 36.915 8.32739L36.9012 8.04429C36.8982 7.97379 36.8814 7.90456 36.8518 7.84048C36.821 7.6518 36.7764 7.46564 36.7182 7.28352C36.6844 7.17152 36.6132 7.0745 36.5164 7.00865C36.4716 6.94944 36.4149 6.90032 36.3498 6.86449C36.2848 6.82866 36.2129 6.80692 36.1389 6.80069C36.0649 6.79446 35.9904 6.80388 35.9203 6.82833C35.8502 6.85278 35.786 6.89172 35.7319 6.94261C35.0339 7.52163 34.4688 8.24746 33.8877 8.93887C33.3054 9.63164 32.7417 10.3408 32.2221 11.0819C31.6998 11.8201 31.2555 12.6103 30.8963 13.44C30.5765 14.1877 30.1367 15.1345 30.5586 15.9186C30.5899 15.9831 30.6358 16.0395 30.6927 16.0832C30.7496 16.1269 30.8159 16.1567 30.8864 16.1703C30.9298 16.2228 30.9829 16.2665 31.0429 16.2989C32.5411 17.1292 34.1544 17.8593 35.2049 19.267C35.447 19.5914 36.0586 19.6325 36.1573 19.1426C36.8705 15.6032 37.5529 11.9998 36.9318 8.39315Z" fill="url(#paint1_radial_204_569)"/>
<path d="M44.7662 28.7633C44.0505 26.8531 42.1743 25.6452 40.7119 24.1395C36.8998 20.2145 34.5885 16.842 31.1154 14.9805C29.0951 13.8825 26.864 13.2264 24.5704 13.0556C22.2767 12.8848 19.973 13.2033 17.812 13.9899C13.827 15.4147 10.9043 18.6684 8.03404 21.7145C4.85853 25.0845 1.23886 27.1602 0.786957 31.0576C0.21666 35.9762 4.55074 40.7412 8.8606 42.9507C13.106 45.1271 16.5191 48.1961 21.2612 49.0921C26.4253 50.0679 29.8463 46.3712 34.279 43.8955C37.7 41.9849 41.6273 40.9682 43.5994 37.3974C45.0691 34.7361 45.7251 31.3224 44.7662 28.7633Z" fill="#838383"/>
<path d="M8.86052 42.9508C13.0807 45.1757 16.5191 48.1963 21.2611 49.0923C26.4252 50.068 29.8462 46.3714 34.279 43.8957C37.6999 41.9851 41.6272 40.9684 43.5993 37.3975C43.7408 37.1413 43.868 36.8842 43.9807 36.6264C44.6126 34.571 45.1296 31.6264 44.0257 29.744C42.7181 27.514 39.2423 25.4473 36.5664 25.6405C34.0661 25.8209 32.5586 26.3383 30.3027 27.3412C29.6708 27.6221 29.0659 27.9567 28.4515 28.2726C27.6109 28.5323 26.7476 28.7126 25.8993 28.9522C25.0055 29.2047 24.1466 29.5386 23.2549 29.7737C22.9776 29.7776 22.7006 29.7703 22.4232 29.7546C20.4402 29.3575 18.4947 28.7922 16.6079 28.0648C14.9699 27.2513 13.3692 26.1647 11.5638 25.9068C10.8751 25.8143 10.1864 25.7219 9.49773 25.6294C8.09486 25.6338 6.78736 26.6749 5.57518 27.3772C3.83788 28.3938 2.2628 29.729 1.72843 31.6696C1.42601 32.8314 1.37383 34.0441 1.57535 35.2275C2.57639 38.3571 4.96106 40.8951 8.86052 42.9508Z" fill="#FFFBF0"/>
<path opacity="0.38" d="M8.86062 42.9508C13.0701 45.1958 16.5191 48.1963 21.2612 49.0923C26.4253 50.068 29.8463 46.3714 34.279 43.8957C37.7 41.9851 41.6273 40.9684 43.5994 37.3975C43.7409 37.1413 43.868 36.8842 43.9808 36.6264C44.6127 34.571 45.1297 31.6264 44.0258 29.744C42.7182 27.514 39.2424 25.4473 36.5665 25.6405C34.0662 25.8209 32.5587 26.3383 30.3027 27.3412C29.6709 27.6221 29.066 27.9567 28.4516 28.2726C27.611 28.5323 26.7477 28.7126 25.8994 28.9522C25.0056 29.2047 24.1467 29.5386 23.255 29.7737C22.9777 29.7776 22.7007 29.7703 22.4233 29.7546C20.4403 29.3575 18.4948 28.7922 16.608 28.0648C14.97 27.2513 13.3693 26.1647 11.5639 25.9068C10.8752 25.8143 10.1865 25.7219 9.49783 25.6294C8.09496 25.6338 6.78746 26.6749 5.57528 27.3772C4.20343 28.176 3.11022 29.3764 2.44345 30.8161C1.77669 32.2557 1.56853 33.8652 1.84713 35.4268C2.93769 38.6596 4.90986 40.8438 8.86062 42.9508Z" fill="url(#paint2_radial_204_569)"/>
<path d="M28.3157 30.0677C28.6153 29.4712 28.5071 26.4917 25.189 26.6524C23.3656 26.7407 21.5052 26.5105 19.244 26.73C17.8345 26.9533 16.6018 28.473 17.0975 29.9012C17.8059 31.9419 21.6587 34.1986 23.0452 34.1037C24.6559 33.9935 27.4647 31.7619 28.3157 30.0677Z" fill="#302813"/>
<path d="M33.3619 22.7321C33.7494 23.1515 33.4502 23.8213 33.0103 24.2211C31.4743 25.6174 28.804 24.5904 29.0811 22.8147C29.2071 22.0071 29.8571 23.3039 31.1367 23.4869C31.9441 23.6024 33.0849 22.4324 33.3619 22.7321Z" fill="#302813"/>
<path d="M33.1483 22.9455C33.4426 23.2913 33.0113 23.8211 32.7557 24.044C32.4648 24.291 32.1146 24.4583 31.7394 24.5292C31.3978 24.6 31.0443 24.5905 30.707 24.5014C30.3696 24.4124 30.0576 24.2462 29.7956 24.0161C29.5687 23.8101 29.4191 23.5327 29.3717 23.2301C29.357 23.0951 29.3618 22.9588 29.386 22.8252C29.4009 22.7294 29.4193 22.7964 29.3457 22.829C29.3037 22.8446 29.2588 22.8508 29.2141 22.8473C29.268 22.8433 29.2354 22.8512 29.2371 22.852C29.5033 23.0123 29.7607 23.1866 30.0083 23.3742C30.3706 23.6148 30.788 23.76 31.2215 23.7962C31.6643 23.8107 32.0932 23.5851 32.4683 23.376C32.6478 23.2759 32.8232 23.1678 33.0063 23.0744C33.0682 23.0414 33.1329 23.014 33.1997 22.9924C33.2692 22.9693 33.2292 22.994 33.2261 22.9848C33.2621 22.9859 33.2575 22.9847 33.2124 22.9812C33.1885 22.9744 33.1666 22.9622 33.1483 22.9455C33.4313 23.2119 33.8595 22.7857 33.5757 22.5185C33.2704 22.2311 32.8479 22.4685 32.5471 22.6362C32.1775 22.8423 31.783 23.1324 31.3523 23.1878C30.9033 23.2456 30.422 22.9381 30.0717 22.6936C29.8205 22.5181 29.4916 22.1786 29.1516 22.2633C28.7529 22.3627 28.7347 22.9208 28.7693 23.2455C28.8174 23.681 29.0123 24.0871 29.3219 24.3974C29.658 24.714 30.0658 24.9447 30.5104 25.0699C30.9551 25.195 31.4235 25.2109 31.8756 25.1161C32.4431 25.0092 32.9616 24.7241 33.3556 24.3023C33.8019 23.8074 34.0512 23.0772 33.5757 22.5185C33.3234 22.222 32.8976 22.6509 33.1483 22.9455Z" fill="#302813"/>
<path d="M13.2001 22.6681C12.7969 23.0724 13.0703 23.7532 13.4945 24.1695C14.9762 25.6233 17.6837 24.6989 17.4747 22.9139C17.3796 22.1021 16.6805 23.3731 15.3948 23.5072C14.5837 23.5918 13.4884 22.3792 13.2001 22.6681Z" fill="#302813"/>
<path d="M12.9862 22.454C12.5657 22.9116 12.668 23.5503 12.9941 24.0336C13.307 24.4792 13.7493 24.8182 14.2612 25.0047C14.6959 25.1686 15.1636 25.2261 15.6251 25.1722C16.0865 25.1184 16.5284 24.9548 16.9135 24.6953C17.2718 24.4494 17.5443 24.098 17.693 23.69C17.809 23.3566 17.8869 22.7755 17.6243 22.4866C17.3686 22.2054 17.0145 22.4047 16.7607 22.5729C16.391 22.8555 15.9694 23.0629 15.5199 23.1835C15.0231 23.2846 14.5697 22.947 14.1696 22.6971C13.8382 22.4901 13.3554 22.1321 12.9862 22.454C12.6926 22.71 13.1216 23.1356 13.4137 22.881C13.392 22.8998 13.326 22.9114 13.3141 22.9248C13.3266 22.9107 13.3072 22.9136 13.3351 22.9287C13.3883 22.9576 13.412 22.9545 13.4814 22.9906C13.6425 23.0745 13.7947 23.1752 13.9487 23.2711C14.2711 23.4987 14.6301 23.6696 15.0101 23.7765C15.8283 23.9526 16.5321 23.4167 17.1855 23.0168C17.2121 23.0005 17.2389 22.9847 17.2662 22.9695C17.2912 22.9556 17.3255 22.9148 17.2893 22.9552C17.3277 22.9124 17.3496 22.9845 17.2902 22.9465C17.3208 22.966 17.2772 22.9458 17.2616 22.9405C17.2269 22.9286 17.1868 22.8766 17.1607 22.8697C17.1367 22.8634 17.1536 22.8263 17.1657 22.8927C17.1788 22.9755 17.1847 23.0592 17.1833 23.143C17.1742 23.4356 17.0624 23.7157 16.8676 23.9345C16.6271 24.1812 16.3313 24.3674 16.0046 24.4776C15.678 24.5878 15.3298 24.6189 14.9887 24.5684C14.579 24.5189 14.1911 24.3566 13.8684 24.0996C13.5746 23.8618 13.0639 23.2615 13.4137 22.881C13.6764 22.5951 13.25 22.167 12.9862 22.454Z" fill="#302813"/>
<path d="M28.505 39.9965C25.9943 39.0406 23.9799 36.5791 23.4102 33.9745C23.3272 33.595 22.7444 33.7556 22.8273 34.135C23.4445 36.957 25.6388 39.5487 28.3444 40.5788C28.7082 40.7173 28.8656 40.1338 28.505 39.9965V39.9965Z" fill="#302813"/>
<path d="M17.691 40.5784C20.3966 39.5483 22.5908 36.9566 23.208 34.1346C23.2909 33.7558 22.7083 33.594 22.6251 33.9741C22.0555 36.5787 20.0411 39.0402 17.5303 39.9961C17.1704 40.1331 17.3266 40.7171 17.691 40.5784V40.5784Z" fill="#302813"/>
<path d="M19.1315 42.966C20.3632 43.5194 21.6558 44.0168 23.0223 44.0596C24.2265 44.1259 25.4114 43.7359 26.3403 42.9676C26.6342 42.7119 26.2052 42.2863 25.9129 42.5406C24.0614 44.1508 21.4098 43.3312 19.4366 42.4446C19.0847 42.2865 18.7769 42.8067 19.1315 42.966V42.966Z" fill="#E2DAC5"/>
<path d="M7.43062 22.2132C9.38874 20.309 11.4221 18.4811 13.4864 16.6928C13.7809 16.4378 13.3518 16.0122 13.059 16.2658C10.9947 18.0541 8.96132 19.882 7.00319 21.7862C6.72396 22.0578 7.15159 22.4846 7.43062 22.2132Z" fill="#302813"/>
<path d="M39.2745 21.7109C37.4191 19.7682 35.9405 17.3513 33.5161 16.0373C33.1741 15.8519 32.8686 16.3731 33.211 16.5587C35.5831 17.8444 37.0309 20.2363 38.8471 22.1378C39.1161 22.4196 39.5431 21.9922 39.2745 21.7109Z" fill="#302813"/>
<path d="M32.9556 20.2243C33.4722 19.3862 33.3716 18.6577 31.7501 18.7142C28.6143 18.8235 28.5717 16.694 28.1104 17.4434C27.5405 18.369 29.0357 20.3655 29.9096 20.8671C30.7244 21.3349 32.3672 21.1786 32.9556 20.2243Z" fill="#FFFBF0"/>
<path d="M13.5902 20.2243C13.0735 19.3862 13.1742 18.6577 14.7957 18.7142C17.9314 18.8235 17.9741 16.694 18.4354 17.4434C19.0053 18.369 17.5101 20.3655 16.6362 20.8671C15.8213 21.3349 14.1785 21.1786 13.5902 20.2243Z" fill="#FFFBF0"/>
<path d="M33.3049 25.6875C33.1046 26.2819 32.9465 26.9152 32.7114 27.4912C32.4489 28.0633 32.2798 28.6737 32.2104 29.2992C32.1593 30.0535 32.4263 30.9615 33.1239 31.358C33.3442 31.4775 33.5889 31.5452 33.8394 31.5558C34.0899 31.5664 34.3395 31.5196 34.5691 31.4191C35.0077 31.202 35.2447 30.528 35.297 30.0817C35.345 29.5391 35.2501 28.9934 35.0216 28.4988C34.7477 27.8642 34.3224 27.3256 33.9562 26.7457C33.8055 26.507 33.6568 26.267 33.5101 26.0258C33.4846 25.984 33.2885 25.7361 33.3049 25.6875Z" fill="#6FB4B1"/>
<path d="M33.0133 25.6075C32.8322 26.1517 32.6879 26.7084 32.485 27.2452C32.2583 27.766 32.083 28.3077 31.9615 28.8626C31.8147 29.7299 31.9557 30.7484 32.6371 31.3724C33.2813 31.9625 34.4946 32.0932 35.0948 31.3692C35.7311 30.6016 35.7188 29.4753 35.3809 28.5864C35.1375 28.0135 34.8292 27.4703 34.462 26.9674C34.2742 26.6872 34.0953 26.4016 33.9184 26.1144C33.8592 26.0181 33.8021 25.9204 33.7382 25.8271C33.7154 25.7939 33.6906 25.7621 33.6678 25.7288C33.6322 25.677 33.5999 25.5559 33.607 25.6878C33.5862 25.3013 32.9816 25.2988 33.0025 25.6878C33.0188 25.823 33.0738 25.9506 33.161 26.0553C33.2712 26.2125 33.3696 26.3759 33.4707 26.5392C33.7332 26.9633 34.0164 27.3728 34.2866 27.7918C34.7823 28.5606 35.1946 29.4755 34.9217 30.4009C34.8211 30.742 34.6477 31.0977 34.2844 31.2071C34.0954 31.2619 33.8964 31.274 33.7021 31.2424C33.5078 31.2108 33.3229 31.1365 33.1609 31.0247C32.5299 30.5664 32.4253 29.6442 32.5604 28.935C32.6848 28.4115 32.8546 27.8998 33.0678 27.4057C33.2708 26.8689 33.4151 26.3122 33.5962 25.768C33.7192 25.3984 33.1356 25.24 33.0133 25.6075Z" fill="#302813"/>
<defs>
<radialGradient id="paint0_radial_204_569" cx="0" cy="0" r="1" gradientUnits="userSpaceOnUse" gradientTransform="translate(12.9635 17.8373) rotate(-111.051) scale(6.56846 3.84931)">
<stop stop-color="#E2DAC5"/>
<stop offset="0.09313" stop-color="#E2DAC5" stop-opacity="0.95675"/>
<stop offset="0.25035" stop-color="#E2DAC5" stop-opacity="0.83998"/>
<stop offset="0.45235" stop-color="#E2DAC5" stop-opacity="0.64995"/>
<stop offset="0.69133" stop-color="#E2DAC5" stop-opacity="0.38641"/>
<stop offset="0.95875" stop-color="#E2DAC5" stop-opacity="0.05422"/>
<stop offset="1" stop-color="#E2DAC5" stop-opacity="0"/>
</radialGradient>
<radialGradient id="paint1_radial_204_569" cx="0" cy="0" r="1" gradientUnits="userSpaceOnUse" gradientTransform="translate(32.431 17.6849) rotate(-70.7775) scale(7.10012 4.33219)">
<stop stop-color="#E2DAC5"/>
<stop offset="0.09313" stop-color="#E2DAC5" stop-opacity="0.95675"/>
<stop offset="0.25035" stop-color="#E2DAC5" stop-opacity="0.83998"/>
<stop offset="0.45235" stop-color="#E2DAC5" stop-opacity="0.64995"/>
<stop offset="0.69133" stop-color="#E2DAC5" stop-opacity="0.38641"/>
<stop offset="0.95875" stop-color="#E2DAC5" stop-opacity="0.05422"/>
<stop offset="1" stop-color="#E2DAC5" stop-opacity="0"/>
</radialGradient>
<radialGradient id="paint2_radial_204_569" cx="0" cy="0" r="1" gradientUnits="userSpaceOnUse" gradientTransform="translate(23.6036 51.6002) rotate(180) scale(15.3724 9.74748)">
<stop stop-color="#E2DAC5"/>
<stop offset="0.09313" stop-color="#E2DAC5" stop-opacity="0.95675"/>
<stop offset="0.25035" stop-color="#E2DAC5" stop-opacity="0.83998"/>
<stop offset="0.45235" stop-color="#E2DAC5" stop-opacity="0.64995"/>
<stop offset="0.69133" stop-color="#E2DAC5" stop-opacity="0.38641"/>
<stop offset="0.95875" stop-color="#E2DAC5" stop-opacity="0.05422"/>
<stop offset="1" stop-color="#E2DAC5" stop-opacity="0"/>
</radialGradient>
</defs>
</svg>
