<svg width="266" height="63" viewBox="0 0 266 63" fill="none" xmlns="http://www.w3.org/2000/svg">
<path d="M40.3026 54.1931C40.0487 56.6986 38.7295 58.7914 36.3451 60.4717C33.9608 62.1519 31.113 62.8148 27.802 62.4601C25.7658 62.1918 23.7901 61.5765 21.9597 60.6407C17.1877 58.3639 14.7456 57.2189 14.6335 57.2056C13.2817 57.0101 11.9026 57.2284 10.676 57.832C9.59763 58.4119 7.9965 58.5926 5.87266 58.3738C3.20138 58.0954 1.45185 57.1675 0.62408 55.59C0.0601419 54.5609 -0.117944 53.0746 0.0749824 51.1557C0.444346 47.5433 2.24499 44.7429 5.47692 42.7544C5.94522 42.4727 9.08646 41.0824 14.9006 38.5836C18.5283 37.0226 20.728 35.1468 21.4997 32.9562C21.1092 32.6445 20.652 32.4284 20.1641 32.3249C18.9669 32.1989 16.7178 32.6579 13.4166 33.7019C12.0997 34.1579 10.7055 34.3455 9.31566 34.2537C8.34944 34.1564 7.41529 33.8517 6.57636 33.3603C5.73743 32.8689 5.01329 32.2021 4.45293 31.4052C3.16675 29.6984 2.60281 28.0795 2.76111 26.5484C2.88643 25.342 3.73893 23.9915 5.31862 22.4968C6.35367 21.5031 7.59664 20.7544 8.95664 20.3054C10.3166 19.8564 11.7593 19.7186 13.1791 19.9019C15.5206 20.1438 17.0871 20.9724 17.8786 22.3875C18.6701 23.7943 19.5605 24.5499 20.54 24.6494C21.5195 24.7488 23.2113 24.3312 25.4572 23.3718C27.8969 22.3874 30.5463 22.0452 33.1544 22.3775C35.984 22.6725 38.0501 23.5888 39.3528 25.1266C40.6555 26.6644 41.1798 28.6628 40.9259 31.1218C40.6068 34.0679 39.2506 36.8024 37.102 38.8321C35.1613 40.6759 32.908 42.1558 30.4485 43.2018C28.356 43.6989 26.4614 44.2458 24.7349 44.8423C21.3645 46.0387 19.1747 47.5499 18.1655 49.376C18.9141 49.985 19.8204 50.3662 20.7775 50.4746C22.6005 50.6021 24.421 50.1926 26.0161 49.2965C30.1418 47.2218 32.5328 46.2143 33.189 46.274C35.2196 46.4497 37.1112 47.3825 38.4921 48.8888C39.1709 49.5795 39.6862 50.415 39.9996 51.3333C40.3131 52.2516 40.4166 53.2291 40.3026 54.1931Z" fill="#2C0164"/>
<path d="M179.65 42.8937C179.793 43.4266 179.881 43.9731 179.912 44.5242C180.026 45.5692 180.048 46.6222 179.976 47.671C179.949 48.6168 179.73 49.5472 179.333 50.4051C177.998 52.7714 176.805 54.3821 175.742 55.2123C174.274 56.3755 172.098 57.1196 169.212 57.4443C166.87 57.7128 165.213 57.1809 164.24 55.8486C163.581 54.9306 163.147 53.5121 162.939 51.5933C162.815 50.4742 162.827 49.3441 162.974 48.2278C163.117 47.0794 163.286 45.8565 163.469 44.559C162.905 43.4604 162.479 42.6551 162.123 42.1381C161.012 40.5473 159.938 39.8099 158.903 39.9259C158.382 40.3143 157.905 40.7576 157.478 41.2482C156.509 42.4115 156.081 43.5134 156.197 44.5541C156.382 45.1603 156.7 45.7174 157.127 46.1846C157.753 47.0788 158.128 48.1266 158.21 49.217C158.606 52.7731 157.843 55.5453 155.92 57.5338C154.192 59.3367 151.778 60.4138 148.678 60.7651C146.554 61.0037 145.005 60.4585 144.033 59.1296C143.314 58.1618 142.842 56.6705 142.618 54.6555C142.524 53.7582 142.524 52.8535 142.618 51.9562C142.707 51.0315 142.827 50.0075 142.979 48.884C142.811 47.7682 142.46 46.688 141.94 45.6875C141.159 44.1166 140.412 43.3709 139.709 43.4505C139.411 43.4698 139.126 43.5767 138.889 43.758C138.651 43.9392 138.472 44.1867 138.373 44.4696C138.13 45.1849 138.06 45.9487 138.171 46.6967C138.339 47.8493 138.605 48.9853 138.967 50.092C139.402 51.5402 139.63 52.3456 139.65 52.508C139.864 54.4202 139.226 56.3474 137.735 58.2894C136.827 59.4621 135.686 60.4319 134.385 61.1371C133.084 61.8423 131.65 62.2675 130.177 62.3857C127.347 62.7171 125.167 61.9399 123.637 60.0542C122.341 58.4701 121.528 56.1667 121.198 53.1443C121.016 51.1119 121.205 49.0631 121.757 47.0993C123.033 42.2541 123.629 39.447 123.543 38.6781C123.3 37.2479 122.921 35.8444 122.41 34.4874C121.819 32.79 121.412 31.0332 121.198 29.2478C120.842 26.7157 121.147 24.134 122.084 21.7562C123.165 19.1977 124.925 17.781 127.362 17.5059C128.811 17.3542 130.272 17.6361 131.562 18.3162C133.101 19.1572 134.413 20.3617 135.386 21.8258C136.895 20.6719 138.516 19.6727 140.224 18.8431C141.689 18.086 143.271 17.5819 144.903 17.3518C146.922 17.1231 148.571 17.491 149.85 18.4554C150.464 18.9956 151.072 19.5076 151.675 19.9915C153.013 18.687 154.478 17.5212 156.048 16.5117C157.676 15.4839 159.518 14.8492 161.431 14.6574C164.102 14.3558 166.894 15.1197 169.806 16.9491C173.433 19.1961 175.473 22.371 175.925 26.4739C176.086 27.752 176.106 29.0441 175.984 30.3266C175.861 31.4202 175.717 32.5039 175.564 33.5727C175.663 34.4477 176.208 35.881 177.201 37.8728C178.682 40.8522 179.498 42.5258 179.65 42.8937Z" fill="#2C0164"/>
<path d="M199.665 51.3098C199.665 54.5013 198.675 56.8675 196.697 58.4086C194.945 59.7806 192.701 60.4683 189.964 60.4716C188.104 60.4716 186.242 59.5354 184.379 57.6629C183.318 56.6253 182.48 55.3801 181.917 54.0044C181.354 52.6287 181.077 51.1516 181.104 49.6643C181.434 48.6701 181.68 47.8995 181.841 47.3527C182.271 46.1259 182.547 44.8501 182.662 43.5547C183.471 42.5942 184.06 41.4676 184.389 40.2539C185.043 37.694 185.347 35.0567 185.294 32.4143C185.252 30.0646 185.787 27.7406 186.852 25.6485C187.891 23.6601 189.314 22.6658 191.121 22.6658C193.042 22.6823 194.899 23.3536 196.39 24.5698C197.452 25.3739 198.305 26.4238 198.877 27.6303C199.449 28.8368 199.722 30.1641 199.675 31.4996C199.675 32.9313 199.099 34.9397 197.948 37.5247C197.476 38.4528 197.197 39.4675 197.127 40.5074C197.127 41.3889 197.702 43.5895 198.853 47.1091C199.341 48.4579 199.615 49.8754 199.665 51.3098Z" fill="#2C0164"/>
<path d="M235.529 49.2468C235.529 51.4507 234.106 53.8981 231.26 56.5892C228.414 59.2803 225.594 60.6291 222.801 60.6357C222.033 60.7451 221.142 60.8545 220.13 60.9638C218.997 61.0791 217.86 61.1339 216.721 61.1279H214.505C210.877 60.5777 208.195 59.668 206.457 58.3987C204.428 56.9074 202.827 54.614 201.653 51.5186C200.451 48.2875 199.853 44.8615 199.887 41.4122C199.887 34.2272 201.858 28.7026 205.799 24.8383C209.469 21.1928 214.398 19.37 220.585 19.37C224.691 19.37 228.071 20.4835 230.726 22.7106C233.381 24.9377 234.7 27.8956 234.683 31.5842C234.683 33.7317 233.452 35.7202 230.988 37.5496C228.524 39.379 225.385 40.3069 221.569 40.3335C219.946 40.3933 218.321 40.2817 216.721 40.0004C215.106 39.5348 213.656 38.6197 212.536 37.3607C212.423 37.7484 212.289 38.2406 212.126 38.852C211.974 39.3606 211.891 39.8873 211.878 40.418C211.928 41.547 212.236 42.6494 212.779 43.6393C213.392 44.8562 214.408 45.8198 215.653 46.3635C216.891 46.9511 218.241 47.2599 219.61 47.2682C219.996 47.2682 221.315 46.4977 223.568 44.9566C225.82 43.4156 227.573 42.6467 228.826 42.65C230.96 42.65 232.609 43.1853 233.773 44.2557C234.937 45.3262 235.523 46.9899 235.529 49.2468ZM224.527 28.9445C224.527 28.0099 223.924 27.4034 222.717 27.125C222.336 27.0753 221.728 27.0157 220.911 26.961C220.589 26.987 220.276 27.0815 219.993 27.2383C219.71 27.3952 219.463 27.6107 219.269 27.8707C218.988 28.1974 218.783 28.5829 218.67 28.9991C218.556 29.4153 218.536 29.8518 218.611 30.2768C218.724 30.5799 218.892 30.8597 219.106 31.102C219.38 31.3872 219.713 31.6088 220.081 31.7513C220.449 31.8939 220.844 31.9539 221.238 31.9272C221.682 31.9413 222.126 31.886 222.554 31.7631C223.039 31.6503 223.478 31.393 223.816 31.025C224.153 30.6569 224.372 30.1951 224.443 29.7001C224.45 29.4463 224.478 29.1935 224.527 28.9445Z" fill="#2C0164"/>
<path d="M265.804 45.6377C266.44 49.7041 265.528 53.0696 263.068 55.7341C260.895 58.1369 257.943 59.6282 254.213 60.2082C249.184 61.0102 245.19 60.7285 242.232 59.3631C240.837 58.7722 239.622 57.8224 238.708 56.6093C237.795 55.3963 237.215 53.9628 237.028 52.4531C237.125 51.866 237.184 51.2732 237.206 50.6784C237.225 49.7973 237.157 48.9164 237.003 48.0487C236.934 47.6162 237.211 47.0544 237.829 46.4181C238.448 45.7818 238.68 45.3145 238.527 45.061C239.551 44.5092 240.412 44.0668 241.104 43.7387C241.717 43.4328 242.37 43.2168 243.043 43.0974C244.093 43.0058 245.148 43.1766 246.115 43.5945C248.754 44.5887 250.132 45.0759 250.251 45.056C250.424 45.0192 250.587 44.9445 250.728 44.837C250.869 44.7296 250.985 44.5922 251.067 44.4346C251.278 44.1084 251.364 43.7163 251.31 43.331C251.156 42.3716 250.528 41.79 249.415 41.5812C248.051 41.3793 246.664 41.4062 245.309 41.6607C243.904 41.8861 243.029 42.0385 242.682 42.1181C242.389 42.178 242.11 42.2945 241.861 42.4611C240.519 42.2465 239.196 41.9257 237.904 41.5016C237.03 41.1824 236.264 40.6222 235.692 39.8854C235.121 39.1487 234.768 38.265 234.673 37.3358C234.501 35.8702 234.671 34.3845 235.168 32.996C235.435 32.2304 235.96 31.0075 236.751 29.3223C238.314 26.2302 240.06 23.9335 241.99 22.4322C243.919 20.9309 246.585 19.9085 249.989 19.365C253.481 18.8115 256.227 19.2672 258.225 20.7321C259.076 21.3669 259.788 22.1696 260.319 23.0912C260.85 24.0127 261.188 25.0335 261.312 26.091C261.475 27.0178 261.406 27.9708 261.111 28.864C260.815 29.7571 260.303 30.5622 259.62 31.2063C258.322 32.4907 256.643 33.3145 254.837 33.5527C253.753 33.7267 252.23 33.3787 250.266 32.5237C249.654 32.2053 248.976 32.0351 248.287 32.0266C247.843 32.1185 247.431 32.3279 247.095 32.6331C246.914 32.7549 246.769 32.9237 246.676 33.1215C246.583 33.3193 246.545 33.5387 246.566 33.7565C246.635 34.1874 250.503 35.3473 258.171 37.2364C260.648 37.8429 262.501 38.8818 263.731 40.3533C264.757 41.5895 265.448 43.3509 265.804 45.6377Z" fill="#2C0164"/>
<path d="M60.9209 61.8288C72.2918 61.8288 81.5096 52.3007 81.5096 40.5472C81.5096 28.7937 72.2918 19.2656 60.9209 19.2656C49.5501 19.2656 40.3322 28.7937 40.3322 40.5472C40.3322 52.3007 49.5501 61.8288 60.9209 61.8288Z" fill="#878787"/>
<path d="M80.7236 38.961C81.0867 27.9631 72.5932 18.7545 61.7529 18.3931C50.9126 18.0318 41.8304 26.6544 41.4674 37.6523C41.1043 48.6503 49.5978 57.8588 60.4381 58.2202C71.2784 58.5816 80.3606 49.9589 80.7236 38.961Z" fill="#DDDDDD"/>
<path d="M74.4209 25.5193C77.7195 29.1039 79.496 33.8406 79.3722 38.7214C79.2484 43.6022 77.2341 48.2418 73.758 51.6528C70.3632 55.0006 65.796 56.875 61.0397 56.8726C60.8369 56.8726 60.634 56.8726 60.4263 56.8726C58.0171 56.797 55.6473 56.2387 53.4557 55.2306C51.2641 54.2224 49.2948 52.7847 47.6635 51.0016C47.6635 51.0016 60.5796 59.8354 71.3241 50.5045C81.8164 41.3675 74.4209 25.574 74.4209 25.574V25.5193Z" fill="#C7C6C5"/>
<path d="M61.752 18.3906C56.5208 18.2435 51.4456 20.1901 47.6423 23.8025C43.839 27.4148 41.6188 32.3971 41.47 37.654C41.4172 39.2214 41.5467 40.7896 41.8559 42.3269C43.9769 45.5995 47.085 48.1035 50.7249 49.4724C54.3647 50.8412 58.3451 51.0028 62.083 49.9335C65.8209 48.8643 69.1199 46.6203 71.4968 43.5304C73.8736 40.4404 75.2035 36.6668 75.2915 32.7623C75.4242 28.9136 74.3609 25.1189 72.2492 21.9053C69.163 19.7362 65.5161 18.5152 61.752 18.3906Z" fill="#EBEBEB"/>
<path d="M76.4658 45.138C76.6455 39.6939 72.4393 35.1355 67.0711 34.9565C61.7028 34.7776 57.2053 39.0458 57.0255 44.4899C56.8458 49.934 61.052 54.4924 66.4202 54.6713C71.7885 54.8503 76.2861 50.5821 76.4658 45.138Z" fill="#6D2DC1"/>
<path d="M72.9209 45.0198C73.035 41.5624 70.3628 38.6674 66.9523 38.5537C63.5419 38.44 60.6846 41.1507 60.5705 44.6081C60.4564 48.0655 63.1286 50.9605 66.539 51.0742C69.9495 51.1879 72.8067 48.4773 72.9209 45.0198Z" fill="#2C0164"/>
<path opacity="0.44" d="M56.7171 31.6868C56.827 28.3748 54.2709 25.6012 51.0079 25.4919C47.7449 25.3825 45.0107 27.9788 44.9008 31.2908C44.7908 34.6028 47.3469 37.3763 50.6099 37.4857C53.8729 37.595 56.6072 34.9988 56.7171 31.6868Z" fill="white"/>
<path opacity="0.53" d="M63.38 38.7758C63.7539 37.1912 62.7788 35.6021 61.202 35.2264C59.6251 34.8507 58.0438 35.8306 57.6699 37.4152C57.296 38.9998 58.2712 40.5889 59.848 40.9646C61.4248 41.3403 63.0062 40.3604 63.38 38.7758Z" fill="white"/>
<path d="M101.51 61.8288C112.881 61.8288 122.098 52.3007 122.098 40.5472C122.098 28.7937 112.881 19.2656 101.51 19.2656C90.1389 19.2656 80.921 28.7937 80.921 40.5472C80.921 52.3007 90.1389 61.8288 101.51 61.8288Z" fill="#878787"/>
<path d="M121.023 38.7257C121.352 27.7217 112.825 18.5362 101.979 18.2092C91.1329 17.8822 82.0739 26.5376 81.7454 37.5416C81.4169 48.5456 89.9432 57.7311 100.79 58.0581C111.636 58.3851 120.695 49.7297 121.023 38.7257Z" fill="#DDDDDD"/>
<path d="M115.005 25.5193C118.303 29.1039 120.08 33.8406 119.956 38.7214C119.832 43.6022 117.818 48.2418 114.342 51.6528C110.95 55.0017 106.384 56.8764 101.628 56.8726C101.421 56.8726 101.218 56.8726 101.015 56.8726C98.6051 56.7971 96.2345 56.2389 94.0421 55.2307C91.8496 54.2226 89.8795 52.7848 88.2472 51.0016C88.2472 51.0016 101.168 59.8354 111.908 50.5045C122.4 41.3675 115.005 25.574 115.005 25.574V25.5193Z" fill="#C7C6C5"/>
<path d="M102.341 18.3906C97.11 18.2448 92.0355 20.1919 88.2324 23.8039C84.4294 27.416 82.2089 32.3975 82.0588 37.6539C82.0085 39.2213 82.1379 40.7893 82.4446 42.3269C84.5665 45.5973 87.6743 48.0993 91.3133 49.4667C94.9522 50.834 98.9311 50.995 102.668 49.926C106.404 48.8569 109.702 46.6141 112.079 43.5256C114.455 40.4372 115.786 36.6654 115.875 32.7623C116.01 28.9133 114.947 25.1179 112.833 21.9053C109.749 19.7363 106.103 18.5152 102.341 18.3906Z" fill="#EBEBEB"/>
<path d="M108.604 33.7727C108.787 27.6585 104.049 22.5546 98.022 22.3729C91.9951 22.1912 86.9613 27.0005 86.7788 33.1147C86.5963 39.229 91.3341 44.3328 97.361 44.5145C103.388 44.6962 108.422 39.887 108.604 33.7727Z" fill="#6D2DC1"/>
<path d="M104.899 33.8334C105.027 29.9534 102.03 26.7047 98.2045 26.5771C94.379 26.4496 91.174 29.4916 91.0459 33.3716C90.9178 37.2516 93.9152 40.5004 97.7407 40.6279C101.566 40.7554 104.771 37.7134 104.899 33.8334Z" fill="#2C0164"/>
<path opacity="0.44" d="M97.2933 29.9087C97.4026 26.5967 94.846 23.8236 91.583 23.7148C88.32 23.606 85.5862 26.2027 85.4768 29.5147C85.3675 32.8267 87.9241 35.5998 91.1871 35.7086C94.4501 35.8174 97.1839 33.2207 97.2933 29.9087Z" fill="white"/>
<path opacity="0.53" d="M109.449 47.9394C111.075 47.9394 112.393 46.6151 112.393 44.9815C112.393 43.348 111.075 42.0237 109.449 42.0237C107.824 42.0237 106.506 43.348 106.506 44.9815C106.506 46.6151 107.824 47.9394 109.449 47.9394Z" fill="white"/>
<path d="M88.4699 3.16396C88.4699 3.16396 96.741 -2.60261 105.368 2.66684C113.996 7.93629 118.2 21.9898 118.2 21.9898C118.2 21.9898 110.285 10.8743 102.276 7.3646C94.2676 3.85495 88.4699 3.16396 88.4699 3.16396Z" fill="#2C0164"/>
<path d="M74.0647 7.40939C74.0647 7.40939 67.4755 0.86235 58.8186 4.27755C50.1616 7.69275 44.1314 19.7578 44.1314 19.7578C44.1314 19.7578 53.0753 10.9389 60.8814 9.03C68.6875 7.12106 74.0647 7.40939 74.0647 7.40939Z" fill="#2C0164"/>
<g style="mix-blend-mode:overlay">
<path d="M205.067 9.74582C204.176 8.81124 202.672 8.75159 201.223 9.45749C201.467 9.08077 201.671 8.67919 201.831 8.25944C202.737 5.77385 202.094 3.37277 200.347 2.73149C198.834 2.16974 197.068 3.18884 196.044 5.10274C195.747 2.95022 194.446 1.37436 192.833 1.36938C192.336 1.39356 191.854 1.54279 191.429 1.80338C191.005 2.06397 190.652 2.42756 190.404 2.86074C189.823 3.81411 189.524 4.91438 189.543 6.03235C189.538 6.47816 189.582 6.9232 189.672 7.35965C188.559 6.18646 187.129 5.71917 185.967 6.28588C184.379 7.05641 183.988 9.43264 185.072 11.6945C185.517 12.6628 186.227 13.4836 187.12 14.0608C187.568 14.3423 188.077 14.5126 188.604 14.5579C186.986 15.7858 186.13 17.2225 186.209 18.5796C186.238 19.0664 186.399 19.536 186.675 19.9373C186.95 20.3387 187.33 20.6566 187.773 20.8564C188.935 21.4181 190.098 21.0553 191.122 20.7321C191.8 20.4487 192.537 20.3361 193.268 20.404H193.323C194.027 20.5961 194.674 20.9578 195.208 21.4579C196.039 22.1042 196.979 22.8349 198.22 22.7604H198.304C198.788 22.7278 199.255 22.5628 199.652 22.2833C200.05 22.0038 200.364 21.6204 200.56 21.1746C201.114 19.9367 200.802 18.2813 199.714 16.5663C200.064 16.6679 200.429 16.7066 200.793 16.6806C202.019 16.5522 203.163 15.9985 204.028 15.1147C205.838 13.3748 206.284 11.0334 205.067 9.74582Z" fill="#071C23"/>
</g>
<path d="M205.507 9.24368C204.616 8.3091 203.113 8.24945 201.668 8.95536C201.899 8.57581 202.093 8.17457 202.247 7.7573C203.152 5.29657 202.509 2.87063 200.763 2.22438C199.254 1.66264 197.483 2.6867 196.459 4.6006C196.182 2.43814 194.906 0.87222 193.268 0.867249C192.772 0.891422 192.289 1.04066 191.864 1.30125C191.44 1.56184 191.088 1.92542 190.839 2.3586C190.252 3.31186 189.946 4.41375 189.959 5.53518C189.958 5.98079 190.001 6.42537 190.088 6.86249C188.975 5.69426 187.55 5.22697 186.387 5.78871C184.794 6.56422 184.409 8.94044 185.487 11.1974C185.934 12.1674 186.646 12.9898 187.54 13.5686C187.988 13.8518 188.497 14.0223 189.024 14.0657C187.411 15.2936 186.551 16.7353 186.63 18.0924C186.66 18.5789 186.821 19.048 187.096 19.4492C187.372 19.8504 187.751 20.1684 188.193 20.3692C189.355 20.9309 190.518 20.5631 191.547 20.2399C192.224 19.9587 192.959 19.8461 193.689 19.9118H193.743C194.447 20.1079 195.093 20.4711 195.628 20.9707C196.459 21.6169 197.399 22.3477 198.641 22.2682H198.725C199.209 22.2356 199.675 22.0706 200.072 21.7911C200.47 21.5116 200.784 21.1282 200.98 20.6824C201.535 19.4396 201.223 17.7891 200.135 16.0741C200.485 16.1757 200.85 16.2144 201.213 16.1884C202.441 16.0558 203.586 15.5008 204.453 14.6175C206.283 12.8776 206.734 10.5262 205.507 9.24368Z" fill="white"/>
<path d="M195.282 11.2818C193.16 10.9537 192.314 12.8527 190.083 14.3192C186.813 16.4668 186.932 18.8629 188.564 19.6483C190.196 20.4338 192.027 18.7585 193.862 19.1512H193.916C195.786 19.4495 196.885 21.6368 198.7 21.4926C200.516 21.3485 201.446 19.1214 199.121 15.9647C197.518 13.7973 197.379 11.7193 195.282 11.2818Z" fill="#2C0164"/>
<path d="M190.454 8.78633C191.329 10.6108 191.097 12.5545 189.924 13.1212C188.752 13.6879 187.09 12.6738 186.209 10.8494C185.329 9.02495 185.566 7.08121 186.739 6.50953C187.911 5.93784 189.588 6.96191 190.454 8.78633Z" fill="#2C0164"/>
<path d="M200.664 10.6307C199.205 12.0326 198.754 13.9366 199.675 14.8811C200.595 15.8256 202.484 15.4528 203.944 14.0509C205.403 12.649 205.853 10.7451 204.933 9.80054C204.013 8.85602 202.123 9.22886 200.664 10.6307Z" fill="#2C0164"/>
<path d="M195.747 5.54518C195.747 7.68776 194.624 9.41773 193.273 9.41773C191.923 9.41773 190.8 7.67782 190.8 5.54021C190.8 3.4026 191.918 1.66766 193.273 1.66766C194.629 1.66766 195.747 3.43243 195.747 5.54518Z" fill="#2C0164"/>
<path d="M196.84 5.74402C196.103 7.73249 196.548 9.7657 197.829 10.2181C199.111 10.6705 200.758 9.45749 201.495 7.4541C202.232 5.45072 201.792 3.43242 200.506 2.98004C199.219 2.52766 197.577 3.74063 196.84 5.74402Z" fill="#2C0164"/>
</svg>
